<?xml version="1.0" encoding="UTF-8" standalone="no"?><!DOCTYPE svg PUBLIC "-//W3C//DTD SVG 1.1//EN" "http://www.w3.org/Graphics/SVG/1.1/DTD/svg11.dtd"><svg width="100%" height="100%" viewBox="0 0 128 128" version="1.1" xmlns="http://www.w3.org/2000/svg" xmlns:xlink="http://www.w3.org/1999/xlink" xml:space="preserve" xmlns:serif="http://www.serif.com/" style="fill-rule:evenodd;clip-rule:evenodd;stroke-linejoin:round;stroke-miterlimit:1.41421;"><rect id="cart" x="0" y="0" width="128" height="128" style="fill:none;"/><clipPath id="_clip1"><rect id="cart1" serif:id="cart" x="0" y="0" width="128" height="128"/></clipPath><g clip-path="url(#_clip1)"><g><path d="M97.705,41.359l-77.11,1.344l4.372,34.373l57.832,-1.008l14.906,-34.709Z"/><circle cx="35.961" cy="95.225" r="7"/><circle cx="78.103" cy="95.225" r="7"/><path d="M118.518,33.794c3.52,0.594 2.997,2.525 2.609,3.965c-0.355,1.318 -1.598,2.227 -2.939,2.302l-9.588,0l-19.293,43.83c0,0 -0.851,1.74 -2.775,1.845l-58.886,0.039c-3.286,-0.181 -4.183,-6.049 -0.004,-6.286l56.922,-0.038l19.293,-43.831c0,0 0.852,-1.741 2.778,-1.845l11.553,0c0.11,0.006 0.22,0.012 0.33,0.019Z" style="fill-rule:nonzero;"/></g></g></svg>