<?xml version="1.0" encoding="UTF-8" standalone="no"?><!DOCTYPE svg PUBLIC "-//W3C//DTD SVG 1.1//EN" "http://www.w3.org/Graphics/SVG/1.1/DTD/svg11.dtd"><svg width="100%" height="100%" viewBox="0 0 128 128" version="1.1" xmlns="http://www.w3.org/2000/svg" xmlns:xlink="http://www.w3.org/1999/xlink" xml:space="preserve" xmlns:serif="http://www.serif.com/" style="fill-rule:evenodd;clip-rule:evenodd;stroke-linejoin:round;stroke-miterlimit:1.41421;"><rect id="credit-card" x="0" y="0" width="128" height="128" style="fill:none;"/><clipPath id="_clip1"><rect id="credit-card1" serif:id="credit-card" x="0" y="0" width="128" height="128"/></clipPath><g clip-path="url(#_clip1)"><g><path d="M103.465,35.025c4.498,0.17 8.416,4.051 8.485,8.65l0.038,48.679c-0.051,4.479 -3.826,8.49 -8.481,8.666c-26.276,0.297 -52.556,0.002 -78.834,0.002c-4.498,-0.05 -8.483,-3.871 -8.666,-8.471c-0.215,-16.287 -0.028,-32.577 -0.04,-48.866c0.059,-4.497 3.883,-8.486 8.48,-8.66c26.338,-0.298 52.681,-0.298 79.018,0Zm-78.8,5.997c-1.409,0.018 -2.644,1.212 -2.697,2.631c-0.194,16.245 -0.181,32.494 0.037,48.739c0.054,1.382 1.24,2.577 2.632,2.629c26.239,0.333 52.484,0.333 78.722,0c1.385,-0.052 2.576,-1.237 2.628,-2.629c0.193,-16.245 0.181,-32.494 -0.038,-48.739c-0.053,-1.382 -1.24,-2.577 -2.631,-2.63c-26.216,-0.332 -52.436,-0.001 -78.653,-0.001Zm81.323,6.978l0,13l-84.021,0l0,-13l84.021,0Z"/><g><path d="M92.273,67.011c1.42,0.144 2.175,2.83 2.823,4.92c1.698,5.474 0.99,11.688 -2.009,16.588c0,0 -0.356,0.463 -0.814,0.489c-0.862,0.049 -1.514,-0.519 -0.553,-2.223c3.079,-5.558 2.937,-12.78 -0.376,-18.191c0,0 -0.34,-1.599 0.929,-1.583Z" style="fill-rule:nonzero;"/><path d="M88.554,69.008c0.84,0.128 1.189,1.199 1.547,1.951c2.315,4.874 2.013,10.94 -0.787,15.563c0,0 -0.275,0.403 -0.692,0.479c-0.884,0.161 -1.477,-0.833 -0.814,-1.971c2.476,-4.428 2.338,-10.095 -0.247,-14.456c0,0 -0.232,-1.656 0.993,-1.566Z" style="fill-rule:nonzero;"/><path d="M84.832,70.998c1.157,0.139 1.7,2.044 2.124,3.547c0.955,3.383 0.675,7.319 -1.416,10.098c-0.749,0.869 -2.3,-0.047 -1.408,-1.647c1.743,-3.246 1.499,-7.29 -0.295,-10.481c-0.145,-0.305 -0.125,-0.358 -0.116,-0.536c0.029,-0.562 0.377,-1.019 1.111,-0.981Z" style="fill-rule:nonzero;"/><path d="M81.056,73.054c2.519,0.183 3.324,6.524 0.729,9.554c-0.766,0.895 -2.217,-0.103 -1.257,-1.857c0.997,-1.908 0.791,-4.284 -0.391,-6.116c-0.384,-0.671 0.076,-1.595 0.919,-1.581Z" style="fill-rule:nonzero;"/></g></g></g></svg>