<?xml version="1.0" encoding="UTF-8" standalone="no"?><!DOCTYPE svg PUBLIC "-//W3C//DTD SVG 1.1//EN" "http://www.w3.org/Graphics/SVG/1.1/DTD/svg11.dtd"><svg width="100%" height="100%" viewBox="0 0 128 128" version="1.1" xmlns="http://www.w3.org/2000/svg" xmlns:xlink="http://www.w3.org/1999/xlink" xml:space="preserve" xmlns:serif="http://www.serif.com/" style="fill-rule:evenodd;clip-rule:evenodd;stroke-linejoin:round;stroke-miterlimit:1.41421;"><rect id="device-desktop" x="0" y="0" width="128" height="128" style="fill:none;"/><clipPath id="_clip1"><rect id="device-desktop1" serif:id="device-desktop" x="0" y="0" width="128" height="128"/></clipPath><g clip-path="url(#_clip1)"><path d="M76.558,97.74l0,2.835l3.131,2.825l0,0.324c-10.271,0.367 -20.729,0.369 -31.377,0l0,-0.324l3.13,-2.823l0,-2.837l-45.62,0c-0.452,0 -0.818,-0.367 -0.818,-0.818l0,-72.105c0,-0.451 0.366,-0.817 0.818,-0.817l116.356,0c0.452,0 0.818,0.366 0.818,0.817l0,72.105c0,0.444 -0.355,0.806 -0.796,0.817l-0.022,0.001l-45.62,0Zm41.468,-7.304l0,-60.7l-108,0l0,60.7l108,0Z"/></g></svg>