<?xml version="1.0" encoding="UTF-8" standalone="no"?><!DOCTYPE svg PUBLIC "-//W3C//DTD SVG 1.1//EN" "http://www.w3.org/Graphics/SVG/1.1/DTD/svg11.dtd"><svg width="100%" height="100%" viewBox="0 0 128 128" version="1.1" xmlns="http://www.w3.org/2000/svg" xmlns:xlink="http://www.w3.org/1999/xlink" xml:space="preserve" xmlns:serif="http://www.serif.com/" style="fill-rule:evenodd;clip-rule:evenodd;stroke-linejoin:round;stroke-miterlimit:1.41421;"><rect id="device-smartwatch" x="0" y="0" width="128" height="128" style="fill:none;"/><clipPath id="_clip1"><rect id="device-smartwatch1" serif:id="device-smartwatch" x="0" y="0" width="128" height="128"/></clipPath><g clip-path="url(#_clip1)"><path d="M73.516,96l-21.061,0c-4.016,0 -7.276,-3.26 -7.276,-7.276l0,-0.875l-6.299,-6.035l0.292,0c-1.588,-1.518 -2.578,-3.657 -2.578,-6.025l0,-25.557c0,-3.531 2.2,-6.552 5.303,-7.766l3.282,-3.235c0.024,-3.995 3.275,-7.231 7.276,-7.231l21.061,0c4.001,0 7.251,3.236 7.275,7.231l3.283,3.235c3.103,1.214 5.303,4.235 5.303,7.766l0,7.83l0.449,0c0.873,0 1.58,0.708 1.58,1.58l0,6.737c0,0.872 -0.707,1.58 -1.58,1.58l-0.449,0l0,7.83c0,2.368 -0.99,4.507 -2.579,6.025l0.293,0l-6.3,6.035l0,0.875c0,4.016 -3.26,7.276 -7.275,7.276Zm9.547,-47.835l-40.156,0c-1.664,0 -3.015,1.351 -3.015,3.015l0,23.661c0,1.664 1.351,3.015 3.015,3.015l40.156,0c1.664,0 3.015,-1.351 3.015,-3.015l0,-23.661c0,-1.664 -1.351,-3.015 -3.015,-3.015Z"/></g></svg>