<?xml version="1.0" encoding="UTF-8" standalone="no"?><!DOCTYPE svg PUBLIC "-//W3C//DTD SVG 1.1//EN" "http://www.w3.org/Graphics/SVG/1.1/DTD/svg11.dtd"><svg width="100%" height="100%" viewBox="0 0 128 128" version="1.1" xmlns="http://www.w3.org/2000/svg" xmlns:xlink="http://www.w3.org/1999/xlink" xml:space="preserve" xmlns:serif="http://www.serif.com/" style="fill-rule:evenodd;clip-rule:evenodd;stroke-linejoin:round;stroke-miterlimit:1.41421;"><rect id="device-laptop" x="0" y="0" width="128" height="128" style="fill:none;"/><clipPath id="_clip1"><rect id="device-laptop1" serif:id="device-laptop" x="0" y="0" width="128" height="128"/></clipPath><g clip-path="url(#_clip1)"><path d="M118.477,104l-108.954,0c-0.614,0 -1.112,-0.498 -1.112,-1.112l0,-2.223c0,-0.614 0.498,-1.112 1.112,-1.112l5.725,0l0,-59.202l0.216,-0.324l0.134,-0.027l96.765,0c0.044,0.009 0.089,0.018 0.134,0.027c0.258,0.173 0.216,0.324 0.216,0.324l0,59.076c0.014,0.026 0.027,0.089 0.039,0.126l5.725,0c0.614,0 1.112,0.498 1.112,1.112l0,2.223c0,0.614 -0.498,1.112 -1.112,1.112Zm-9.945,-59.234l-89.1,0l0,49.5l89.1,0l0,-49.5Z"/></g></svg>