<?xml version="1.0" encoding="UTF-8" standalone="no"?><!DOCTYPE svg PUBLIC "-//W3C//DTD SVG 1.1//EN" "http://www.w3.org/Graphics/SVG/1.1/DTD/svg11.dtd"><svg width="100%" height="100%" viewBox="0 0 128 128" version="1.1" xmlns="http://www.w3.org/2000/svg" xmlns:xlink="http://www.w3.org/1999/xlink" xml:space="preserve" xmlns:serif="http://www.serif.com/" style="fill-rule:evenodd;clip-rule:evenodd;stroke-linejoin:round;stroke-miterlimit:1.41421;"><rect id="device-smartphone" x="0" y="0" width="128" height="128" style="fill:none;"/><clipPath id="_clip1"><rect id="device-smartphone1" serif:id="device-smartphone" x="0" y="0" width="128" height="128"/></clipPath><g clip-path="url(#_clip1)"><path d="M79.486,104l-32.995,0c-2.399,0 -4.346,-1.947 -4.346,-4.346l0,-68.599c0,-2.399 1.947,-4.346 4.346,-4.346l32.808,0l0,-1.847c0,-0.476 0.386,-0.862 0.862,-0.862l1.169,0c0.476,0 0.862,0.386 0.862,0.862l0,2.794c0.999,0.796 1.639,2.023 1.639,3.399l0,68.599c0,2.399 -1.947,4.346 -4.345,4.346Zm-2.963,-72.395l-27.07,0c-2.242,0 -3.565,1.553 -3.565,3.795l0,59.91c0,2.242 1.323,3.795 3.565,3.795l27.07,0c2.242,0 3.565,-1.553 3.565,-3.795l0,-59.91c0,-2.242 -1.323,-3.795 -3.565,-3.795Z"/></g></svg>