<?xml version="1.0" encoding="UTF-8" standalone="no"?><!DOCTYPE svg PUBLIC "-//W3C//DTD SVG 1.1//EN" "http://www.w3.org/Graphics/SVG/1.1/DTD/svg11.dtd"><svg width="100%" height="100%" viewBox="0 0 128 128" version="1.1" xmlns="http://www.w3.org/2000/svg" xmlns:xlink="http://www.w3.org/1999/xlink" xml:space="preserve" xmlns:serif="http://www.serif.com/" style="fill-rule:evenodd;clip-rule:evenodd;stroke-linejoin:round;stroke-miterlimit:1.41421;"><rect id="device-tv" x="0" y="0" width="128" height="128" style="fill:none;"/><clipPath id="_clip1"><rect id="device-tv1" serif:id="device-tv" x="0" y="0" width="128" height="128"/></clipPath><g clip-path="url(#_clip1)"><path d="M96.04,104l-64.08,0c-7.497,0 -13.584,-6.087 -13.584,-13.584l0,-41.268c0,-7.497 6.087,-13.584 13.584,-13.584l22.083,0c1.56,-2.086 5.432,-3.564 9.958,-3.564c4.525,0 8.397,1.478 9.958,3.564l22.081,0c7.498,0.001 13.584,6.087 13.584,13.584l0,41.268c0,7.468 -6.04,13.536 -13.496,13.584l-0.088,0Zm-0.683,-15.791c-9.6,1.174 -20.206,1.826 -31.357,1.826c-11.151,0 -21.757,-0.652 -31.357,-1.826c-1.84,-6.129 -2.861,-12.901 -2.861,-20.021c0,-7.121 1.021,-13.893 2.861,-20.022c9.6,-1.175 20.206,-1.826 31.357,-1.826c11.151,0 21.757,0.651 31.356,1.826c1.841,6.129 2.862,12.901 2.862,20.022c0,7.12 -1.021,13.892 -2.861,20.021Z"/></g></svg>