<?xml version="1.0" encoding="UTF-8" standalone="no"?><!DOCTYPE svg PUBLIC "-//W3C//DTD SVG 1.1//EN" "http://www.w3.org/Graphics/SVG/1.1/DTD/svg11.dtd"><svg width="100%" height="100%" viewBox="0 0 128 128" version="1.1" xmlns="http://www.w3.org/2000/svg" xmlns:xlink="http://www.w3.org/1999/xlink" xml:space="preserve" xmlns:serif="http://www.serif.com/" style="fill-rule:evenodd;clip-rule:evenodd;stroke-linejoin:round;stroke-miterlimit:1.41421;"><rect id="file-zip" x="0" y="0" width="128" height="128" style="fill:none;"/><clipPath id="_clip1"><rect id="file-zip1" serif:id="file-zip" x="0" y="0" width="128" height="128"/></clipPath><g clip-path="url(#_clip1)"><path d="M112,28l-24,-24l-72,0l0,120l96,0l0,-96Zm-59.819,68.971c0.708,0.059 1.292,0.6 1.404,1.302c0.417,4.017 0.613,8.055 0.918,12.082c0.105,2.171 -4.28,1.613 -7.556,1.613c-0.815,-0.022 -1.494,-0.704 -1.5,-1.531c0.194,-4.034 0.608,-8.055 0.913,-12.082c0.188,-1.811 3.348,-1.453 5.821,-1.384Zm-0.121,9.71c0.523,0 0.947,0.424 0.947,0.946l0,1.894c0,0.523 -0.424,0.947 -0.947,0.947l-4.166,0c-0.523,0 -0.947,-0.424 -0.947,-0.947l0,-1.894c0,-0.522 0.424,-0.946 0.947,-0.946l4.166,0Zm5.273,-15.687c0.376,0 0.681,-0.305 0.681,-0.681l0,-3.182c0,-0.376 -0.305,-0.682 -0.681,-0.682l-8.651,0c-0.377,0 -0.682,0.306 -0.682,0.682l0,3.182c0,0.376 0.306,0.681 0.682,0.681l8.651,0Zm-5.008,-6.605c0.377,0 0.682,-0.306 0.682,-0.682l0,-3.182c0,-0.376 -0.305,-0.681 -0.682,-0.681l-8.65,0c-0.377,0 -0.682,0.305 -0.682,0.681l0,3.182c0,0.376 0.305,0.682 0.682,0.682l8.65,0Zm5.008,-6.606c0.376,0 0.681,-0.305 0.681,-0.681l0,-3.182c0,-0.376 -0.305,-0.682 -0.681,-0.682l-8.651,0c-0.377,0 -0.682,0.306 -0.682,0.682l0,3.182c0,0.376 0.306,0.681 0.682,0.681l8.651,0Zm-5.008,-6.605c0.377,0 0.682,-0.306 0.682,-0.682l0,-3.182c0,-0.376 -0.305,-0.681 -0.682,-0.681l-8.65,0c-0.377,0 -0.682,0.305 -0.682,0.681l0,3.182c0,0.377 0.305,0.682 0.682,0.682l8.65,0Zm5.008,-6.605c0.376,-0.001 0.681,-0.306 0.681,-0.682l0,-3.182c0,-0.376 -0.305,-0.682 -0.681,-0.682l-8.651,0c-0.377,0 -0.682,0.306 -0.682,0.682l0,3.182c0,0.376 0.306,0.682 0.682,0.682l8.651,0Zm-5.008,-6.606c0.377,0 0.682,-0.305 0.682,-0.682l0,-3.181c0,-0.377 -0.305,-0.682 -0.682,-0.682l-8.65,0c-0.377,0 -0.682,0.305 -0.682,0.682l0,3.181c0,0.377 0.305,0.682 0.682,0.682l8.65,0Zm5.008,-6.605c0.376,0 0.681,-0.306 0.681,-0.682l0,-3.182c0,-0.376 -0.305,-0.682 -0.681,-0.682l-8.651,0c-0.377,0 -0.682,0.306 -0.682,0.682l0,3.182c0,0.376 0.306,0.682 0.682,0.682l8.651,0Zm-5.008,-6.606c0.377,0 0.682,-0.305 0.682,-0.682l0,-3.181c0,-0.377 -0.305,-0.682 -0.682,-0.682l-8.65,0c-0.377,0 -0.682,0.305 -0.682,0.682l0,3.181c0,0.377 0.305,0.682 0.682,0.682l8.65,0Zm5.008,-6.605c0.376,0 0.681,-0.306 0.681,-0.682l0,-3.182c0,-0.376 -0.305,-0.682 -0.681,-0.682l-8.651,0c-0.377,0 -0.682,0.306 -0.682,0.682l0,3.182c0,0.376 0.306,0.682 0.682,0.682l8.651,0Zm-5.008,-6.606c0.377,0 0.682,-0.305 0.682,-0.681l0,-3.182c0,-0.376 -0.305,-0.682 -0.682,-0.682l-8.65,0c-0.377,0 -0.682,0.306 -0.682,0.682l0,3.182c0,0.376 0.305,0.681 0.682,0.681l8.65,0Zm38.311,-6.505l-1,-18l19.215,19.216l-18.215,-1.216Z"/></g></svg>