<?xml version="1.0" encoding="UTF-8" standalone="no"?><!DOCTYPE svg PUBLIC "-//W3C//DTD SVG 1.1//EN" "http://www.w3.org/Graphics/SVG/1.1/DTD/svg11.dtd"><svg width="100%" height="100%" viewBox="0 0 128 128" version="1.1" xmlns="http://www.w3.org/2000/svg" xmlns:xlink="http://www.w3.org/1999/xlink" xml:space="preserve" xmlns:serif="http://www.serif.com/" style="fill-rule:evenodd;clip-rule:evenodd;stroke-linejoin:round;stroke-miterlimit:1.41421;"><rect id="file-video" x="0" y="0" width="128" height="128" style="fill:none;"/><clipPath id="_clip1"><rect id="file-video1" serif:id="file-video" x="0" y="0" width="128" height="128"/></clipPath><g clip-path="url(#_clip1)"><path d="M112,28l-24,-24l-72,0l0,120l96,0l0,-96Zm-16,68l0,-44l-64,0l0,44l64,0Zm-59.595,-6.164c0.446,0 0.807,0.361 0.807,0.806l0,1.613c0,0.445 -0.362,0.806 -0.807,0.806l-2.387,0c-0.445,0 -0.806,-0.361 -0.806,-0.806l0,-1.613c0,-0.445 0.361,-0.806 0.806,-0.806l2.387,0Zm57.577,0c0.445,0 0.806,0.361 0.806,0.806l0,1.613c0,0.445 -0.361,0.806 -0.806,0.806l-2.387,0c-0.445,0 -0.807,-0.361 -0.807,-0.806l0,-1.613c0,-0.445 0.361,-0.806 0.807,-0.806l2.387,0Zm-5.982,-32.979l0,34.286l-48,0l0,-34.286l48,0Zm-16,17.143l-13.714,10.286l0,-20.572l13.714,10.286Zm-35.595,4.223c0.446,0 0.807,0.362 0.807,0.806l0,1.613c0,0.445 -0.362,0.807 -0.807,0.807l-2.387,0c-0.445,0 -0.806,-0.362 -0.806,-0.807l0,-1.613c0,-0.444 0.361,-0.806 0.806,-0.806l2.387,0Zm57.577,0c0.445,0 0.806,0.362 0.806,0.806l0,1.613c0,0.445 -0.361,0.807 -0.806,0.807l-2.387,0c-0.445,0 -0.807,-0.362 -0.807,-0.807l0,-1.613c0,-0.444 0.361,-0.806 0.807,-0.806l2.387,0Zm0,-11.642c0.445,0 0.806,0.361 0.806,0.806l0,1.613c0,0.445 -0.361,0.807 -0.806,0.807l-2.387,0c-0.445,0 -0.807,-0.362 -0.807,-0.807l0,-1.613c0,-0.445 0.361,-0.806 0.807,-0.806l2.387,0Zm-57.577,0c0.446,0 0.807,0.361 0.807,0.806l0,1.613c0,0.445 -0.362,0.807 -0.807,0.807l-2.387,0c-0.445,0 -0.806,-0.362 -0.806,-0.807l0,-1.613c0,-0.445 0.361,-0.806 0.806,-0.806l2.387,0Zm57.577,-11.642c0.445,0 0.806,0.361 0.806,0.806l0,1.613c0,0.445 -0.361,0.806 -0.806,0.806l-2.387,0c-0.445,0 -0.807,-0.361 -0.807,-0.806l0,-1.613c0,-0.445 0.361,-0.806 0.807,-0.806l2.387,0Zm-57.577,0c0.446,0 0.807,0.361 0.807,0.806l0,1.613c0,0.445 -0.362,0.806 -0.807,0.806l-2.387,0c-0.445,0 -0.806,-0.361 -0.806,-0.806l0,-1.613c0,-0.445 0.361,-0.806 0.806,-0.806l2.387,0Zm54.231,-29.899l-1,-18l19.215,19.216l-18.215,-1.216Z"/></g></svg>