<?xml version="1.0" encoding="UTF-8" standalone="no"?><!DOCTYPE svg PUBLIC "-//W3C//DTD SVG 1.1//EN" "http://www.w3.org/Graphics/SVG/1.1/DTD/svg11.dtd"><svg width="100%" height="100%" viewBox="0 0 128 128" version="1.1" xmlns="http://www.w3.org/2000/svg" xmlns:xlink="http://www.w3.org/1999/xlink" xml:space="preserve" xmlns:serif="http://www.serif.com/" style="fill-rule:evenodd;clip-rule:evenodd;stroke-linejoin:round;stroke-miterlimit:1.41421;"><rect id="file-text" x="0" y="0" width="128" height="128" style="fill:none;"/><clipPath id="_clip1"><rect id="file-text1" serif:id="file-text" x="0" y="0" width="128" height="128"/></clipPath><g clip-path="url(#_clip1)"><path d="M112,28l-24,-24l-72,0l0,120l96,0l0,-96Zm-19,72l0,-4l-58,0l0,4l58,0Zm0,-13l0,-4l-58,0l0,4l58,0Zm-26.007,-13l0,-19.986l-31.993,0l0,19.986l31.993,0Zm26.007,-2.021l0,-4l-21.021,0l0,4l21.021,0Zm0,-10.979l0,-4l-21.021,0l0,4l21.021,0Zm0,-21l0,-6l-58,0l0,6l58,0Zm-2.364,-14.96l-1,-18l19.215,19.216l-18.215,-1.216Z"/></g></svg>