<?xml version="1.0" encoding="UTF-8" standalone="no"?><!DOCTYPE svg PUBLIC "-//W3C//DTD SVG 1.1//EN" "http://www.w3.org/Graphics/SVG/1.1/DTD/svg11.dtd"><svg width="100%" height="100%" viewBox="0 0 128 128" version="1.1" xmlns="http://www.w3.org/2000/svg" xmlns:xlink="http://www.w3.org/1999/xlink" xml:space="preserve" xmlns:serif="http://www.serif.com/" style="fill-rule:evenodd;clip-rule:evenodd;stroke-linejoin:round;stroke-miterlimit:1.41421;"><rect id="key" x="0" y="0" width="128" height="128" style="fill:none;"/><clipPath id="_clip1"><rect id="key1" serif:id="key" x="0" y="0" width="128" height="128"/></clipPath><g clip-path="url(#_clip1)"><path d="M54.409,54.908c-2.867,-10.688 -0.111,-22.577 8.27,-30.957c12.488,-12.489 32.766,-12.489 45.255,0c12.488,12.488 12.488,32.766 0,45.255c-10.674,10.673 -27.037,12.224 -39.364,4.653l-1.863,6.392l-8.828,2.573l-3.781,10.036l-12.194,4.594l-1.685,1.654l-2.362,7.361l-6.178,2.412l-8.639,4.535l-12.34,-5.68l3.946,-13.065l39.763,-39.763Zm44.553,-18.226c3.122,3.123 3.122,8.192 0,11.314c-3.123,3.122 -8.192,3.122 -11.314,0c-3.122,-3.122 -3.122,-8.191 0,-11.314c3.122,-3.122 8.191,-3.122 11.314,0Z"/></g></svg>