<?xml version="1.0" encoding="UTF-8" standalone="no"?><!DOCTYPE svg PUBLIC "-//W3C//DTD SVG 1.1//EN" "http://www.w3.org/Graphics/SVG/1.1/DTD/svg11.dtd"><svg width="100%" height="100%" viewBox="0 0 128 128" version="1.1" xmlns="http://www.w3.org/2000/svg" xmlns:xlink="http://www.w3.org/1999/xlink" xml:space="preserve" xmlns:serif="http://www.serif.com/" style="fill-rule:evenodd;clip-rule:evenodd;stroke-linejoin:round;stroke-miterlimit:1.41421;"><rect id="language" x="0" y="0" width="128" height="128" style="fill:none;"/><clipPath id="_clip1"><rect id="language1" serif:id="language" x="0" y="0" width="128" height="128"/></clipPath><g clip-path="url(#_clip1)"><path d="M64.112,16.001c0.064,0 0.128,0 0.192,0c21.921,0.209 42.482,16.989 46.773,38.624c3.114,15.699 -2.24,32.794 -13.765,43.915c-8.38,8.086 -19.816,12.757 -31.497,13.286c-1.218,0.17 -2.471,0.188 -3.744,0.027c-5.61,-0.175 -11.208,-1.319 -16.484,-3.514c-15.399,-6.407 -26.952,-21.352 -29.168,-37.929c-2.711,-20.275 9.07,-41.68 27.829,-50.167c6.173,-2.793 12.945,-4.219 19.731,-4.242c0.044,0 0.088,0 0.133,0Zm16.513,70.999l-13.625,0l0,18.488c4.823,-1.595 7.994,-6.463 10.201,-10.589c1.356,-2.533 2.491,-5.176 3.424,-7.899Zm-19.625,18.438l0,-18.438l-14.15,0c2.033,5.628 4.904,10.617 8.582,14.524c0.312,0.332 0.634,0.654 0.967,0.965c1.324,1.234 2.885,2.323 4.601,2.949Zm38.01,-18.438l-11.569,0c-1.97,6.097 -4.792,11.643 -8.437,16.234c0.286,-0.109 0.571,-0.221 0.856,-0.338c7.797,-3.187 14.494,-8.87 19.15,-15.896Zm-57.872,0l-12.269,0c4.709,7.052 11.689,12.494 19.628,15.677c-2.327,-3.214 -4.113,-6.882 -5.515,-10.43c-0.676,-1.711 -1.291,-3.463 -1.844,-5.247Zm-3.529,-20l-15.45,0c0.342,4.817 1.489,9.577 3.431,14l13.946,0c-1.032,-4.575 -1.679,-9.287 -1.927,-14Zm46.457,0l-17.066,0l0,14l15.333,0c1.051,-4.564 1.605,-9.275 1.733,-14Zm21.81,0l-15.1,0c-0.136,4.781 -0.709,9.495 -1.709,14l13.267,0c1.564,-3.447 2.663,-7.103 3.214,-10.862c0.153,-1.043 0.262,-2.09 0.328,-3.138Zm-60.82,14l15.944,0l0,-14l-17.768,0c0.134,4.815 0.746,9.542 1.824,14Zm-5.997,-34l-13.478,0c-1.961,4.421 -3.101,9.181 -3.43,14l15.358,0c0.094,-4.774 0.607,-9.489 1.55,-14Zm43.178,0l-15.237,0l0,14l17.006,0c-0.139,-3.015 -0.44,-6.012 -0.883,-8.957c-0.252,-1.678 -0.541,-3.365 -0.886,-5.043Zm19.864,0l-13.333,0c1.078,4.588 1.724,9.298 1.949,14l15.084,0c-0.422,-4.822 -1.698,-9.571 -3.7,-14Zm-58.789,14l17.688,0l0,-14l-15.55,0c-1.174,4.571 -1.883,9.292 -2.138,14Zm5.436,-35.958c-7.985,3.22 -15.047,8.82 -19.846,15.958l11.709,0c1.858,-5.966 4.558,-11.414 8.137,-15.958Zm18.252,-2.478l0,18.436l13.718,0c-1.759,-5.688 -4.463,-11.022 -8.902,-15.285c-0.245,-0.235 -0.497,-0.464 -0.754,-0.687c-1.194,-1.03 -2.571,-1.921 -4.062,-2.464Zm11.878,2.154c1.225,1.551 2.288,3.173 3.169,4.742c2.041,3.635 3.718,7.514 5.038,11.54l11.73,0c-4.2,-6.442 -10.064,-11.794 -17.087,-15.078c-0.935,-0.438 -1.886,-0.839 -2.85,-1.204Zm-17.878,-2.225c-4.814,1.582 -8.083,6.653 -10.202,10.609c-1.35,2.521 -2.517,5.167 -3.503,7.898l13.705,0l0,-18.507Z"/></g></svg>