<?xml version="1.0" encoding="UTF-8" standalone="no"?><!DOCTYPE svg PUBLIC "-//W3C//DTD SVG 1.1//EN" "http://www.w3.org/Graphics/SVG/1.1/DTD/svg11.dtd"><svg width="100%" height="100%" viewBox="0 0 128 128" version="1.1" xmlns="http://www.w3.org/2000/svg" xmlns:xlink="http://www.w3.org/1999/xlink" xml:space="preserve" xmlns:serif="http://www.serif.com/" style="fill-rule:evenodd;clip-rule:evenodd;stroke-linejoin:round;stroke-miterlimit:1.41421;"><rect id="link" x="0" y="0" width="128" height="128" style="fill:none;"/><clipPath id="_clip1"><rect id="link1" serif:id="link" x="0" y="0" width="128" height="128"/></clipPath><g clip-path="url(#_clip1)"><g><path d="M68.744,52.991c3.016,0.424 7.043,3.219 10.071,5.464c5.016,3.718 6.742,11.212 3.61,16.873c-6.996,12.318 -14.084,24.585 -21.249,36.805c-3.483,5.788 -11.554,8.071 -17.612,4.72c-5.059,-2.873 -10.095,-5.789 -15.118,-8.728c-5.793,-3.493 -8.143,-11.604 -4.643,-17.746l11.317,-19.602c0.616,-0.986 0.928,-1.201 1.513,-1.567c3.293,-2.057 8.579,1.745 6.282,6.067c-3.788,6.56 -7.705,13.048 -11.362,19.682c-0.978,1.825 -0.324,4.304 1.445,5.401c4.949,2.985 9.958,5.872 15.016,8.67c1.833,0.983 4.341,0.307 5.424,-1.493c7.136,-12.171 14.333,-24.31 21.162,-36.655c0.983,-1.838 0.31,-4.341 -1.491,-5.427c0,0 -7.086,-4.092 -7.086,-4.092c0,0 -2.559,-2.009 -2.206,-4.523c0.31,-2.201 1.931,-3.871 4.613,-3.871c0.105,0.007 0.209,0.015 0.314,0.022Z" style="fill-rule:nonzero;"/><path d="M78.24,9.481c2.161,0.04 4.3,0.62 6.196,1.665c5.396,3.076 11.097,5.763 16.093,9.368c5.141,3.71 6.962,11.308 3.669,17.105l-11.319,19.604c-0.616,0.986 -0.928,1.201 -1.512,1.567c-3.235,2.021 -8.707,-1.505 -6.282,-6.067c3.789,-6.561 7.697,-13.055 11.364,-19.685c0.98,-1.83 0.312,-4.338 -1.495,-5.427c-4.967,-2.916 -9.92,-5.858 -14.963,-8.638c-1.839,-0.985 -4.346,-0.307 -5.431,1.493c-7.142,12.166 -14.349,24.298 -21.16,36.652c-0.988,1.842 -0.301,4.345 1.494,5.429c0,0 7.082,4.09 7.082,4.09c0,0 2.55,2.081 2.207,4.523c-0.408,2.9 -3.589,4.929 -6.706,3.271c-3.693,-2.132 -7.826,-3.839 -10.426,-6.874c-3.446,-4.021 -4.093,-10.139 -1.476,-14.885c7.014,-12.31 14.078,-24.591 21.251,-36.808c2.391,-3.965 6.583,-6.425 11.414,-6.383Z" style="fill-rule:nonzero;"/></g></g></svg>