<?xml version="1.0" encoding="UTF-8" standalone="no"?><!DOCTYPE svg PUBLIC "-//W3C//DTD SVG 1.1//EN" "http://www.w3.org/Graphics/SVG/1.1/DTD/svg11.dtd"><svg width="100%" height="100%" viewBox="0 0 128 128" version="1.1" xmlns="http://www.w3.org/2000/svg" xmlns:xlink="http://www.w3.org/1999/xlink" xml:space="preserve" xmlns:serif="http://www.serif.com/" style="fill-rule:evenodd;clip-rule:evenodd;stroke-linejoin:round;stroke-miterlimit:1.41421;"><rect id="placeholder" x="0" y="0" width="128" height="128" style="fill:none;"/><clipPath id="_clip1"><rect id="placeholder1" serif:id="placeholder" x="0" y="0" width="128" height="128"/></clipPath><g clip-path="url(#_clip1)"><path d="M90.671,11.001l0.171,0.001l0.171,0.003l0.171,0.004l0.17,0.005l0.17,0.005l0.169,0.007l0.17,0.009l0.169,0.009l0.169,0.01l0.168,0.011l0.169,0.012l0.168,0.014l0.167,0.014l0.168,0.015l0.167,0.017l0.167,0.017l0.166,0.019l0.166,0.019l0.166,0.021l0.166,0.022l0.165,0.022l0.165,0.024l0.164,0.025l0.165,0.025l0.164,0.027l0.163,0.028l0.163,0.028l0.163,0.03l0.163,0.031l0.162,0.031l0.162,0.033l0.161,0.033l0.161,0.035l0.161,0.036l0.161,0.036l0.16,0.038l0.159,0.038l0.16,0.039l0.158,0.041l0.159,0.041l0.158,0.043l0.158,0.043l0.157,0.044l0.157,0.045l0.157,0.046l0.156,0.047l0.156,0.048l0.155,0.049l0.155,0.05l0.154,0.051l0.155,0.051l0.153,0.053l0.153,0.053l0.153,0.055l0.153,0.055l0.152,0.056l0.151,0.057l0.151,0.058l0.151,0.059l0.15,0.06l0.15,0.061l0.149,0.061l0.149,0.063l0.148,0.063l0.148,0.064l0.148,0.065l0.147,0.066l0.146,0.067l0.146,0.068l0.146,0.068l0.145,0.07l0.144,0.07l0.144,0.071l0.144,0.072l0.143,0.073l0.142,0.074l0.143,0.074l0.141,0.075l0.141,0.076l0.141,0.077l0.14,0.078l0.139,0.079l0.139,0.079l0.139,0.08l0.138,0.081l0.137,0.082l0.137,0.083l0.136,0.083l0.136,0.084l0.135,0.085l0.135,0.086l0.134,0.087l0.134,0.087l0.133,0.088l0.132,0.089l0.132,0.09l0.131,0.091l0.131,0.091l0.13,0.092l0.13,0.093l0.129,0.093l0.128,0.094l0.128,0.095l0.127,0.096l0.127,0.097l0.126,0.097l0.126,0.098l0.124,0.099l0.125,0.099l0.123,0.101l0.123,0.1l0.123,0.102l0.122,0.103l0.121,0.103l0.12,0.103l0.12,0.105l0.119,0.105l0.119,0.106l0.118,0.107l0.117,0.107l0.117,0.108l0.116,0.109l0.116,0.109l0.114,0.11l0.114,0.111l0.114,0.111l0.113,0.112l0.112,0.113l0.111,0.114l0.111,0.114l0.11,0.114l0.109,0.116l0.109,0.116l0.108,0.117l0.107,0.117l0.107,0.118l0.106,0.119l0.105,0.119l0.105,0.12l0.103,0.12l0.103,0.121l0.103,0.122l0.102,0.123l0.1,0.123l0.101,0.123l0.099,0.125l0.099,0.124l0.098,0.126l0.097,0.126l0.097,0.127l0.096,0.127l0.095,0.128l0.094,0.128l0.093,0.129l0.093,0.13l0.092,0.13l0.091,0.131l0.091,0.131l0.09,0.132l0.089,0.132l0.088,0.133l0.087,0.134l0.087,0.134l0.086,0.135l0.085,0.135l0.084,0.136l0.083,0.136l0.083,0.137l0.082,0.137l0.081,0.138l0.08,0.139l0.079,0.139l0.079,0.139l0.078,0.14l0.077,0.141l0.076,0.141l0.075,0.141l0.074,0.143l0.074,0.142l0.073,0.143l0.072,0.144l0.071,0.144l0.07,0.144l0.07,0.145l0.068,0.146l0.068,0.146l0.067,0.146l0.066,0.147l0.065,0.148l0.064,0.148l0.063,0.148l0.063,0.149l0.061,0.149l0.061,0.15l0.06,0.15l0.059,0.151l0.058,0.151l0.057,0.151l0.056,0.152l0.055,0.153l0.055,0.153l0.053,0.153l0.053,0.153l0.051,0.155l0.051,0.154l0.05,0.155l0.049,0.155l0.048,0.156l0.047,0.156l0.046,0.157l0.045,0.157l0.044,0.157l0.043,0.158l0.043,0.158l0.041,0.159l0.041,0.158l0.039,0.16l0.038,0.159l0.038,0.16l0.036,0.161l0.036,0.161l0.035,0.161l0.033,0.161l0.033,0.162l0.031,0.162l0.031,0.163l0.03,0.163l0.028,0.163l0.028,0.163l0.027,0.164l0.025,0.165l0.025,0.164l0.024,0.165l0.022,0.165l0.022,0.166l0.021,0.166l0.019,0.166l0.019,0.166l0.017,0.167l0.017,0.167l0.015,0.168l0.014,0.167l0.014,0.168l0.012,0.169l0.011,0.168l0.01,0.169l0.009,0.169l0.009,0.17l0.007,0.169l0.005,0.17l0.005,0.17l0.004,0.171l0.003,0.171l0.001,0.171l0.001,0.171l0,53l-0.001,0.171l-0.001,0.171l-0.003,0.171l-0.004,0.171l-0.005,0.17l-0.005,0.17l-0.007,0.169l-0.009,0.17l-0.009,0.169l-0.01,0.169l-0.011,0.168l-0.012,0.169l-0.014,0.168l-0.014,0.167l-0.015,0.168l-0.017,0.167l-0.017,0.167l-0.019,0.166l-0.019,0.166l-0.021,0.166l-0.022,0.166l-0.022,0.165l-0.024,0.165l-0.025,0.164l-0.025,0.165l-0.027,0.164l-0.028,0.163l-0.028,0.163l-0.03,0.163l-0.031,0.163l-0.031,0.162l-0.033,0.162l-0.033,0.161l-0.035,0.161l-0.036,0.161l-0.036,0.161l-0.038,0.16l-0.038,0.159l-0.039,0.16l-0.041,0.158l-0.041,0.159l-0.043,0.158l-0.043,0.158l-0.044,0.157l-0.045,0.157l-0.046,0.157l-0.047,0.156l-0.048,0.156l-0.049,0.155l-0.05,0.155l-0.051,0.154l-0.051,0.155l-0.053,0.153l-0.053,0.153l-0.055,0.153l-0.055,0.153l-0.056,0.152l-0.057,0.151l-0.058,0.151l-0.059,0.151l-0.06,0.15l-0.061,0.15l-0.061,0.149l-0.063,0.149l-0.063,0.148l-0.064,0.148l-0.065,0.148l-0.066,0.147l-0.067,0.146l-0.068,0.146l-0.068,0.146l-0.07,0.145l-0.07,0.144l-0.071,0.144l-0.072,0.144l-0.073,0.143l-0.074,0.142l-0.074,0.143l-0.075,0.141l-0.076,0.141l-0.077,0.141l-0.078,0.14l-0.079,0.139l-0.079,0.139l-0.08,0.139l-0.081,0.138l-0.082,0.137l-0.083,0.137l-0.083,0.136l-0.084,0.136l-0.085,0.135l-0.086,0.135l-0.087,0.134l-0.087,0.134l-0.088,0.133l-0.089,0.132l-0.09,0.132l-0.091,0.131l-0.091,0.131l-0.092,0.13l-0.093,0.13l-0.093,0.129l-0.094,0.128l-0.095,0.128l-0.096,0.127l-0.097,0.127l-0.097,0.126l-0.098,0.126l-0.099,0.124l-0.099,0.125l-0.101,0.123l-0.1,0.123l-0.102,0.123l-0.103,0.122l-0.103,0.121l-0.103,0.12l-0.105,0.12l-0.105,0.119l-0.106,0.119l-0.107,0.118l-0.107,0.117l-0.108,0.117l-0.109,0.116l-0.109,0.116l-0.11,0.114l-0.111,0.114l-0.111,0.114l-0.112,0.113l-0.113,0.112l-0.114,0.111l-0.114,0.111l-0.114,0.11l-0.116,0.109l-0.116,0.109l-0.117,0.108l-0.117,0.107l-0.118,0.107l-0.119,0.106l-0.119,0.105l-0.12,0.105l-0.12,0.103l-0.121,0.103l-0.122,0.103l-0.123,0.102l-0.123,0.1l-0.123,0.101l-0.125,0.099l-0.124,0.099l-0.126,0.098l-0.126,0.097l-0.127,0.097l-0.127,0.096l-0.128,0.095l-0.128,0.094l-0.129,0.093l-0.13,0.093l-0.13,0.092l-0.131,0.091l-0.131,0.091l-0.132,0.09l-0.132,0.089l-0.133,0.088l-0.134,0.087l-0.134,0.087l-0.135,0.086l-0.135,0.085l-0.136,0.084l-0.136,0.083l-0.137,0.083l-0.137,0.082l-0.138,0.081l-0.139,0.08l-0.139,0.079l-0.139,0.079l-0.14,0.078l-0.141,0.077l-0.141,0.076l-0.141,0.075l-0.143,0.074l-0.142,0.074l-0.143,0.073l-0.144,0.072l-0.144,0.071l-0.144,0.07l-0.145,0.07l-0.146,0.068l-0.146,0.068l-0.146,0.067l-0.147,0.066l-0.148,0.065l-0.148,0.064l-0.148,0.063l-0.149,0.063l-0.149,0.061l-0.15,0.061l-0.15,0.06l-0.151,0.059l-0.151,0.058l-0.151,0.057l-0.152,0.056l-0.153,0.055l-0.153,0.055l-0.153,0.053l-0.153,0.053l-0.155,0.051l-0.154,0.051l-0.155,0.05l-0.155,0.049l-0.156,0.048l-0.156,0.047l-0.157,0.046l-0.157,0.045l-0.157,0.044l-0.158,0.043l-0.158,0.043l-0.159,0.041l-0.158,0.041l-0.16,0.039l-0.159,0.038l-0.16,0.038l-0.161,0.036l-0.161,0.036l-0.161,0.035l-0.161,0.033l-0.162,0.033l-0.162,0.031l-0.163,0.031l-0.163,0.03l-0.163,0.028l-0.163,0.028l-0.164,0.027l-0.165,0.025l-0.164,0.025l-0.165,0.024l-0.165,0.022l-0.166,0.022l-0.166,0.021l-0.166,0.019l-0.166,0.019l-0.167,0.017l-0.167,0.017l-0.168,0.015l-0.167,0.014l-0.168,0.014l-0.169,0.012l-0.168,0.011l-0.169,0.01l-0.169,0.009l-0.17,0.009l-0.169,0.007l-0.17,0.005l-0.17,0.005l-0.171,0.004l-0.171,0.003l-0.171,0.001l-0.171,0.001l-53,0l-0.171,-0.001l-0.171,-0.001l-0.171,-0.003l-0.171,-0.004l-0.17,-0.005l-0.17,-0.005l-0.169,-0.007l-0.17,-0.009l-0.169,-0.009l-0.169,-0.01l-0.168,-0.011l-0.169,-0.012l-0.168,-0.014l-0.167,-0.014l-0.168,-0.015l-0.167,-0.017l-0.167,-0.017l-0.166,-0.019l-0.166,-0.019l-0.166,-0.021l-0.166,-0.022l-0.165,-0.022l-0.165,-0.024l-0.164,-0.025l-0.165,-0.025l-0.164,-0.027l-0.163,-0.028l-0.163,-0.028l-0.163,-0.03l-0.163,-0.031l-0.162,-0.031l-0.162,-0.033l-0.161,-0.033l-0.161,-0.035l-0.161,-0.036l-0.161,-0.036l-0.16,-0.038l-0.159,-0.038l-0.16,-0.039l-0.158,-0.041l-0.159,-0.041l-0.158,-0.043l-0.158,-0.043l-0.157,-0.044l-0.157,-0.045l-0.157,-0.046l-0.156,-0.047l-0.156,-0.048l-0.155,-0.049l-0.155,-0.05l-0.154,-0.051l-0.155,-0.051l-0.153,-0.053l-0.153,-0.053l-0.153,-0.055l-0.153,-0.055l-0.152,-0.056l-0.151,-0.057l-0.151,-0.058l-0.151,-0.059l-0.15,-0.06l-0.15,-0.061l-0.149,-0.061l-0.149,-0.063l-0.148,-0.063l-0.148,-0.064l-0.148,-0.065l-0.147,-0.066l-0.146,-0.067l-0.146,-0.068l-0.146,-0.068l-0.145,-0.07l-0.144,-0.07l-0.144,-0.071l-0.144,-0.072l-0.143,-0.073l-0.142,-0.074l-0.143,-0.074l-0.141,-0.075l-0.141,-0.076l-0.141,-0.077l-0.14,-0.078l-0.139,-0.079l-0.139,-0.079l-0.139,-0.08l-0.138,-0.081l-0.137,-0.082l-0.137,-0.083l-0.136,-0.083l-0.136,-0.084l-0.135,-0.085l-0.135,-0.086l-0.134,-0.087l-0.134,-0.087l-0.133,-0.088l-0.132,-0.089l-0.132,-0.09l-0.131,-0.091l-0.131,-0.091l-0.13,-0.092l-0.13,-0.093l-0.129,-0.093l-0.128,-0.094l-0.128,-0.095l-0.127,-0.096l-0.127,-0.097l-0.126,-0.097l-0.126,-0.098l-0.124,-0.099l-0.125,-0.099l-0.123,-0.101l-0.123,-0.1l-0.123,-0.102l-0.122,-0.103l-0.121,-0.103l-0.12,-0.103l-0.12,-0.105l-0.119,-0.105l-0.119,-0.106l-0.118,-0.107l-0.117,-0.107l-0.117,-0.108l-0.116,-0.109l-0.116,-0.109l-0.114,-0.11l-0.114,-0.111l-0.114,-0.111l-0.113,-0.112l-0.112,-0.113l-0.111,-0.114l-0.111,-0.114l-0.11,-0.114l-0.109,-0.116l-0.109,-0.116l-0.108,-0.117l-0.107,-0.117l-0.107,-0.118l-0.106,-0.119l-0.105,-0.119l-0.105,-0.12l-0.103,-0.12l-0.103,-0.121l-0.103,-0.122l-0.102,-0.123l-0.1,-0.123l-0.101,-0.123l-0.099,-0.125l-0.099,-0.124l-0.098,-0.126l-0.097,-0.126l-0.097,-0.127l-0.096,-0.127l-0.095,-0.128l-0.094,-0.128l-0.093,-0.129l-0.093,-0.13l-0.092,-0.13l-0.091,-0.131l-0.091,-0.131l-0.09,-0.132l-0.089,-0.132l-0.088,-0.133l-0.087,-0.134l-0.087,-0.134l-0.086,-0.135l-0.085,-0.135l-0.084,-0.136l-0.083,-0.136l-0.083,-0.137l-0.082,-0.137l-0.081,-0.138l-0.08,-0.139l-0.079,-0.139l-0.079,-0.139l-0.078,-0.14l-0.077,-0.141l-0.076,-0.141l-0.075,-0.141l-0.074,-0.143l-0.074,-0.142l-0.073,-0.143l-0.072,-0.144l-0.071,-0.144l-0.07,-0.144l-0.07,-0.145l-0.068,-0.146l-0.068,-0.146l-0.067,-0.146l-0.066,-0.147l-0.065,-0.148l-0.064,-0.148l-0.063,-0.148l-0.063,-0.149l-0.061,-0.149l-0.061,-0.15l-0.06,-0.15l-0.059,-0.151l-0.058,-0.151l-0.057,-0.151l-0.056,-0.152l-0.055,-0.153l-0.055,-0.153l-0.053,-0.153l-0.053,-0.153l-0.051,-0.155l-0.051,-0.154l-0.05,-0.155l-0.049,-0.155l-0.048,-0.156l-0.047,-0.156l-0.046,-0.157l-0.045,-0.157l-0.044,-0.157l-0.043,-0.158l-0.043,-0.158l-0.041,-0.159l-0.041,-0.158l-0.039,-0.16l-0.038,-0.159l-0.038,-0.16l-0.036,-0.161l-0.036,-0.161l-0.035,-0.161l-0.033,-0.161l-0.033,-0.162l-0.031,-0.162l-0.031,-0.163l-0.03,-0.163l-0.028,-0.163l-0.028,-0.163l-0.027,-0.164l-0.025,-0.165l-0.025,-0.164l-0.024,-0.165l-0.022,-0.165l-0.022,-0.166l-0.021,-0.166l-0.019,-0.166l-0.019,-0.166l-0.017,-0.167l-0.017,-0.167l-0.015,-0.168l-0.014,-0.167l-0.014,-0.168l-0.012,-0.169l-0.011,-0.168l-0.01,-0.169l-0.009,-0.169l-0.009,-0.17l-0.007,-0.169l-0.005,-0.17l-0.005,-0.17l-0.004,-0.171l-0.003,-0.171l-0.001,-0.171l-0.001,-0.171l0,-53l0.001,-0.171l0.001,-0.171l0.003,-0.171l0.004,-0.171l0.005,-0.17l0.005,-0.17l0.007,-0.169l0.009,-0.17l0.009,-0.169l0.01,-0.169l0.011,-0.168l0.012,-0.169l0.014,-0.168l0.014,-0.167l0.015,-0.168l0.017,-0.167l0.017,-0.167l0.019,-0.166l0.019,-0.166l0.021,-0.166l0.022,-0.166l0.022,-0.165l0.024,-0.165l0.025,-0.164l0.025,-0.165l0.027,-0.164l0.028,-0.163l0.028,-0.163l0.03,-0.163l0.031,-0.163l0.031,-0.162l0.033,-0.162l0.033,-0.161l0.035,-0.161l0.036,-0.161l0.036,-0.161l0.038,-0.16l0.038,-0.159l0.039,-0.16l0.041,-0.158l0.041,-0.159l0.043,-0.158l0.043,-0.158l0.044,-0.157l0.045,-0.157l0.046,-0.157l0.047,-0.156l0.048,-0.156l0.049,-0.155l0.05,-0.155l0.051,-0.154l0.051,-0.155l0.053,-0.153l0.053,-0.153l0.055,-0.153l0.055,-0.153l0.056,-0.152l0.057,-0.151l0.058,-0.151l0.059,-0.151l0.06,-0.15l0.061,-0.15l0.061,-0.149l0.063,-0.149l0.063,-0.148l0.064,-0.148l0.065,-0.148l0.066,-0.147l0.067,-0.146l0.068,-0.146l0.068,-0.146l0.07,-0.145l0.07,-0.144l0.071,-0.144l0.072,-0.144l0.073,-0.143l0.074,-0.142l0.074,-0.143l0.075,-0.141l0.076,-0.141l0.077,-0.141l0.078,-0.14l0.079,-0.139l0.079,-0.139l0.08,-0.139l0.081,-0.138l0.082,-0.137l0.083,-0.137l0.083,-0.136l0.084,-0.136l0.085,-0.135l0.086,-0.135l0.087,-0.134l0.087,-0.134l0.088,-0.133l0.089,-0.132l0.09,-0.132l0.091,-0.131l0.091,-0.131l0.092,-0.13l0.093,-0.13l0.093,-0.129l0.094,-0.128l0.095,-0.128l0.096,-0.127l0.097,-0.127l0.097,-0.126l0.098,-0.126l0.099,-0.124l0.099,-0.125l0.101,-0.123l0.1,-0.123l0.102,-0.123l0.103,-0.122l0.103,-0.121l0.103,-0.12l0.105,-0.12l0.105,-0.119l0.106,-0.119l0.107,-0.118l0.107,-0.117l0.108,-0.117l0.109,-0.116l0.109,-0.116l0.11,-0.114l0.111,-0.114l0.111,-0.114l0.112,-0.113l0.113,-0.112l0.114,-0.111l0.114,-0.111l0.114,-0.11l0.116,-0.109l0.116,-0.109l0.117,-0.108l0.117,-0.107l0.118,-0.107l0.119,-0.106l0.119,-0.105l0.12,-0.105l0.12,-0.103l0.121,-0.103l0.122,-0.103l0.123,-0.102l0.123,-0.1l0.123,-0.101l0.125,-0.099l0.124,-0.099l0.126,-0.098l0.126,-0.097l0.127,-0.097l0.127,-0.096l0.128,-0.095l0.128,-0.094l0.129,-0.093l0.13,-0.093l0.13,-0.092l0.131,-0.091l0.131,-0.091l0.132,-0.09l0.132,-0.089l0.133,-0.088l0.134,-0.087l0.134,-0.087l0.135,-0.086l0.135,-0.085l0.136,-0.084l0.136,-0.083l0.137,-0.083l0.137,-0.082l0.138,-0.081l0.139,-0.08l0.139,-0.079l0.139,-0.079l0.14,-0.078l0.141,-0.077l0.141,-0.076l0.141,-0.075l0.143,-0.074l0.142,-0.074l0.143,-0.073l0.144,-0.072l0.144,-0.071l0.144,-0.07l0.145,-0.07l0.146,-0.068l0.146,-0.068l0.146,-0.067l0.147,-0.066l0.148,-0.065l0.148,-0.064l0.148,-0.063l0.149,-0.063l0.149,-0.061l0.15,-0.061l0.15,-0.06l0.151,-0.059l0.151,-0.058l0.151,-0.057l0.152,-0.056l0.153,-0.055l0.153,-0.055l0.153,-0.053l0.153,-0.053l0.155,-0.051l0.154,-0.051l0.155,-0.05l0.155,-0.049l0.156,-0.048l0.156,-0.047l0.157,-0.046l0.157,-0.045l0.157,-0.044l0.158,-0.043l0.158,-0.043l0.159,-0.041l0.158,-0.041l0.16,-0.039l0.159,-0.038l0.16,-0.038l0.161,-0.036l0.161,-0.036l0.161,-0.035l0.161,-0.033l0.162,-0.033l0.162,-0.031l0.163,-0.031l0.163,-0.03l0.163,-0.028l0.163,-0.028l0.164,-0.027l0.165,-0.025l0.164,-0.025l0.165,-0.024l0.165,-0.022l0.166,-0.022l0.166,-0.021l0.166,-0.019l0.166,-0.019l0.167,-0.017l0.167,-0.017l0.168,-0.015l0.167,-0.014l0.168,-0.014l0.169,-0.012l0.168,-0.011l0.169,-0.01l0.169,-0.009l0.17,-0.009l0.169,-0.007l0.17,-0.005l0.17,-0.005l0.171,-0.004l0.171,-0.003l0.171,-0.001l0.171,-0.001l53,0l0.171,0.001Zm-53.159,5.999l-0.145,0l-0.134,0.002l-0.129,0.002l-0.136,0.003l-0.132,0.004l-0.132,0.004l-0.131,0.006l-0.131,0.006l-0.133,0.007l-0.131,0.008l-0.13,0.008l-0.129,0.01l-0.129,0.01l-0.132,0.012l-0.131,0.012l-0.128,0.012l-0.127,0.014l-0.13,0.014l-0.131,0.015l-0.128,0.016l-0.126,0.017l-0.127,0.017l-0.131,0.019l-0.128,0.019l-0.123,0.019l-0.127,0.021l-0.128,0.021l-0.126,0.023l-0.126,0.023l-0.125,0.023l-0.125,0.024l-0.124,0.026l-0.125,0.026l-0.124,0.026l-0.122,0.027l-0.126,0.029l-0.126,0.029l-0.123,0.03l-0.122,0.03l-0.121,0.031l-0.124,0.032l-0.121,0.033l-0.122,0.033l-0.123,0.035l-0.119,0.034l-0.122,0.036l-0.119,0.036l-0.12,0.037l-0.122,0.038l-0.119,0.038l-0.118,0.039l-0.12,0.041l-0.12,0.04l-0.115,0.041l-0.117,0.041l-0.122,0.044l-0.116,0.043l-0.116,0.044l-0.117,0.045l-0.117,0.046l-0.118,0.047l-0.112,0.045l-0.116,0.048l-0.113,0.048l-0.116,0.049l-0.117,0.051l-0.113,0.049l-0.112,0.051l-0.114,0.052l-0.113,0.052l-0.111,0.052l-0.112,0.054l-0.11,0.054l-0.114,0.056l-0.114,0.057l-0.106,0.054l-0.111,0.057l-0.11,0.058l-0.109,0.058l-0.11,0.059l-0.106,0.058l-0.111,0.062l-0.11,0.062l-0.106,0.06l-0.104,0.061l-0.109,0.064l-0.106,0.063l-0.106,0.064l-0.108,0.066l-0.102,0.063l-0.105,0.066l-0.103,0.066l-0.106,0.068l-0.105,0.069l-0.1,0.066l-0.103,0.069l-0.104,0.071l-0.103,0.071l-0.098,0.069l-0.1,0.07l-0.099,0.071l-0.102,0.074l-0.101,0.074l-0.098,0.073l-0.1,0.075l-0.096,0.073l-0.098,0.076l-0.099,0.077l-0.095,0.076l-0.097,0.077l-0.096,0.078l-0.096,0.078l-0.093,0.078l-0.096,0.081l-0.091,0.077l-0.092,0.08l-0.1,0.086l-0.093,0.082l-0.087,0.078l-0.09,0.082l-0.091,0.083l-0.094,0.087l-0.089,0.083l-0.09,0.085l-0.089,0.086l-0.084,0.081l-0.093,0.091l-0.088,0.087l-0.085,0.087l-0.087,0.088l-0.083,0.085l-0.085,0.09l-0.09,0.094l-0.085,0.09l-0.081,0.088l-0.08,0.088l-0.083,0.092l-0.087,0.097l-0.079,0.089l-0.081,0.094l-0.081,0.093l-0.078,0.093l-0.081,0.096l-0.076,0.092l-0.08,0.097l-0.078,0.096l-0.076,0.095l-0.078,0.099l-0.076,0.098l-0.075,0.096l-0.076,0.1l-0.073,0.097l-0.071,0.096l-0.078,0.106l-0.072,0.099l-0.068,0.095l-0.072,0.102l-0.072,0.103l-0.07,0.102l-0.069,0.1l-0.07,0.106l-0.068,0.102l-0.067,0.102l-0.069,0.107l-0.065,0.102l-0.065,0.104l-0.065,0.105l-0.065,0.105l-0.063,0.104l-0.065,0.11l-0.063,0.107l-0.062,0.107l-0.061,0.107l-0.06,0.107l-0.06,0.108l-0.06,0.109l-0.058,0.108l-0.059,0.111l-0.058,0.11l-0.056,0.11l-0.057,0.111l-0.053,0.106l-0.058,0.117l-0.055,0.113l-0.051,0.108l-0.053,0.112l-0.053,0.115l-0.053,0.115l-0.049,0.109l-0.05,0.115l-0.05,0.115l-0.05,0.115l-0.049,0.118l-0.046,0.112l-0.048,0.117l-0.045,0.113l-0.046,0.119l-0.046,0.118l-0.042,0.113l-0.045,0.12l-0.042,0.116l-0.041,0.114l-0.041,0.121l-0.042,0.122l-0.039,0.117l-0.041,0.122l-0.037,0.117l-0.037,0.117l-0.038,0.125l-0.036,0.118l-0.035,0.119l-0.036,0.125l-0.034,0.119l-0.032,0.12l-0.034,0.127l-0.032,0.122l-0.031,0.121l-0.03,0.121l-0.029,0.123l-0.031,0.128l-0.028,0.123l-0.026,0.117l-0.027,0.13l-0.026,0.125l-0.025,0.124l-0.025,0.125l-0.023,0.126l-0.024,0.131l-0.022,0.121l-0.02,0.121l-0.021,0.132l-0.021,0.128l-0.019,0.128l-0.018,0.128l-0.017,0.122l-0.017,0.129l-0.016,0.13l-0.015,0.129l-0.014,0.131l-0.014,0.13l-0.012,0.125l-0.012,0.131l-0.012,0.132l-0.01,0.126l-0.009,0.133l-0.009,0.132l-0.008,0.128l-0.007,0.133l-0.007,0.134l-0.005,0.128l-0.004,0.129l-0.004,0.135l-0.003,0.135l-0.002,0.13l-0.002,0.131l0,0.142l0,52.988l0,0.142l0.002,0.131l0.002,0.13l0.003,0.135l0.004,0.135l0.004,0.129l0.005,0.128l0.007,0.134l0.007,0.134l0.008,0.127l0.009,0.133l0.009,0.132l0.01,0.126l0.012,0.131l0.012,0.132l0.012,0.125l0.014,0.13l0.014,0.131l0.015,0.129l0.016,0.129l0.017,0.13l0.017,0.123l0.018,0.128l0.019,0.127l0.02,0.127l0.022,0.134l0.02,0.121l0.022,0.12l0.024,0.131l0.023,0.125l0.025,0.126l0.025,0.124l0.026,0.125l0.027,0.13l0.026,0.118l0.028,0.122l0.031,0.128l0.029,0.123l0.03,0.122l0.031,0.121l0.031,0.119l0.035,0.129l0.033,0.121l0.033,0.118l0.036,0.124l0.035,0.12l0.036,0.119l0.038,0.123l0.036,0.117l0.038,0.118l0.041,0.123l0.039,0.116l0.042,0.122l0.041,0.121l0.041,0.114l0.042,0.116l0.044,0.119l0.043,0.113l0.046,0.12l0.046,0.118l0.045,0.112l0.048,0.119l0.046,0.111l0.049,0.116l0.05,0.118l0.05,0.116l0.05,0.112l0.05,0.111l0.052,0.115l0.052,0.113l0.055,0.116l0.05,0.105l0.055,0.112l0.057,0.117l0.053,0.106l0.058,0.114l0.057,0.11l0.057,0.108l0.058,0.11l0.059,0.109l0.06,0.109l0.06,0.108l0.061,0.108l0.061,0.108l0.061,0.104l0.062,0.107l0.066,0.111l0.064,0.106l0.063,0.102l0.065,0.105l0.066,0.105l0.064,0.101l0.07,0.108l0.068,0.103l0.068,0.103l0.069,0.104l0.07,0.102l0.068,0.098l0.071,0.102l0.076,0.108l0.067,0.093l0.07,0.097l0.079,0.107l0.071,0.096l0.072,0.096l0.077,0.101l0.076,0.098l0.076,0.098l0.077,0.097l0.075,0.093l0.078,0.096l0.081,0.099l0.078,0.095l0.077,0.092l0.078,0.09l0.083,0.097l0.081,0.094l0.079,0.089l0.089,0.099l0.082,0.092l0.078,0.085l0.084,0.09l0.085,0.09l0.085,0.09l0.088,0.092l0.083,0.086l0.087,0.088l0.087,0.088l0.085,0.084l0.094,0.093l0.086,0.083l0.086,0.082l0.089,0.085l0.091,0.085l0.094,0.087l0.091,0.083l0.092,0.083l0.089,0.08l0.089,0.079l0.096,0.083l0.097,0.084l0.092,0.078l0.094,0.079l0.092,0.076l0.096,0.079l0.099,0.081l0.093,0.074l0.097,0.077l0.101,0.079l0.095,0.073l0.095,0.072l0.102,0.077l0.1,0.074l0.099,0.073l0.1,0.072l0.101,0.073l0.102,0.072l0.098,0.068l0.101,0.07l0.102,0.07l0.103,0.068l0.104,0.069l0.108,0.071l0.103,0.067l0.097,0.061l0.109,0.069l0.102,0.063l0.106,0.065l0.11,0.066l0.106,0.064l0.107,0.063l0.1,0.057l0.112,0.064l0.108,0.061l0.108,0.06l0.109,0.06l0.11,0.059l0.109,0.058l0.11,0.058l0.111,0.057l0.108,0.055l0.112,0.056l0.109,0.054l0.117,0.057l0.113,0.054l0.108,0.051l0.113,0.052l0.114,0.052l0.11,0.049l0.115,0.051l0.117,0.051l0.115,0.049l0.117,0.049l0.113,0.047l0.109,0.044l0.118,0.047l0.12,0.047l0.12,0.046l0.113,0.043l0.114,0.042l0.127,0.046l0.114,0.04l0.115,0.04l0.122,0.042l0.118,0.04l0.115,0.038l0.122,0.039l0.125,0.039l0.117,0.036l0.119,0.036l0.12,0.035l0.124,0.036l0.12,0.034l0.119,0.032l0.127,0.034l0.121,0.032l0.121,0.031l0.122,0.03l0.123,0.03l0.123,0.028l0.129,0.03l0.122,0.027l0.124,0.026l0.125,0.026l0.124,0.025l0.125,0.025l0.125,0.023l0.126,0.023l0.126,0.022l0.128,0.022l0.127,0.021l0.126,0.02l0.122,0.018l0.134,0.019l0.13,0.018l0.123,0.016l0.128,0.016l0.131,0.015l0.13,0.014l0.13,0.014l0.125,0.013l0.125,0.011l0.138,0.012l0.132,0.01l0.126,0.01l0.127,0.008l0.134,0.008l0.133,0.007l0.128,0.006l0.134,0.006l0.135,0.004l0.129,0.004l0.136,0.003l0.135,0.002l0.125,0.002l0.142,0l52.988,0l0.143,0l0.124,-0.002l0.135,-0.002l0.136,-0.003l0.129,-0.004l0.135,-0.004l0.134,-0.006l0.128,-0.006l0.133,-0.007l0.134,-0.008l0.127,-0.008l0.126,-0.01l0.132,-0.01l0.138,-0.012l0.125,-0.011l0.125,-0.013l0.13,-0.014l0.13,-0.014l0.131,-0.015l0.129,-0.016l0.122,-0.016l0.129,-0.018l0.135,-0.019l0.122,-0.018l0.127,-0.02l0.126,-0.021l0.127,-0.021l0.127,-0.023l0.126,-0.023l0.124,-0.023l0.125,-0.025l0.125,-0.025l0.125,-0.026l0.124,-0.026l0.122,-0.027l0.129,-0.03l0.123,-0.028l0.123,-0.03l0.122,-0.03l0.12,-0.031l0.122,-0.032l0.127,-0.034l0.119,-0.032l0.12,-0.034l0.126,-0.036l0.118,-0.035l0.118,-0.035l0.118,-0.037l0.124,-0.039l0.122,-0.039l0.116,-0.038l0.118,-0.04l0.122,-0.042l0.115,-0.04l0.114,-0.04l0.127,-0.046l0.116,-0.043l0.113,-0.043l0.116,-0.044l0.12,-0.047l0.12,-0.048l0.109,-0.044l0.113,-0.047l0.119,-0.05l0.113,-0.048l0.115,-0.05l0.117,-0.052l0.11,-0.049l0.113,-0.052l0.114,-0.052l0.108,-0.051l0.113,-0.054l0.117,-0.057l0.109,-0.054l0.112,-0.056l0.108,-0.055l0.111,-0.057l0.11,-0.058l0.109,-0.058l0.11,-0.059l0.109,-0.06l0.108,-0.06l0.108,-0.061l0.112,-0.064l0.1,-0.057l0.107,-0.063l0.106,-0.064l0.11,-0.066l0.106,-0.065l0.102,-0.063l0.109,-0.069l0.1,-0.063l0.101,-0.065l0.104,-0.069l0.107,-0.071l0.106,-0.07l0.099,-0.068l0.098,-0.068l0.101,-0.07l0.102,-0.072l0.101,-0.073l0.1,-0.072l0.099,-0.073l0.1,-0.074l0.102,-0.077l0.095,-0.072l0.095,-0.073l0.101,-0.079l0.097,-0.077l0.093,-0.074l0.099,-0.081l0.096,-0.079l0.092,-0.076l0.094,-0.079l0.095,-0.08l0.097,-0.084l0.09,-0.078l0.089,-0.079l0.092,-0.083l0.092,-0.083l0.095,-0.086l0.09,-0.084l0.088,-0.082l0.092,-0.088l0.086,-0.082l0.089,-0.086l0.092,-0.09l0.081,-0.081l0.09,-0.091l0.087,-0.088l0.083,-0.086l0.091,-0.095l0.083,-0.087l0.081,-0.087l0.087,-0.093l0.081,-0.089l0.08,-0.088l0.085,-0.096l0.082,-0.092l0.081,-0.094l0.083,-0.097l0.077,-0.09l0.078,-0.092l0.081,-0.099l0.079,-0.095l0.074,-0.092l0.081,-0.101l0.074,-0.093l0.073,-0.094l0.082,-0.106l0.074,-0.097l0.072,-0.096l0.071,-0.096l0.076,-0.103l0.073,-0.101l0.07,-0.097l0.073,-0.104l0.068,-0.097l0.071,-0.103l0.072,-0.107l0.067,-0.099l0.066,-0.099l0.07,-0.107l0.07,-0.108l0.064,-0.101l0.066,-0.105l0.065,-0.105l0.063,-0.102l0.064,-0.106l0.066,-0.111l0.062,-0.107l0.061,-0.104l0.061,-0.108l0.061,-0.108l0.06,-0.108l0.06,-0.109l0.059,-0.109l0.058,-0.11l0.057,-0.108l0.057,-0.11l0.058,-0.114l0.055,-0.111l0.056,-0.112l0.052,-0.107l0.052,-0.11l0.055,-0.116l0.052,-0.113l0.052,-0.115l0.053,-0.116l0.047,-0.107l0.05,-0.116l0.05,-0.118l0.047,-0.11l0.048,-0.117l0.048,-0.119l0.047,-0.117l0.044,-0.113l0.044,-0.115l0.045,-0.118l0.044,-0.119l0.042,-0.116l0.042,-0.12l0.041,-0.115l0.039,-0.117l0.041,-0.121l0.041,-0.123l0.038,-0.118l0.036,-0.117l0.038,-0.123l0.036,-0.119l0.037,-0.125l0.034,-0.119l0.033,-0.118l0.034,-0.121l0.032,-0.123l0.033,-0.125l0.031,-0.121l0.03,-0.122l0.031,-0.128l0.029,-0.123l0.026,-0.117l0.029,-0.129l0.027,-0.124l0.025,-0.125l0.026,-0.124l0.024,-0.126l0.024,-0.125l0.022,-0.125l0.023,-0.126l0.021,-0.127l0.021,-0.128l0.019,-0.121l0.019,-0.133l0.019,-0.128l0.017,-0.123l0.017,-0.13l0.016,-0.129l0.015,-0.129l0.014,-0.131l0.014,-0.13l0.012,-0.125l0.012,-0.132l0.012,-0.131l0.01,-0.126l0.009,-0.132l0.009,-0.133l0.008,-0.127l0.007,-0.134l0.007,-0.134l0.005,-0.128l0.004,-0.129l0.004,-0.135l0.003,-0.135l0.002,-0.13l0.002,-0.136l0,-0.143l0,-52.976l0,-0.143l-0.002,-0.136l-0.002,-0.13l-0.003,-0.135l-0.004,-0.135l-0.004,-0.129l-0.005,-0.128l-0.007,-0.134l-0.007,-0.133l-0.008,-0.128l-0.009,-0.132l-0.009,-0.133l-0.01,-0.126l-0.012,-0.132l-0.012,-0.131l-0.012,-0.125l-0.014,-0.13l-0.014,-0.131l-0.015,-0.129l-0.016,-0.13l-0.017,-0.129l-0.017,-0.122l-0.018,-0.128l-0.02,-0.134l-0.019,-0.122l-0.021,-0.127l-0.021,-0.126l-0.023,-0.127l-0.022,-0.125l-0.024,-0.126l-0.024,-0.125l-0.026,-0.124l-0.025,-0.125l-0.027,-0.124l-0.029,-0.129l-0.026,-0.117l-0.029,-0.123l-0.031,-0.128l-0.03,-0.121l-0.031,-0.121l-0.033,-0.128l-0.032,-0.121l-0.033,-0.12l-0.034,-0.119l-0.034,-0.119l-0.037,-0.125l-0.036,-0.118l-0.038,-0.125l-0.037,-0.117l-0.037,-0.117l-0.041,-0.122l-0.041,-0.122l-0.039,-0.117l-0.041,-0.115l-0.042,-0.12l-0.042,-0.116l-0.045,-0.12l-0.044,-0.119l-0.044,-0.112l-0.044,-0.114l-0.047,-0.118l-0.048,-0.117l-0.048,-0.118l-0.047,-0.112l-0.05,-0.115l-0.049,-0.115l-0.049,-0.11l-0.051,-0.114l-0.053,-0.115l-0.053,-0.115l-0.053,-0.112l-0.053,-0.113l-0.053,-0.108l-0.055,-0.112l-0.056,-0.111l-0.057,-0.111l-0.056,-0.11l-0.058,-0.11l-0.059,-0.111l-0.058,-0.108l-0.06,-0.109l-0.06,-0.108l-0.06,-0.107l-0.061,-0.107l-0.062,-0.107l-0.063,-0.107l-0.065,-0.11l-0.063,-0.104l-0.065,-0.105l-0.065,-0.105l-0.065,-0.104l-0.065,-0.102l-0.069,-0.107l-0.069,-0.106l-0.066,-0.098l-0.068,-0.101l-0.071,-0.105l-0.073,-0.106l-0.069,-0.099l-0.069,-0.098l-0.071,-0.099l-0.075,-0.103l-0.075,-0.102l-0.071,-0.096l-0.073,-0.097l-0.073,-0.096l-0.081,-0.104l-0.073,-0.094l-0.075,-0.095l-0.082,-0.102l-0.075,-0.093l-0.077,-0.094l-0.079,-0.095l-0.081,-0.096l-0.078,-0.093l-0.081,-0.093l-0.081,-0.094l-0.082,-0.093l-0.084,-0.093l-0.08,-0.089l-0.083,-0.091l-0.084,-0.091l-0.082,-0.087l-0.087,-0.091l-0.088,-0.093l-0.083,-0.085l-0.087,-0.088l-0.089,-0.09l-0.084,-0.084l-0.09,-0.088l-0.087,-0.084l-0.089,-0.086l-0.093,-0.088l-0.086,-0.08l-0.09,-0.084l-0.095,-0.086l-0.09,-0.082l-0.09,-0.081l-0.093,-0.081l-0.093,-0.082l-0.093,-0.079l-0.094,-0.08l-0.096,-0.081l-0.094,-0.078l-0.096,-0.078l-0.095,-0.078l-0.097,-0.077l-0.095,-0.076l-0.099,-0.077l-0.099,-0.076l-0.095,-0.073l-0.1,-0.075l-0.098,-0.073l-0.101,-0.074l-0.102,-0.074l-0.099,-0.071l-0.1,-0.07l-0.101,-0.071l-0.1,-0.069l-0.102,-0.069l-0.105,-0.071l-0.102,-0.068l-0.103,-0.067l-0.103,-0.066l-0.106,-0.068l-0.105,-0.066l-0.102,-0.063l-0.108,-0.066l-0.106,-0.064l-0.106,-0.063l-0.109,-0.064l-0.104,-0.061l-0.106,-0.06l-0.11,-0.062l-0.111,-0.062l-0.106,-0.058l-0.11,-0.059l-0.109,-0.058l-0.11,-0.058l-0.111,-0.057l-0.106,-0.054l-0.114,-0.057l-0.114,-0.056l-0.11,-0.054l-0.112,-0.054l-0.111,-0.052l-0.114,-0.052l-0.113,-0.052l-0.112,-0.051l-0.115,-0.05l-0.115,-0.05l-0.113,-0.049l-0.116,-0.048l-0.116,-0.048l-0.112,-0.045l-0.12,-0.048l-0.117,-0.046l-0.113,-0.043l-0.116,-0.044l-0.118,-0.044l-0.122,-0.044l-0.117,-0.041l-0.115,-0.041l-0.12,-0.04l-0.12,-0.041l-0.118,-0.039l-0.12,-0.038l-0.121,-0.038l-0.121,-0.038l-0.118,-0.035l-0.121,-0.036l-0.12,-0.034l-0.123,-0.035l-0.122,-0.033l-0.121,-0.033l-0.125,-0.032l-0.12,-0.031l-0.122,-0.03l-0.123,-0.03l-0.126,-0.029l-0.126,-0.029l-0.122,-0.027l-0.124,-0.026l-0.125,-0.026l-0.125,-0.026l-0.124,-0.024l-0.125,-0.023l-0.126,-0.023l-0.127,-0.023l-0.127,-0.021l-0.126,-0.021l-0.125,-0.019l-0.127,-0.019l-0.132,-0.019l-0.126,-0.017l-0.125,-0.017l-0.129,-0.016l-0.131,-0.015l-0.13,-0.014l-0.127,-0.014l-0.128,-0.012l-0.131,-0.012l-0.132,-0.012l-0.129,-0.01l-0.129,-0.01l-0.13,-0.008l-0.131,-0.008l-0.133,-0.007l-0.131,-0.006l-0.131,-0.006l-0.132,-0.004l-0.132,-0.004l-0.136,-0.003l-0.129,-0.002l-0.133,-0.002l-0.145,0l-52.977,0Z"/></g></svg>