<?xml version="1.0" encoding="UTF-8" standalone="no"?><!DOCTYPE svg PUBLIC "-//W3C//DTD SVG 1.1//EN" "http://www.w3.org/Graphics/SVG/1.1/DTD/svg11.dtd"><svg width="100%" height="100%" viewBox="0 0 128 128" version="1.1" xmlns="http://www.w3.org/2000/svg" xmlns:xlink="http://www.w3.org/1999/xlink" xml:space="preserve" xmlns:serif="http://www.serif.com/" style="fill-rule:evenodd;clip-rule:evenodd;stroke-linejoin:round;stroke-miterlimit:1.41421;"><rect id="round-control-play" x="0" y="0" width="128" height="128" style="fill:none;"/><clipPath id="_clip1"><rect id="round-control-play1" serif:id="round-control-play" x="0" y="0" width="128" height="128"/></clipPath><g clip-path="url(#_clip1)"><g><path d="M64.427,3.03c22.035,0.21 43.336,13.165 53.587,32.583c8.786,16.643 9.257,37.457 1.159,54.518c-11.413,24.044 -39.531,39.014 -66.682,33.806c-24.895,-4.775 -45.555,-26.602 -48.918,-51.762c-2.573,-19.247 4.67,-39.535 18.915,-52.796c11.064,-10.3 26.008,-16.205 41.15,-16.349c0.263,0 0.526,0 0.789,0Zm-0.732,9c-25.068,0.243 -48.534,20.264 -51.359,46.351c-2.746,25.348 15.608,51.515 41.532,56.655c21.206,4.204 44.474,-6.372 55.277,-25.143c8.103,-14.078 9.044,-32.081 2.424,-46.961c-8.062,-18.124 -27.17,-30.708 -47.199,-30.902c-0.225,0 -0.45,0 -0.675,0Z" style="fill-rule:nonzero;"/><path d="M90,64l-42,31.5l0,-63l42,31.5Z"/></g></g></svg>