<?xml version="1.0" encoding="UTF-8" standalone="no"?><!DOCTYPE svg PUBLIC "-//W3C//DTD SVG 1.1//EN" "http://www.w3.org/Graphics/SVG/1.1/DTD/svg11.dtd"><svg width="100%" height="100%" viewBox="0 0 128 128" version="1.1" xmlns="http://www.w3.org/2000/svg" xmlns:xlink="http://www.w3.org/1999/xlink" xml:space="preserve" xmlns:serif="http://www.serif.com/" style="fill-rule:evenodd;clip-rule:evenodd;stroke-linejoin:round;stroke-miterlimit:1.41421;"><rect id="search" x="0" y="0" width="128" height="128" style="fill:none;"/><clipPath id="_clip1"><rect id="search1" serif:id="search" x="0" y="0" width="128" height="128"/></clipPath><g clip-path="url(#_clip1)"><path d="M77.364,85.849c-5.753,4.286 -12.79,6.935 -20.531,6.984c-17.22,0.109 -33.553,-13.668 -36.085,-30.944c-2.865,-19.549 12.543,-39.987 33.295,-41.436c0.929,-0.065 1.859,-0.091 2.79,-0.088c16.548,0.157 32.07,12.825 35.309,29.157c1.913,9.645 -0.724,19.724 -6.404,27.73l22.869,22.869l-8.486,8.485l-22.757,-22.757Zm-20.898,-50.485c-10.319,0.1 -19.857,8.555 -20.978,18.916c-0.972,8.996 4.453,18.329 12.863,21.893c10.956,4.642 25.395,-1.932 28.714,-13.887c3.402,-12.252 -6.22,-26.529 -19.91,-26.915c-0.23,-0.005 -0.459,-0.007 -0.689,-0.007Z"/></g></svg>