<?xml version="1.0" encoding="UTF-8" standalone="no"?><!DOCTYPE svg PUBLIC "-//W3C//DTD SVG 1.1//EN" "http://www.w3.org/Graphics/SVG/1.1/DTD/svg11.dtd"><svg width="100%" height="100%" viewBox="0 0 128 128" version="1.1" xmlns="http://www.w3.org/2000/svg" xmlns:xlink="http://www.w3.org/1999/xlink" xml:space="preserve" xmlns:serif="http://www.serif.com/" style="fill-rule:evenodd;clip-rule:evenodd;stroke-linejoin:round;stroke-miterlimit:1.41421;"><rect id="share" x="0" y="0" width="128" height="128" style="fill:none;"/><clipPath id="_clip1"><rect id="share1" serif:id="share" x="0" y="0" width="128" height="128"/></clipPath><g clip-path="url(#_clip1)"><path d="M80.19,31.379c-0.123,-0.773 -0.187,-1.566 -0.187,-2.373c0,-8.279 6.721,-15 15,-15c8.278,0 15,6.721 15,15c0,8.278 -6.722,15 -15,15c-4.232,0 -8.056,-1.756 -10.784,-4.579l-37.417,18.704c0.769,1.805 1.195,3.79 1.195,5.875c0,2.081 -0.425,4.064 -1.192,5.866l37.414,18.706c2.728,-2.822 6.553,-4.578 10.784,-4.578c8.278,0 15,6.721 15,15c0,8.279 -6.722,15 -15,15c-8.279,0 -15,-6.721 -15,-15c0,-0.808 0.064,-1.601 0.187,-2.375l-39.495,-19.746c-2.251,1.35 -4.884,2.127 -7.698,2.127c-8.278,0 -15,-6.722 -15,-15c0,-8.279 6.722,-15 15,-15c2.81,0 5.44,0.774 7.69,2.12l39.503,-19.747Z"/></g></svg>