<?xml version="1.0" encoding="UTF-8" standalone="no"?><!DOCTYPE svg PUBLIC "-//W3C//DTD SVG 1.1//EN" "http://www.w3.org/Graphics/SVG/1.1/DTD/svg11.dtd"><svg width="100%" height="100%" viewBox="0 0 128 128" version="1.1" xmlns="http://www.w3.org/2000/svg" xmlns:xlink="http://www.w3.org/1999/xlink" xml:space="preserve" xmlns:serif="http://www.serif.com/" style="fill-rule:evenodd;clip-rule:evenodd;stroke-linejoin:round;stroke-miterlimit:1.41421;"><rect id="support" x="0" y="0" width="128" height="128" style="fill:none;"/><clipPath id="_clip1"><rect id="support1" serif:id="support" x="0" y="0" width="128" height="128"/></clipPath><g clip-path="url(#_clip1)"><path d="M57.415,14.446c2.288,-0.304 4.598,-0.452 6.908,-0.445c10.827,0.103 21.336,4.087 29.87,10.651l0.294,-0.282c8.805,6.774 15.055,16.247 17.859,26.876c0.266,0.985 0.499,1.981 0.699,2.988c0.187,0.942 0.344,1.889 0.473,2.839c0.016,0.113 0.031,0.226 0.046,0.339l-0.001,0.001c1.667,13.004 -2.043,26.603 -9.961,37.045l0.028,0.029c-8.06,10.477 -19.94,17.336 -33.042,19.077l-0.049,-0.166c-8.605,1.171 -17.53,0.192 -25.713,-3.212c-4.036,-1.679 -7.818,-3.921 -11.255,-6.612l-0.058,0.056c-9.581,-7.37 -16.136,-17.936 -18.519,-29.71c-0.222,-1.073 -0.406,-2.155 -0.551,-3.243c-1.739,-13.009 2.249,-26.465 10.135,-36.947l-0.208,-0.217c4.634,-6.024 10.531,-10.851 17.197,-14.198c0.614,-0.312 1.235,-0.611 1.864,-0.895c2.073,-0.938 4.211,-1.728 6.393,-2.368c2.468,-0.73 5.005,-1.273 7.588,-1.616l0.003,0.01Zm11.569,93.198c-1.415,-5.678 -2.489,-11.413 -3.224,-17.206c-0.525,0.037 -1.054,0.058 -1.588,0.061c-5.27,0.036 -10.441,-1.685 -14.802,-4.632c-3.573,4.715 -7.418,9.204 -11.537,13.467c8.85,6.455 20.179,9.451 31.151,8.31Zm38.612,-48.616c-5.667,1.41 -11.392,2.482 -17.174,3.214c0.3,5.734 -1.46,11.482 -4.695,16.282c4.742,3.585 9.256,7.445 13.542,11.58c4.344,-5.85 7.293,-12.729 8.304,-19.947c0.518,-3.702 0.507,-7.445 0.023,-11.129Zm-43.747,-18.527c-10.878,0.105 -21.043,8.499 -22.982,19.34c-1.878,10.5 4.355,21.876 14.254,25.921c12.59,5.145 28.838,-2.974 31.841,-16.742c2.954,-13.54 -8.076,-28.578 -23.113,-28.519Zm-35.025,-2.515c-3.849,5.026 -6.641,10.853 -7.929,17.146c-0.934,4.559 -1.095,9.246 -0.541,13.852c5.694,-1.418 11.445,-2.495 17.253,-3.23c-0.259,-5.711 1.499,-11.445 4.715,-16.24c-4.725,-3.57 -9.224,-7.412 -13.498,-11.528Zm61.303,-9.279c-2.48,-1.899 -5.168,-3.525 -8.031,-4.821c-5.753,-2.602 -12.04,-3.906 -18.381,-3.885c-1.578,0.015 -3.149,0.123 -4.707,0.322c1.419,5.689 2.496,11.436 3.233,17.24c0.412,-0.03 0.828,-0.049 1.247,-0.058c0.228,-0.004 0.456,-0.005 0.684,-0.004c5.168,0.05 10.197,1.762 14.45,4.643c3.563,-4.704 7.398,-9.182 11.505,-13.437Z"/></g></svg>