<?xml version="1.0" encoding="UTF-8" standalone="no"?><!DOCTYPE svg PUBLIC "-//W3C//DTD SVG 1.1//EN" "http://www.w3.org/Graphics/SVG/1.1/DTD/svg11.dtd"><svg width="100%" height="100%" viewBox="0 0 128 128" version="1.1" xmlns="http://www.w3.org/2000/svg" xmlns:xlink="http://www.w3.org/1999/xlink" xml:space="preserve" xmlns:serif="http://www.serif.com/" style="fill-rule:evenodd;clip-rule:evenodd;stroke-linejoin:round;stroke-miterlimit:1.41421;"><rect id="telephone" x="0" y="0" width="128" height="128" style="fill:none;"/><clipPath id="_clip1"><rect id="telephone1" serif:id="telephone" x="0" y="0" width="128" height="128"/></clipPath><g clip-path="url(#_clip1)"><path d="M70.632,16.052c1.104,-0.018 2.999,-0.046 4.037,-0.046c4.792,0 6.682,6.568 6.682,15.609c0,9.04 -1.89,16.379 -6.682,16.379c-1.511,0 -8.164,-6.456 -9.559,-7.964c-1.037,7.42 -1.661,15.55 -1.661,23.97c0,8.415 0.623,16.542 1.659,23.959c1.395,-1.507 8.05,-7.965 9.561,-7.965c4.792,0 6.682,7.34 6.682,16.38c0,9.041 -1.89,15.62 -6.682,15.62c-1.524,0 -4.896,0 -4.896,0l-0.013,-0.032c-12.835,-0.937 -23.111,-22.068 -23.111,-47.962c0,-26.489 10.754,-47.994 24,-47.994l-0.017,0.046Z"/></g></svg>