<?xml version="1.0" encoding="UTF-8" standalone="no"?><!DOCTYPE svg PUBLIC "-//W3C//DTD SVG 1.1//EN" "http://www.w3.org/Graphics/SVG/1.1/DTD/svg11.dtd"><svg width="100%" height="100%" viewBox="0 0 128 128" version="1.1" xmlns="http://www.w3.org/2000/svg" xmlns:xlink="http://www.w3.org/1999/xlink" xml:space="preserve" xmlns:serif="http://www.serif.com/" style="fill-rule:evenodd;clip-rule:evenodd;stroke-linejoin:round;stroke-miterlimit:1.41421;"><rect id="video" x="0" y="0" width="128" height="128" style="fill:none;"/><clipPath id="_clip1"><rect id="video1" serif:id="video" x="0" y="0" width="128" height="128"/></clipPath><g clip-path="url(#_clip1)"><path d="M114,98.375l-100,0l0,-68.75l100,0l0,68.75Zm-93.117,-9.632l-3.73,0c-0.695,0 -1.26,0.565 -1.26,1.26l0,2.52c0,0.696 0.565,1.26 1.26,1.26l3.73,0c0.696,0 1.26,-0.564 1.26,-1.26l0,-2.52c0,-0.695 -0.564,-1.26 -1.26,-1.26Zm89.964,0l-3.73,0c-0.696,0 -1.26,0.565 -1.26,1.26l0,2.52c0,0.696 0.564,1.26 1.26,1.26l3.73,0c0.695,0 1.26,-0.564 1.26,-1.26l0,-2.52c0,-0.695 -0.565,-1.26 -1.26,-1.26Zm-9.347,-51.529l-75,0l0,53.572l75,0l0,-53.572Zm-25,26.786l-21.429,16.071l0,-32.142l21.429,16.071Zm-55.617,6.598l-3.73,0c-0.695,0.001 -1.26,0.565 -1.26,1.26l0,2.521c0,0.695 0.565,1.26 1.26,1.26l3.73,0c0.696,0 1.26,-0.565 1.26,-1.26l0,-2.521c0,-0.695 -0.564,-1.259 -1.26,-1.26Zm89.964,0l-3.73,0c-0.696,0.001 -1.26,0.565 -1.26,1.26l0,2.521c0,0.695 0.564,1.26 1.26,1.26l3.73,0c0.695,0 1.26,-0.565 1.26,-1.26l0,-2.521c0,-0.695 -0.565,-1.259 -1.26,-1.26Zm0,-18.19l-3.73,0c-0.696,0 -1.26,0.564 -1.26,1.26l0,2.52c0,0.695 0.564,1.26 1.26,1.26l3.73,0c0.695,0 1.26,-0.565 1.26,-1.26l0,-2.52c0,-0.696 -0.565,-1.26 -1.26,-1.26Zm-89.964,0l-3.73,0c-0.695,0 -1.26,0.564 -1.26,1.26l0,2.52c0,0.695 0.565,1.26 1.26,1.26l3.73,0c0.696,0 1.26,-0.565 1.26,-1.26l0,-2.52c0,-0.696 -0.564,-1.26 -1.26,-1.26Zm89.964,-18.191l-3.73,0c-0.696,0 -1.26,0.564 -1.26,1.26l0,2.52c0,0.695 0.564,1.26 1.26,1.26l3.73,0c0.695,0 1.26,-0.565 1.26,-1.26l0,-2.52c0,-0.696 -0.565,-1.26 -1.26,-1.26Zm-89.964,0l-3.73,0c-0.695,0 -1.26,0.564 -1.26,1.26l0,2.52c0,0.695 0.565,1.26 1.26,1.26l3.73,0c0.696,0 1.26,-0.565 1.26,-1.26l0,-2.52c0,-0.696 -0.564,-1.26 -1.26,-1.26Z"/></g></svg>