<?xml version="1.0" encoding="UTF-8" standalone="no"?><!DOCTYPE svg PUBLIC "-//W3C//DTD SVG 1.1//EN" "http://www.w3.org/Graphics/SVG/1.1/DTD/svg11.dtd"><svg width="100%" height="100%" viewBox="0 0 128 128" version="1.1" xmlns="http://www.w3.org/2000/svg" xmlns:xlink="http://www.w3.org/1999/xlink" xml:space="preserve" xmlns:serif="http://www.serif.com/" style="fill-rule:evenodd;clip-rule:evenodd;stroke-linejoin:round;stroke-miterlimit:1.41421;"><rect id="ask-quote" x="0" y="0" width="128" height="128" style="fill:none;"/><clipPath id="_clip1"><rect id="ask-quote1" serif:id="ask-quote" x="0" y="0" width="128" height="128"/></clipPath><g clip-path="url(#_clip1)"><g><path d="M96.103,16.001c4.115,0.078 7.815,3.639 7.896,7.896c0.17,26.735 0.17,53.471 0,80.206c-0.078,4.118 -3.584,7.814 -7.896,7.896c-21.401,0.136 -42.805,0.136 -64.206,0c-4.115,-0.078 -7.815,-3.639 -7.896,-7.896c-0.17,-26.735 -0.17,-53.471 0,-80.206c0.078,-4.118 3.584,-7.814 7.896,-7.896c21.401,-0.136 42.805,-0.136 64.206,0Zm-64.094,2.999c-2.612,0.015 -4.959,2.299 -5.009,4.936c-0.193,26.731 -0.505,53.469 0.002,80.196c0.078,2.553 2.337,4.815 4.934,4.868c21.397,0.124 42.799,0.434 64.192,-0.002c2.546,-0.082 4.792,-2.311 4.87,-4.866c0.507,-26.75 0.507,-53.514 0,-80.264c-0.077,-2.534 -2.296,-4.784 -4.868,-4.866c-21.37,-0.405 -42.748,-0.002 -64.121,-0.002Z" style="fill-rule:nonzero;"/><rect x="32" y="28" width="52" height="8"/><rect x="32" y="48" width="64" height="4"/><rect x="32" y="64" width="20" height="4"/><rect x="32" y="76" width="20" height="4"/><rect x="58" y="64" width="26" height="4"/><rect x="58" y="76" width="26" height="4"/><path d="M96,65.147l0,1.706l-2.538,0l0,2.537l-1.705,0l0,-2.537l-2.537,0l0,-1.706l2.537,0l0,-2.537l1.705,0l0,2.537l2.538,0Z"/><path d="M93.462,65.147l2.538,0l0,1.706l-2.538,0l0,2.537l-1.705,0l0,-2.537l-2.537,0l0,-1.706l2.537,0l0,-2.537l1.705,0l0,2.537Z"/><path d="M96,77.147l0,1.706l-2.538,0l0,2.537l-1.705,0l0,-2.537l-2.537,0l0,-1.706l2.537,0l0,-2.537l1.705,0l0,2.537l2.538,0Z"/><rect x="58" y="92" width="26" height="2"/><rect x="89.22" y="90.8" width="6.78" height="1.7"/><rect x="89.22" y="93.5" width="6.78" height="1.7"/></g></g></svg>