<?xml version="1.0" encoding="UTF-8" standalone="no"?><!DOCTYPE svg PUBLIC "-//W3C//DTD SVG 1.1//EN" "http://www.w3.org/Graphics/SVG/1.1/DTD/svg11.dtd"><svg width="100%" height="100%" viewBox="0 0 128 128" version="1.1" xmlns="http://www.w3.org/2000/svg" xmlns:xlink="http://www.w3.org/1999/xlink" xml:space="preserve" xmlns:serif="http://www.serif.com/" style="fill-rule:evenodd;clip-rule:evenodd;stroke-linejoin:round;stroke-miterlimit:1.41421;"><rect id="code" x="0" y="0" width="128" height="128" style="fill:none;"/><clipPath id="_clip1"><rect id="code1" serif:id="code" x="0" y="0" width="128" height="128"/></clipPath><g clip-path="url(#_clip1)"><g><path d="M44.149,43.412l-20.912,20.588l20.912,20.588l-7.745,7.509l-28.539,-28.097l28.539,-28.097c2.582,2.503 5.164,5.006 7.745,7.509Z"/><path d="M120.099,64.019l-28.585,28.103l-7.694,-7.564l20.891,-20.539l-20.891,-20.539l7.694,-7.565c9.528,9.368 19.057,18.736 28.585,28.104Z"/><path d="M79.629,29.077l-22.706,72.571l-8.59,-2.688l22.707,-72.57c2.863,0.896 5.726,1.791 8.589,2.687Z" style="fill-rule:nonzero;"/></g></g></svg>