<?xml version="1.0" encoding="UTF-8" standalone="no"?><!DOCTYPE svg PUBLIC "-//W3C//DTD SVG 1.1//EN" "http://www.w3.org/Graphics/SVG/1.1/DTD/svg11.dtd"><svg width="100%" height="100%" viewBox="0 0 128 128" version="1.1" xmlns="http://www.w3.org/2000/svg" xmlns:xlink="http://www.w3.org/1999/xlink" xml:space="preserve" xmlns:serif="http://www.serif.com/" style="fill-rule:evenodd;clip-rule:evenodd;stroke-linejoin:round;stroke-miterlimit:1.41421;"><rect id="danger" x="0" y="0" width="128" height="128" style="fill:none;"/><clipPath id="_clip1"><rect id="danger1" serif:id="danger" x="0" y="0" width="128" height="128"/></clipPath><g clip-path="url(#_clip1)"><g><path d="M64.279,18.601c3.485,0.081 5.141,1.431 6.773,3.787l47.692,74.407c2.729,4.72 -0.455,12.375 -7.082,12.605l-95.369,0c-5.759,-0.246 -10.299,-7.125 -7.064,-12.615l47.694,-74.41c1.701,-2.402 4.228,-3.795 7.356,-3.774Zm-0.193,6c-1.071,0.025 -2.187,1.129 -2.187,1.129l-47.558,74.198c-0.648,1.099 -0.134,2.776 1.239,3.36c0.307,0.131 0.841,0.112 0.841,0.112l95.137,0c1.505,-0.052 2.606,-1.353 2.406,-2.772c-0.047,-0.299 -0.345,-0.711 -0.345,-0.711l-47.56,-74.201c-0.443,-0.639 -1.204,-1.123 -1.973,-1.115Z" style="fill-rule:nonzero;"/><g><circle cx="63.51" cy="90.233" r="4.167"/><path d="M63.63,85.568l0.119,0.005l0.119,0.007l0.118,0.011l0.118,0.013l0.115,0.017l0.116,0.019l0.114,0.022l0.113,0.024l0.113,0.028l0.112,0.03l0.11,0.033l0.108,0.035l0.109,0.038l0.107,0.041l0.105,0.043l0.104,0.045l0.102,0.048l0.102,0.051l0.1,0.052l0.098,0.056l0.098,0.057l0.095,0.06l0.093,0.061l0.092,0.064l0.091,0.066l0.089,0.069l0.087,0.07l0.086,0.072l0.084,0.074l0.082,0.077l0.08,0.078l0.078,0.08l0.076,0.082l0.075,0.084l0.072,0.085l0.07,0.088l0.068,0.089l0.066,0.09l0.064,0.092l0.063,0.094l0.059,0.096l0.057,0.096l0.055,0.099l0.053,0.1l0.05,0.101l0.049,0.103l0.045,0.104l0.043,0.105l0.041,0.107l0.038,0.108l0.035,0.109l0.033,0.11l0.03,0.111l0.028,0.113l0.025,0.114l0.021,0.114l0.02,0.116l0.016,0.116l0.013,0.116l0.011,0.119l0.007,0.119l0.005,0.119l0.001,0.12l-0.001,0.12l-0.005,0.12l-0.007,0.119l-0.011,0.119l-0.013,0.115l-0.016,0.116l-0.02,0.116l-0.021,0.115l-0.025,0.114l-0.028,0.112l-0.03,0.111l-0.033,0.11l-0.035,0.109l-0.038,0.108l-0.041,0.108l-0.043,0.104l-0.045,0.104l-0.049,0.104l-0.05,0.101l-0.053,0.1l-0.055,0.098l-0.057,0.096l-0.059,0.096l-0.063,0.095l-0.064,0.092l-0.066,0.09l-0.068,0.089l-0.07,0.088l-0.072,0.085l-0.075,0.084l-0.076,0.082l-0.078,0.079l-0.08,0.079l-0.082,0.076l-0.084,0.074l-0.086,0.073l-0.087,0.07l-0.089,0.068l-0.091,0.066l-0.092,0.064l-0.093,0.062l-0.095,0.059l-0.098,0.058l-0.098,0.055l-0.1,0.053l-0.102,0.05l-0.102,0.048l-0.104,0.046l-0.105,0.043l-0.107,0.041l-0.109,0.038l-0.108,0.035l-0.11,0.033l-0.112,0.03l-0.113,0.027l-0.113,0.025l-0.114,0.022l-0.116,0.019l-0.115,0.016l-0.118,0.014l-0.118,0.011l-0.119,0.007l-0.119,0.004l-0.12,0.002l-0.121,-0.002l-0.119,-0.004l-0.119,-0.007l-0.118,-0.011l-0.117,-0.014l-0.116,-0.016l-0.116,-0.019l-0.114,-0.022l-0.113,-0.025l-0.113,-0.027l-0.111,-0.03l-0.111,-0.033l-0.108,-0.035l-0.108,-0.038l-0.107,-0.041l-0.106,-0.043l-0.103,-0.046l-0.103,-0.048l-0.102,-0.05l-0.1,-0.053l-0.098,-0.055l-0.098,-0.058l-0.094,-0.059l-0.094,-0.062l-0.092,-0.064l-0.091,-0.066l-0.089,-0.068l-0.088,-0.07l-0.086,-0.073l-0.082,-0.074l-0.082,-0.076l-0.081,-0.078l-0.078,-0.08l-0.077,-0.083l-0.074,-0.083l-0.072,-0.085l-0.07,-0.088l-0.068,-0.089l-0.066,-0.09l-0.064,-0.092l-0.062,-0.094l-0.06,-0.097l-0.057,-0.097l-0.055,-0.097l-0.053,-0.1l-0.05,-0.101l-0.048,-0.103l-0.046,-0.105l-0.043,-0.105l-0.041,-0.107l-0.038,-0.108l-0.035,-0.108l-0.033,-0.111l-0.03,-0.112l-0.028,-0.111l-0.024,-0.114l-0.022,-0.115l-0.019,-0.115l-0.017,-0.117l-0.013,-0.116l-0.011,-0.118l-0.007,-0.119l-0.005,-0.12l-0.001,-0.12l0.001,-0.12l0.005,-0.119l0.007,-0.119l0.011,-0.118l0.013,-0.117l0.017,-0.117l0.019,-0.115l0.022,-0.114l0.024,-0.114l0.028,-0.112l0.03,-0.112l0.033,-0.111l0.035,-0.108l0.038,-0.108l0.041,-0.106l0.043,-0.106l0.046,-0.104l0.048,-0.103l0.05,-0.101l0.053,-0.1l0.055,-0.098l0.057,-0.097l0.06,-0.096l0.062,-0.094l0.064,-0.092l0.066,-0.09l0.068,-0.089l0.07,-0.088l0.072,-0.085l0.074,-0.084l0.077,-0.082l0.078,-0.08l0.081,-0.078l0.082,-0.077l0.082,-0.073l0.086,-0.073l0.088,-0.07l0.089,-0.069l0.091,-0.066l0.092,-0.064l0.094,-0.061l0.094,-0.06l0.098,-0.057l0.098,-0.056l0.1,-0.052l0.102,-0.051l0.103,-0.048l0.103,-0.045l0.106,-0.043l0.107,-0.041l0.108,-0.038l0.108,-0.035l0.111,-0.033l0.111,-0.03l0.113,-0.028l0.113,-0.024l0.114,-0.022l0.116,-0.019l0.116,-0.017l0.117,-0.013l0.118,-0.011l0.119,-0.007l0.119,-0.005l0.121,-0.001l0.12,0.001Zm-0.228,0.5l-0.107,0.004l-0.106,0.007l-0.105,0.009l-0.105,0.012l-0.104,0.015l-0.103,0.017l-0.102,0.019l-0.101,0.022l-0.1,0.025l-0.1,0.027l-0.098,0.029l-0.097,0.032l-0.097,0.034l-0.095,0.036l-0.094,0.038l-0.093,0.041l-0.091,0.043l-0.091,0.045l-0.089,0.047l-0.088,0.049l-0.086,0.051l-0.086,0.053l-0.083,0.056l-0.083,0.057l-0.081,0.059l-0.079,0.061l-0.078,0.063l-0.077,0.064l-0.074,0.067l-0.074,0.068l-0.071,0.07l-0.07,0.071l-0.068,0.073l-0.067,0.075l-0.064,0.077l-0.063,0.078l-0.061,0.079l-0.059,0.081l-0.057,0.082l-0.055,0.084l-0.054,0.085l-0.051,0.087l-0.049,0.088l-0.047,0.089l-0.045,0.091l-0.043,0.091l-0.04,0.093l-0.039,0.094l-0.036,0.095l-0.034,0.097l-0.032,0.097l-0.029,0.098l-0.027,0.1l-0.024,0.1l-0.022,0.101l-0.02,0.102l-0.017,0.103l-0.015,0.104l-0.012,0.105l-0.009,0.105l-0.007,0.106l-0.004,0.107l-0.001,0.107l0.001,0.108l0.004,0.107l0.007,0.106l0.009,0.105l0.012,0.105l0.015,0.104l0.017,0.103l0.02,0.102l0.022,0.101l0.024,0.1l0.027,0.099l0.029,0.099l0.032,0.097l0.034,0.096l0.036,0.096l0.039,0.094l0.04,0.092l0.043,0.092l0.045,0.091l0.047,0.089l0.049,0.088l0.051,0.086l0.054,0.085l0.055,0.084l0.057,0.083l0.059,0.081l0.061,0.079l0.063,0.078l0.064,0.076l0.067,0.075l0.068,0.073l0.07,0.072l0.071,0.07l0.074,0.068l0.074,0.066l0.077,0.065l0.078,0.063l0.079,0.061l0.081,0.059l0.083,0.057l0.083,0.055l0.086,0.053l0.086,0.052l0.088,0.049l0.089,0.047l0.091,0.045l0.091,0.043l0.093,0.04l0.094,0.039l0.095,0.036l0.097,0.034l0.097,0.032l0.098,0.029l0.1,0.027l0.1,0.024l0.101,0.022l0.102,0.02l0.103,0.017l0.104,0.014l0.105,0.012l0.105,0.01l0.106,0.007l0.107,0.004l0.108,0.001l0.107,-0.001l0.107,-0.004l0.106,-0.007l0.105,-0.01l0.105,-0.012l0.104,-0.014l0.103,-0.017l0.102,-0.02l0.101,-0.022l0.1,-0.024l0.1,-0.027l0.098,-0.029l0.097,-0.032l0.097,-0.034l0.095,-0.036l0.094,-0.039l0.093,-0.04l0.091,-0.043l0.091,-0.045l0.089,-0.047l0.088,-0.049l0.086,-0.052l0.086,-0.053l0.083,-0.055l0.083,-0.057l0.081,-0.059l0.079,-0.061l0.078,-0.063l0.077,-0.065l0.074,-0.066l0.074,-0.068l0.071,-0.07l0.07,-0.072l0.068,-0.073l0.067,-0.075l0.064,-0.076l0.063,-0.078l0.061,-0.079l0.059,-0.081l0.057,-0.083l0.055,-0.084l0.054,-0.085l0.051,-0.086l0.049,-0.088l0.047,-0.089l0.045,-0.091l0.043,-0.092l0.041,-0.092l0.038,-0.094l0.036,-0.096l0.034,-0.096l0.032,-0.097l0.029,-0.099l0.027,-0.099l0.024,-0.1l0.022,-0.101l0.02,-0.102l0.017,-0.103l0.015,-0.104l0.012,-0.105l0.009,-0.105l0.007,-0.106l0.004,-0.107l0.001,-0.108l-0.001,-0.107l-0.004,-0.107l-0.007,-0.106l-0.009,-0.105l-0.012,-0.105l-0.015,-0.104l-0.017,-0.103l-0.02,-0.102l-0.022,-0.101l-0.024,-0.1l-0.027,-0.1l-0.029,-0.098l-0.032,-0.097l-0.034,-0.097l-0.036,-0.095l-0.038,-0.094l-0.041,-0.093l-0.043,-0.091l-0.045,-0.091l-0.047,-0.089l-0.049,-0.088l-0.051,-0.087l-0.054,-0.085l-0.055,-0.084l-0.057,-0.082l-0.059,-0.081l-0.061,-0.079l-0.063,-0.078l-0.064,-0.077l-0.067,-0.075l-0.068,-0.073l-0.07,-0.071l-0.071,-0.07l-0.074,-0.068l-0.074,-0.067l-0.077,-0.064l-0.078,-0.063l-0.079,-0.061l-0.081,-0.059l-0.083,-0.057l-0.083,-0.056l-0.086,-0.053l-0.086,-0.051l-0.088,-0.049l-0.089,-0.047l-0.091,-0.045l-0.091,-0.043l-0.093,-0.041l-0.094,-0.038l-0.095,-0.036l-0.097,-0.034l-0.097,-0.032l-0.098,-0.029l-0.1,-0.027l-0.1,-0.025l-0.101,-0.022l-0.102,-0.019l-0.103,-0.017l-0.104,-0.015l-0.105,-0.012l-0.105,-0.009l-0.106,-0.007l-0.107,-0.004l-0.107,-0.001l-0.108,0.001Z"/><path d="M58.51,46.383l10,-0.034l-1.988,35.534l-5.986,0.022l0,-0.056l-0.039,0l-1.987,-35.466Z"/><path d="M66.995,82.381l-6.959,0.025l0,-0.057l-0.012,0l-2.043,-36.464l11.057,-0.038l-2.043,36.534Zm-8.485,-35.998l1.987,35.466l0.039,0l0,0.056l5.986,-0.022l1.988,-35.534l-10,0.034Z"/></g></g></g></svg>