<?xml version="1.0" encoding="UTF-8" standalone="no"?><!DOCTYPE svg PUBLIC "-//W3C//DTD SVG 1.1//EN" "http://www.w3.org/Graphics/SVG/1.1/DTD/svg11.dtd"><svg width="100%" height="100%" viewBox="0 0 128 128" version="1.1" xmlns="http://www.w3.org/2000/svg" xmlns:xlink="http://www.w3.org/1999/xlink" xml:space="preserve" xmlns:serif="http://www.serif.com/" style="fill-rule:evenodd;clip-rule:evenodd;stroke-linejoin:round;stroke-miterlimit:1.41421;"><rect id="device-tablet" x="0" y="0" width="128" height="128" style="fill:none;"/><clipPath id="_clip1"><rect id="device-tablet1" serif:id="device-tablet" x="0" y="0" width="128" height="128"/></clipPath><g clip-path="url(#_clip1)"><path id="_-Curve-" serif:id="(Curve)" d="M110.358,104l-92.716,0c-0.094,0 -0.183,-0.022 -0.263,-0.06c-0.007,-0.004 -0.015,-0.008 -0.022,-0.012l-0.006,-0.003l-0.013,-0.007c-0.183,-0.107 -0.307,-0.308 -0.307,-0.539l0,-54.758c0,-0.006 0,-0.011 0,-0.016l0,0l0,-0.006l0.001,-0.01l0,0l0,0l0,-0.008l0.001,-0.008l0,0l0,0l0.001,-0.009l0,-0.007l0,0l0,0l0.001,-0.01l0.001,-0.005l0,0l0,0l0.002,-0.013l0,-0.003l0,0l0,0l0.003,-0.015l0,0c0.051,-0.29 0.301,-0.511 0.601,-0.511l92.716,0c0.3,0 0.55,0.221 0.601,0.511l0.003,0.015l0.002,0.016l0.002,0.015l0.001,0.016l0.001,0.016l0.001,0.016l0,0.016c0,0 0,54.758 0,54.758c0,0.029 -0.002,0.058 -0.006,0.086l-0.001,0.009l-0.003,0.015c-0.007,0.042 -0.018,0.082 -0.034,0.121c-0.063,0.16 -0.19,0.288 -0.349,0.349c-0.015,0.006 -0.031,0.011 -0.046,0.016l-0.005,0.001l-0.013,0.004c-0.009,0.002 -0.019,0.005 -0.029,0.007c-0.04,0.008 -0.082,0.013 -0.125,0.013Zm-6.061,-5.85l0,-44.3l-80.6,0l0,44.3l80.6,0Zm-85.579,-0.201c0.531,0 0.961,0.427 0.961,0.953c0,0.527 -0.43,0.954 -0.961,0.954c-0.53,0 -0.961,-0.427 -0.961,-0.954c0,-0.526 0.431,-0.953 0.961,-0.953Z"/></g></svg>