<?xml version="1.0" encoding="UTF-8" standalone="no"?><!DOCTYPE svg PUBLIC "-//W3C//DTD SVG 1.1//EN" "http://www.w3.org/Graphics/SVG/1.1/DTD/svg11.dtd"><svg width="100%" height="100%" viewBox="0 0 128 128" version="1.1" xmlns="http://www.w3.org/2000/svg" xmlns:xlink="http://www.w3.org/1999/xlink" xml:space="preserve" xmlns:serif="http://www.serif.com/" style="fill-rule:evenodd;clip-rule:evenodd;stroke-linejoin:round;stroke-miterlimit:1.41421;"><rect id="facebook" x="0" y="0" width="128" height="128" style="fill:none;"/><clipPath id="_clip1"><rect id="facebook1" serif:id="facebook" x="0" y="0" width="128" height="128"/></clipPath><g clip-path="url(#_clip1)"><path d="M108.483,14l-88.966,0c-3.046,0 -5.517,2.471 -5.517,5.517l0,88.966c0,3.05 2.471,5.517 5.517,5.517l47.891,0l0,-38.725l-13.037,0l0,-15.088l13.037,0l0,-11.145c0,-12.913 7.892,-19.938 19.413,-19.938c5.521,0 10.267,0.404 11.65,0.588l0,13.5l-8.004,0c-6.25,0 -7.467,3.004 -7.467,7.379l0,9.629l14.933,0l-1.937,15.125l-12.996,0l0,38.675l25.479,0c3.054,0 5.521,-2.467 5.521,-5.517l0,-88.966c0,-3.046 -2.467,-5.517 -5.517,-5.517l0,0Z" style="fill-rule:nonzero;"/></g></svg>