<?xml version="1.0" encoding="UTF-8" standalone="no"?><!DOCTYPE svg PUBLIC "-//W3C//DTD SVG 1.1//EN" "http://www.w3.org/Graphics/SVG/1.1/DTD/svg11.dtd"><svg width="100%" height="100%" viewBox="0 0 128 128" version="1.1" xmlns="http://www.w3.org/2000/svg" xmlns:xlink="http://www.w3.org/1999/xlink" xml:space="preserve" xmlns:serif="http://www.serif.com/" style="fill-rule:evenodd;clip-rule:evenodd;stroke-linejoin:round;stroke-miterlimit:1.41421;"><rect id="file-audio" x="0" y="0" width="128" height="128" style="fill:none;"/><clipPath id="_clip1"><rect id="file-audio1" serif:id="file-audio" x="0" y="0" width="128" height="128"/></clipPath><g clip-path="url(#_clip1)"><path d="M112,28l-24,-24l-72,0l0,120l96,0l0,-96Zm-47.299,25.509l-0.003,-0.014l13.151,-3.495c0.62,2.742 1.24,5.484 1.86,8.227l-12.461,3.312l-1.644,29.47c-0.101,3.379 -3.537,6.406 -8.017,6.917c-4.765,0.543 -8.92,-1.964 -9.272,-5.596c-0.352,-3.632 3.23,-7.021 7.995,-7.564c2.494,-0.284 4.82,0.267 6.521,1.377l1.821,-32.637l0.049,0.003Zm25.935,-28.469l-1,-18l19.215,19.216l-18.215,-1.216Z"/></g></svg>