<?xml version="1.0" encoding="UTF-8" standalone="no"?><!DOCTYPE svg PUBLIC "-//W3C//DTD SVG 1.1//EN" "http://www.w3.org/Graphics/SVG/1.1/DTD/svg11.dtd"><svg width="100%" height="100%" viewBox="0 0 128 128" version="1.1" xmlns="http://www.w3.org/2000/svg" xmlns:xlink="http://www.w3.org/1999/xlink" xml:space="preserve" xmlns:serif="http://www.serif.com/" style="fill-rule:evenodd;clip-rule:evenodd;stroke-linejoin:round;stroke-miterlimit:1.41421;"><rect id="file-image" x="0" y="0" width="128" height="128" style="fill:none;"/><clipPath id="_clip1"><rect id="file-image1" serif:id="file-image" x="0" y="0" width="128" height="128"/></clipPath><g clip-path="url(#_clip1)"><path d="M112,28l-24,-24l-72,0l0,120l96,0l0,-96Zm-18.623,70c0.68,-0.054 0.861,-0.191 0.918,-0.918l0,-46.164c-0.048,-0.617 -0.124,-0.75 -0.774,-0.907c-0.048,-0.003 -0.096,-0.007 -0.144,-0.011l-58.754,0c-0.68,0.053 -0.861,0.191 -0.918,0.918l0,46.164c0.053,0.68 0.191,0.861 0.918,0.918l58.754,0Zm-0.918,-46.164l0,44.328l-56.918,0l0,-44.328l56.918,0Zm-2.229,42.63c-5.204,-6.856 -14.896,-23.814 -22.838,-11.108c-7.441,-23.617 -29.163,-7.508 -29.622,10.88l33.324,0.228l19.136,0Zm-18.825,-38.351c4.087,0 7.406,3.313 7.406,7.393c0,4.081 -3.319,7.393 -7.406,7.393c-4.087,0 -7.405,-3.312 -7.405,-7.393c0,-4.08 3.318,-7.393 7.405,-7.393Zm19.231,-31.075l-1,-18l19.215,19.216l-18.215,-1.216Z"/></g></svg>