<?xml version="1.0" encoding="UTF-8" standalone="no"?><!DOCTYPE svg PUBLIC "-//W3C//DTD SVG 1.1//EN" "http://www.w3.org/Graphics/SVG/1.1/DTD/svg11.dtd"><svg width="100%" height="100%" viewBox="0 0 128 128" version="1.1" xmlns="http://www.w3.org/2000/svg" xmlns:xlink="http://www.w3.org/1999/xlink" xml:space="preserve" xmlns:serif="http://www.serif.com/" style="fill-rule:evenodd;clip-rule:evenodd;stroke-linejoin:round;stroke-miterlimit:1.41421;"><rect id="github" x="0" y="0" width="128" height="128" style="fill:none;"/><clipPath id="_clip1"><rect id="github1" serif:id="github" x="0" y="0" width="128" height="128"/></clipPath><g clip-path="url(#_clip1)"><path d="M64,15.238c-27.625,0 -50,22.388 -50,50c0,22.096 14.325,40.833 34.188,47.438c2.5,0.47 3.416,-1.075 3.416,-2.405c0,-1.187 -0.041,-4.333 -0.062,-8.5c-13.909,3.017 -16.842,-6.708 -16.842,-6.708c-2.275,-5.771 -5.562,-7.312 -5.562,-7.312c-4.53,-3.1 0.35,-3.038 0.35,-3.038c5.02,0.35 7.658,5.15 7.658,5.15c4.458,7.646 11.704,5.438 14.562,4.158c0.45,-3.233 1.738,-5.437 3.167,-6.687c-11.104,-1.25 -22.775,-5.55 -22.775,-24.708c0,-5.459 1.938,-9.917 5.146,-13.417c-0.563,-1.263 -2.25,-6.346 0.437,-13.233c0,0 4.188,-1.342 13.75,5.125c4,-1.113 8.25,-1.663 12.5,-1.688c4.25,0.025 8.5,0.575 12.5,1.688c9.5,-6.467 13.688,-5.125 13.688,-5.125c2.687,6.887 1,11.97 0.5,13.233c3.187,3.5 5.125,7.958 5.125,13.417c0,19.208 -11.688,23.437 -22.813,24.666c1.75,1.5 3.375,4.567 3.375,9.25c0,6.692 -0.062,12.067 -0.062,13.692c0,1.312 0.875,2.875 3.437,2.375c20.005,-6.558 34.317,-25.308 34.317,-47.371c0,-27.612 -22.387,-50 -50,-50l0,0Z" style="fill-rule:nonzero;"/></g></svg>