<?xml version="1.0" encoding="UTF-8" standalone="no"?><!DOCTYPE svg PUBLIC "-//W3C//DTD SVG 1.1//EN" "http://www.w3.org/Graphics/SVG/1.1/DTD/svg11.dtd"><svg width="100%" height="100%" viewBox="0 0 128 128" version="1.1" xmlns="http://www.w3.org/2000/svg" xmlns:xlink="http://www.w3.org/1999/xlink" xml:space="preserve" xmlns:serif="http://www.serif.com/" style="fill-rule:evenodd;clip-rule:evenodd;stroke-linejoin:round;stroke-miterlimit:1.41421;"><rect id="google-plus" x="0" y="0" width="128" height="128" style="fill:none;"/><clipPath id="_clip1"><rect id="google-plus1" serif:id="google-plus" x="0" y="0" width="128" height="128"/></clipPath><g clip-path="url(#_clip1)"><path d="M45.813,59.45l0,10.912l18.062,0c-0.721,4.688 -5.458,13.73 -18.046,13.73c-10.85,0 -19.712,-9 -19.712,-20.096c0,-11.092 8.841,-20.092 19.7,-20.092c6.187,0 10.329,2.638 12.687,4.908l8.638,-8.308c-5.542,-5.187 -12.734,-8.312 -21.313,-8.312c-17.612,-0.009 -31.829,14.241 -31.829,31.804c0,17.562 14.225,31.812 31.813,31.812c18.375,0 30.55,-12.908 30.55,-31.087c0,-2.088 -0.225,-3.688 -0.5,-5.271l-30.05,0l0,0Zm68.187,0l-9.096,0l0,-9.096l-9.096,0l0,9.096l-9.091,0l0,9.087l9.1,0l0,9.1l9.121,0l0,-9.1l9.062,0l0,-9.087Z" style="fill-rule:nonzero;"/></g></svg>