<?xml version="1.0" encoding="UTF-8" standalone="no"?><!DOCTYPE svg PUBLIC "-//W3C//DTD SVG 1.1//EN" "http://www.w3.org/Graphics/SVG/1.1/DTD/svg11.dtd"><svg width="100%" height="100%" viewBox="0 0 128 128" version="1.1" xmlns="http://www.w3.org/2000/svg" xmlns:xlink="http://www.w3.org/1999/xlink" xml:space="preserve" xmlns:serif="http://www.serif.com/" style="fill-rule:evenodd;clip-rule:evenodd;stroke-linejoin:round;stroke-miterlimit:1.41421;"><rect id="google-hangout" x="0" y="0" width="128" height="128" style="fill:none;"/><clipPath id="_clip1"><rect id="google-hangout1" serif:id="google-hangout" x="0" y="0" width="128" height="128"/></clipPath><g clip-path="url(#_clip1)"><path d="M64,14c-24.167,0 -43.75,19.583 -43.75,43.75c0,22.917 20.833,41.667 43.75,41.667l0,14.583c26.458,-12.917 43.75,-34.167 43.75,-56.25c0,-24.167 -19.583,-43.75 -43.75,-43.75Zm-2.083,50c0,5.833 -3.75,10.417 -8.334,10.417l0,-10.417l-10.416,0l0,-18.75l18.75,0l0,18.75Zm25,0c0,5.833 -3.75,10.417 -8.334,10.417l0,-10.417l-10.416,0l0,-18.75l18.75,0l0,18.75Z" style="fill-rule:nonzero;"/></g></svg>