<?xml version="1.0" encoding="UTF-8" standalone="no"?><!DOCTYPE svg PUBLIC "-//W3C//DTD SVG 1.1//EN" "http://www.w3.org/Graphics/SVG/1.1/DTD/svg11.dtd"><svg width="100%" height="100%" viewBox="0 0 128 128" version="1.1" xmlns="http://www.w3.org/2000/svg" xmlns:xlink="http://www.w3.org/1999/xlink" xml:space="preserve" xmlns:serif="http://www.serif.com/" style="fill-rule:evenodd;clip-rule:evenodd;stroke-linejoin:round;stroke-miterlimit:1.41421;"><rect id="image" x="0" y="0" width="128" height="128" style="fill:none;"/><clipPath id="_clip1"><rect id="image1" serif:id="image" x="0" y="0" width="128" height="128"/></clipPath><g clip-path="url(#_clip1)"><path d="M112,103.214l-96,0c-1.188,-0.093 -1.413,-0.389 -1.5,-1.5l0,-75.428c0.094,-1.189 0.389,-1.413 1.5,-1.5l96,0c0.078,0.006 0.156,0.012 0.235,0.018c1.063,0.255 1.186,0.473 1.265,1.482l0,75.428c-0.094,1.188 -0.389,1.413 -1.5,1.5Zm-1.5,-75.428l-93,0l0,72.428l93,0l0,-72.428Zm-3.643,69.654l-31.266,0l-54.448,-0.372c0.75,-30.045 36.242,-56.366 48.399,-17.778c12.976,-20.76 28.813,6.947 37.315,18.15Zm-30.757,-62.663c6.678,0 12.099,5.413 12.099,12.08c0,6.667 -5.421,12.08 -12.099,12.08c-6.678,0 -12.1,-5.413 -12.1,-12.08c0,-6.667 5.422,-12.08 12.1,-12.08Z"/></g></svg>