<?xml version="1.0" encoding="UTF-8" standalone="no"?><!DOCTYPE svg PUBLIC "-//W3C//DTD SVG 1.1//EN" "http://www.w3.org/Graphics/SVG/1.1/DTD/svg11.dtd"><svg width="100%" height="100%" viewBox="0 0 128 128" version="1.1" xmlns="http://www.w3.org/2000/svg" xmlns:xlink="http://www.w3.org/1999/xlink" xml:space="preserve" xmlns:serif="http://www.serif.com/" style="fill-rule:evenodd;clip-rule:evenodd;stroke-linejoin:round;stroke-miterlimit:1.41421;"><rect id="instagram" x="0" y="0" width="128" height="128" style="fill:none;"/><clipPath id="_clip1"><rect id="instagram1" serif:id="instagram" x="0" y="0" width="128" height="128"/></clipPath><g clip-path="url(#_clip1)"><path d="M64,14c-13.583,0 -15.279,0.062 -20.612,0.3c-5.325,0.25 -8.95,1.087 -12.138,2.325c-3.287,1.275 -6.079,2.987 -8.858,5.767c-2.779,2.779 -4.496,5.566 -5.767,8.858c-1.237,3.187 -2.079,6.812 -2.325,12.137c-0.25,5.334 -0.3,7.03 -0.3,20.613c0,13.583 0.063,15.279 0.3,20.612c0.25,5.321 1.088,8.95 2.325,12.138c1.275,3.283 2.988,6.079 5.767,8.858c2.779,2.775 5.566,4.496 8.858,5.767c3.192,1.233 6.817,2.079 12.138,2.325c5.333,0.25 7.029,0.3 20.612,0.3c13.583,0 15.279,-0.063 20.613,-0.3c5.32,-0.25 8.95,-1.092 12.137,-2.325c3.283,-1.275 6.079,-2.992 8.858,-5.767c2.775,-2.779 4.496,-5.562 5.767,-8.858c1.233,-3.188 2.079,-6.817 2.325,-12.138c0.25,-5.333 0.3,-7.029 0.3,-20.612c0,-13.583 -0.062,-15.279 -0.3,-20.613c-0.25,-5.32 -1.092,-8.954 -2.325,-12.137c-1.275,-3.288 -2.992,-6.079 -5.767,-8.858c-2.779,-2.78 -5.562,-4.496 -8.858,-5.767c-3.187,-1.238 -6.817,-2.079 -12.137,-2.325c-5.334,-0.25 -7.03,-0.3 -20.613,-0.3Zm0,9c13.346,0 14.938,0.067 20.208,0.296c4.875,0.229 7.521,1.037 9.28,1.729c2.341,0.904 4,1.987 5.758,3.733c1.746,1.75 2.829,3.413 3.733,5.754c0.683,1.759 1.5,4.405 1.721,9.28c0.237,5.275 0.292,6.858 0.292,20.208c0,13.35 -0.063,14.937 -0.309,20.208c-0.254,4.875 -1.066,7.521 -1.754,9.279c-0.933,2.342 -1.996,4 -3.746,5.759c-1.745,1.746 -3.433,2.829 -5.75,3.733c-1.75,0.683 -4.437,1.5 -9.312,1.721c-5.308,0.237 -6.871,0.292 -20.246,0.292c-13.379,0 -14.942,-0.063 -20.246,-0.309c-4.879,-0.254 -7.566,-1.066 -9.316,-1.754c-2.371,-0.933 -4,-1.996 -5.746,-3.746c-1.754,-1.746 -2.875,-3.433 -3.75,-5.75c-0.688,-1.75 -1.496,-4.437 -1.75,-9.312c-0.188,-5.25 -0.254,-6.871 -0.254,-20.184c0,-13.316 0.066,-14.941 0.254,-20.254c0.254,-4.875 1.062,-7.558 1.75,-9.308c0.875,-2.375 1.996,-4 3.75,-5.754c1.746,-1.746 3.375,-2.871 5.746,-3.742c1.75,-0.692 4.379,-1.504 9.254,-1.754c5.312,-0.188 6.875,-0.25 20.246,-0.25l0.187,0.125l0,0Zm0,15.325c-14.187,0 -25.675,11.5 -25.675,25.675c0,14.187 11.5,25.675 25.675,25.675c14.188,0 25.675,-11.5 25.675,-25.675c0,-14.188 -11.5,-25.675 -25.675,-25.675Zm0,42.342c-9.208,0 -16.667,-7.459 -16.667,-16.667c0,-9.208 7.459,-16.667 16.667,-16.667c9.208,0 16.667,7.459 16.667,16.667c0,9.208 -7.459,16.667 -16.667,16.667Zm32.692,-43.355c0,3.313 -2.692,6 -6,6c-3.313,0 -6,-2.691 -6,-6c0,-3.308 2.691,-5.995 6,-5.995c3.304,-0.005 6,2.687 6,5.995Z" style="fill-rule:nonzero;"/></g></svg>