<?xml version="1.0" encoding="UTF-8" standalone="no"?><!DOCTYPE svg PUBLIC "-//W3C//DTD SVG 1.1//EN" "http://www.w3.org/Graphics/SVG/1.1/DTD/svg11.dtd"><svg width="100%" height="100%" viewBox="0 0 128 128" version="1.1" xmlns="http://www.w3.org/2000/svg" xmlns:xlink="http://www.w3.org/1999/xlink" xml:space="preserve" xmlns:serif="http://www.serif.com/" style="fill-rule:evenodd;clip-rule:evenodd;stroke-linejoin:round;stroke-miterlimit:1.41421;"><rect id="linkedin" x="0" y="0" width="128" height="128" style="fill:none;"/><clipPath id="_clip1"><rect id="linkedin1" serif:id="linkedin" x="0" y="0" width="128" height="128"/></clipPath><g clip-path="url(#_clip1)"><path d="M99.196,99.217l-14.808,0l0,-23.205c0,-5.533 -0.113,-12.654 -7.717,-12.654c-7.721,0 -8.9,6.021 -8.9,12.246l0,23.613l-14.808,0l0,-47.717l14.225,0l0,6.504l0.191,0c1.988,-3.75 6.821,-7.708 14.042,-7.708c15.004,0 17.779,9.875 17.779,22.729l0,26.192l-0.004,0Zm-62.958,-54.246c-4.767,0 -8.596,-3.859 -8.596,-8.604c0,-4.742 3.833,-8.596 8.596,-8.596c4.75,0 8.6,3.854 8.6,8.596c0,4.745 -3.855,8.604 -8.6,8.604Zm7.425,54.246l-14.85,0l0,-47.717l14.85,0l0,47.717Zm62.941,-85.217l-85.225,0c-4.079,0 -7.379,3.225 -7.379,7.204l0,85.592c0,3.983 3.3,7.204 7.379,7.204l85.213,0c4.075,0 7.408,-3.221 7.408,-7.204l0,-85.592c0,-3.979 -3.333,-7.204 -7.408,-7.204l0.012,0Z" style="fill-rule:nonzero;"/></g></svg>