<?xml version="1.0" encoding="UTF-8" standalone="no"?><!DOCTYPE svg PUBLIC "-//W3C//DTD SVG 1.1//EN" "http://www.w3.org/Graphics/SVG/1.1/DTD/svg11.dtd"><svg width="100%" height="100%" viewBox="0 0 128 128" version="1.1" xmlns="http://www.w3.org/2000/svg" xmlns:xlink="http://www.w3.org/1999/xlink" xml:space="preserve" xmlns:serif="http://www.serif.com/" style="fill-rule:evenodd;clip-rule:evenodd;stroke-linejoin:round;stroke-miterlimit:1.41421;"><rect id="mail" x="0" y="0" width="128" height="128" style="fill:none;"/><clipPath id="_clip1"><rect id="mail1" serif:id="mail" x="0" y="0" width="128" height="128"/></clipPath><g clip-path="url(#_clip1)"><path d="M104.893,28.001c3.721,0.07 7.035,3.342 7.106,7.106c0.123,19.262 0.123,38.524 0,57.786c-0.07,3.713 -3.339,7.035 -7.106,7.106c-27.261,0.173 -54.525,0.173 -81.786,0c-3.721,-0.07 -7.035,-3.342 -7.106,-7.106c-0.123,-19.262 -0.123,-38.524 0,-57.786c0.07,-3.713 3.339,-7.035 7.106,-7.106c27.261,-0.173 54.525,-0.173 81.786,0Zm-40.907,46.026l-41.991,-38c-0.115,18.918 0.005,37.836 0.005,56.754c0,0.643 0.547,1.207 1.185,1.219c27.198,0.175 54.397,0 81.596,0c0.65,0 1.207,-0.551 1.219,-1.182c0.123,-19.053 0.002,-38.107 0,-57.161l-42.014,38.37Zm39.389,-40.035c-26.382,-0.159 -52.766,0.004 -79.149,0.008l39.751,35.973l39.398,-35.981Z"/></g></svg>