<?xml version="1.0" encoding="UTF-8" standalone="no"?><!DOCTYPE svg PUBLIC "-//W3C//DTD SVG 1.1//EN" "http://www.w3.org/Graphics/SVG/1.1/DTD/svg11.dtd"><svg width="100%" height="100%" viewBox="0 0 128 128" version="1.1" xmlns="http://www.w3.org/2000/svg" xmlns:xlink="http://www.w3.org/1999/xlink" xml:space="preserve" xmlns:serif="http://www.serif.com/" style="fill-rule:evenodd;clip-rule:evenodd;stroke-linejoin:round;stroke-miterlimit:1.41421;"><rect id="messenger" x="0" y="0" width="128" height="128" style="fill:none;"/><clipPath id="_clip1"><rect id="messenger1" serif:id="messenger" x="0" y="0" width="128" height="128"/></clipPath><g clip-path="url(#_clip1)"><path d="M64,14c-27.612,0 -50,20.725 -50,46.296c0,14.575 7.267,27.558 18.621,36.058l0,17.646l17.033,-9.342c4.55,1.25 9.358,1.934 14.346,1.934c27.612,0 50,-20.73 50,-46.292c0,-25.563 -22.388,-46.3 -50,-46.3l0,0Zm4.963,62.346l-12.73,-13.583l-24.845,13.583l27.329,-29.013l13.046,13.58l24.537,-13.58l-27.337,29.013Z" style="fill-rule:nonzero;"/></g></svg>