<?xml version="1.0" encoding="UTF-8" standalone="no"?><!DOCTYPE svg PUBLIC "-//W3C//DTD SVG 1.1//EN" "http://www.w3.org/Graphics/SVG/1.1/DTD/svg11.dtd"><svg width="100%" height="100%" viewBox="0 0 128 128" version="1.1" xmlns="http://www.w3.org/2000/svg" xmlns:xlink="http://www.w3.org/1999/xlink" xml:space="preserve" xmlns:serif="http://www.serif.com/" style="fill-rule:evenodd;clip-rule:evenodd;stroke-linejoin:round;stroke-miterlimit:1.41421;"><rect id="print" x="0" y="0" width="128" height="128" style="fill:none;"/><clipPath id="_clip1"><rect id="print1" serif:id="print" x="0" y="0" width="128" height="128"/></clipPath><g clip-path="url(#_clip1)"><path d="M32.195,32c1.201,-7.645 7.824,-13.5 15.805,-13.5l32,0c7.98,0 14.603,5.855 15.805,13.5l1.171,0c3.931,0 7.486,1.624 10.03,4.236c1.06,0.614 2.031,1.363 2.892,2.224c2.534,2.534 4.102,6.034 4.102,9.897l0,28c0,7.727 -6.273,14 -14,14l-6.062,0c-1.408,2.491 -3.464,4.567 -5.938,5.999l0,13.144l-48,0l0,-13.144c-2.474,-1.432 -4.53,-3.508 -5.938,-5.999l-6.062,0c-7.727,0 -14,-6.273 -14,-14l0,-28c0,-4.005 1.686,-7.62 4.386,-10.173c2.516,-3.729 6.78,-6.184 11.614,-6.184l2.195,0Zm52.805,58.357l-42,0l0,16.143l42,0l0,-16.143Zm-45,-68.857l0,10.5l48,0l0,-10.5l-48,0Z"/></g></svg>