<?xml version="1.0" encoding="UTF-8" standalone="no"?><!DOCTYPE svg PUBLIC "-//W3C//DTD SVG 1.1//EN" "http://www.w3.org/Graphics/SVG/1.1/DTD/svg11.dtd"><svg width="100%" height="100%" viewBox="0 0 128 128" version="1.1" xmlns="http://www.w3.org/2000/svg" xmlns:xlink="http://www.w3.org/1999/xlink" xml:space="preserve" xmlns:serif="http://www.serif.com/" style="fill-rule:evenodd;clip-rule:evenodd;stroke-linejoin:round;stroke-miterlimit:1.41421;"><rect id="question" x="0" y="0" width="128" height="128" style="fill:none;"/><clipPath id="_clip1"><rect id="question1" serif:id="question" x="0" y="0" width="128" height="128"/></clipPath><g clip-path="url(#_clip1)"><g><circle cx="61.16" cy="104.5" r="7.5"/><path d="M53.285,71.559l-0.039,-0.263c8.423,-1.244 17.231,-3.513 22.175,-10.135c3.067,-4.106 4.19,-9.782 1.743,-14.63c-4.13,-8.182 -16.144,-11.004 -25.159,-7.039c0,0 -2.805,1.713 -4.834,3.876c0,0 -4.222,4.681 -4.222,4.681l-8.913,-8.034l4.171,-4.628c0.884,-0.959 1.037,-1.089 1.548,-1.572c1.932,-1.826 4.058,-3.451 6.35,-4.781c0,0 5.535,-2.513 10.514,-3.102c1.377,-0.163 2.758,-0.236 4.151,-0.231c12.567,0.103 25.525,7.421 28.85,20.006c1.772,6.708 0.752,14.018 -2.898,20.121c-4.004,6.696 -10.563,11.62 -17.79,14.364l-3.137,9.489l-10.784,0.019l-1.829,-18.152l0.103,0.011Z"/></g></g></svg>