<?xml version="1.0" encoding="UTF-8" standalone="no"?><!DOCTYPE svg PUBLIC "-//W3C//DTD SVG 1.1//EN" "http://www.w3.org/Graphics/SVG/1.1/DTD/svg11.dtd"><svg width="100%" height="100%" viewBox="0 0 128 128" version="1.1" xmlns="http://www.w3.org/2000/svg" xmlns:xlink="http://www.w3.org/1999/xlink" xml:space="preserve" xmlns:serif="http://www.serif.com/" style="fill-rule:evenodd;clip-rule:evenodd;stroke-linejoin:round;stroke-miterlimit:1.41421;"><rect id="quotes-left" x="0" y="0" width="128" height="128" style="fill:none;"/><clipPath id="_clip1"><rect id="quotes-left1" serif:id="quotes-left" x="0" y="0" width="128" height="128"/></clipPath><g clip-path="url(#_clip1)"><g><path d="M8.534,32.494c4.591,-9.709 12.7,-18.528 23.107,-21.849c5.958,-1.902 12.543,-2.866 19.104,-2.851c2.735,-0.212 8.439,1.005 8.549,1.168l0,11.526c0.018,0.014 0.019,0.028 0,0.04l0,-0.04c-0.37,-0.291 -7.966,-1.042 -9.427,-0.973c-0.025,0.002 -0.04,-0.003 -0.045,-0.003c-12.347,0.237 -21.43,6.745 -24.627,15.071c-0.03,0.08 -0.06,0.159 -0.09,0.239c0.43,0.864 0.833,1.79 1.207,2.771c1.811,-0.382 3.689,-0.582 5.612,-0.582c15.106,0 27.37,12.371 27.37,27.61c0,15.238 -12.264,27.61 -27.37,27.61c-9.513,0 -17.899,-4.906 -22.804,-12.345c-3.678,-5.066 -6.12,-13.981 -6.12,-24.124c0,-9.594 2.185,-18.089 5.534,-23.268Z"/><path d="M74.227,32.494c4.59,-9.709 12.7,-18.528 23.106,-21.849c5.959,-1.902 12.543,-2.866 19.104,-2.851c2.735,-0.212 8.44,1.005 8.549,1.168l0,11.526c0.018,0.014 0.019,0.028 0,0.04l0,-0.04c-0.369,-0.291 -7.965,-1.042 -9.427,-0.973c-0.025,0.002 -0.04,-0.003 -0.045,-0.003c-12.347,0.237 -21.43,6.745 -24.626,15.071c-0.031,0.08 -0.061,0.159 -0.09,0.239c0.429,0.864 0.833,1.79 1.206,2.771c1.812,-0.382 3.689,-0.582 5.612,-0.582c15.106,0 27.37,12.371 27.37,27.61c0,15.238 -12.264,27.61 -27.37,27.61c-9.513,0 -17.898,-4.906 -22.804,-12.345c-3.677,-5.066 -6.12,-13.981 -6.12,-24.124c0,-9.594 2.186,-18.089 5.535,-23.268Z"/></g></g></svg>