<?xml version="1.0" encoding="UTF-8" standalone="no"?><!DOCTYPE svg PUBLIC "-//W3C//DTD SVG 1.1//EN" "http://www.w3.org/Graphics/SVG/1.1/DTD/svg11.dtd"><svg width="100%" height="100%" viewBox="0 0 128 128" version="1.1" xmlns="http://www.w3.org/2000/svg" xmlns:xlink="http://www.w3.org/1999/xlink" xml:space="preserve" xmlns:serif="http://www.serif.com/" style="fill-rule:evenodd;clip-rule:evenodd;stroke-linejoin:round;stroke-miterlimit:1.41421;"><rect id="quotes-right" x="0" y="0" width="128" height="128" style="fill:none;"/><clipPath id="_clip1"><rect id="quotes-right1" serif:id="quotes-right" x="0" y="0" width="128" height="128"/></clipPath><g clip-path="url(#_clip1)"><g><path d="M119.466,95.276c-4.591,9.708 -12.7,18.527 -23.107,21.849c-5.958,1.902 -12.543,2.865 -19.104,2.85c-2.735,0.213 -8.439,-1.004 -8.549,-1.168l0,-11.526c-0.018,-0.014 -0.019,-0.027 0,-0.039l0,0.039c0.37,0.291 7.966,1.042 9.427,0.973c0.025,-0.001 0.04,0.003 0.045,0.003c12.347,-0.236 21.43,-6.745 24.627,-15.071c0.03,-0.079 0.06,-0.159 0.09,-0.238c-0.43,-0.865 -0.833,-1.791 -1.207,-2.772c-1.811,0.382 -3.689,0.582 -5.612,0.582c-15.106,0 -27.37,-12.371 -27.37,-27.61c0,-15.238 12.264,-27.61 27.37,-27.61c9.513,0 17.899,4.906 22.804,12.345c3.678,5.066 6.12,13.981 6.12,24.124c0,9.594 -2.185,18.09 -5.534,23.269Z"/><path d="M53.773,95.276c-4.59,9.708 -12.7,18.527 -23.106,21.849c-5.959,1.902 -12.543,2.865 -19.104,2.85c-2.735,0.213 -8.44,-1.004 -8.549,-1.168l0,-11.526c-0.018,-0.014 -0.019,-0.027 0,-0.039l0,0.039c0.369,0.291 7.965,1.042 9.427,0.973c0.025,-0.001 0.04,0.003 0.045,0.003c12.347,-0.236 21.43,-6.745 24.626,-15.071c0.031,-0.079 0.061,-0.159 0.09,-0.238c-0.429,-0.865 -0.833,-1.791 -1.206,-2.772c-1.812,0.382 -3.689,0.582 -5.612,0.582c-15.106,0 -27.37,-12.371 -27.37,-27.61c0,-15.238 12.264,-27.61 27.37,-27.61c9.513,0 17.898,4.906 22.804,12.345c3.677,5.066 6.12,13.981 6.12,24.124c0,9.594 -2.186,18.09 -5.535,23.269Z"/></g></g></svg>