<?xml version="1.0" encoding="UTF-8" standalone="no"?><!DOCTYPE svg PUBLIC "-//W3C//DTD SVG 1.1//EN" "http://www.w3.org/Graphics/SVG/1.1/DTD/svg11.dtd"><svg width="100%" height="100%" viewBox="0 0 128 128" version="1.1" xmlns="http://www.w3.org/2000/svg" xmlns:xlink="http://www.w3.org/1999/xlink" xml:space="preserve" xmlns:serif="http://www.serif.com/" style="fill-rule:evenodd;clip-rule:evenodd;stroke-linejoin:round;stroke-miterlimit:1.41421;"><rect id="round" x="0" y="0" width="128" height="128" style="fill:none;"/><clipPath id="_clip1"><rect id="round1" serif:id="round" x="0" y="0" width="128" height="128"/></clipPath><g clip-path="url(#_clip1)"><path d="M64.394,3.001c22.036,0.21 43.336,13.165 53.588,32.583c8.785,16.642 9.257,37.457 1.159,54.518c-11.413,24.044 -39.531,39.014 -66.682,33.806c-24.896,-4.776 -45.555,-26.602 -48.919,-51.762c-2.573,-19.247 4.671,-39.535 18.915,-52.796c11.064,-10.3 26.008,-16.205 41.151,-16.349c0.263,-0.001 0.525,-0.001 0.788,0Zm-0.731,9c-25.069,0.243 -48.534,20.264 -51.36,46.351c-2.745,25.348 15.608,51.515 41.533,56.655c21.206,4.204 44.474,-6.372 55.277,-25.143c8.102,-14.078 9.044,-32.081 2.424,-46.961c-8.063,-18.124 -27.17,-30.708 -47.199,-30.902c-0.225,-0.001 -0.45,-0.001 -0.675,0Z" style="fill-rule:nonzero;"/></g></svg>