<?xml version="1.0" encoding="UTF-8" standalone="no"?><!DOCTYPE svg PUBLIC "-//W3C//DTD SVG 1.1//EN" "http://www.w3.org/Graphics/SVG/1.1/DTD/svg11.dtd"><svg width="100%" height="100%" viewBox="0 0 128 128" version="1.1" xmlns="http://www.w3.org/2000/svg" xmlns:xlink="http://www.w3.org/1999/xlink" xml:space="preserve" xmlns:serif="http://www.serif.com/" style="fill-rule:evenodd;clip-rule:evenodd;stroke-linejoin:round;stroke-miterlimit:1.41421;"><rect id="settings" x="0" y="0" width="128" height="128" style="fill:none;"/><clipPath id="_clip1"><rect id="settings1" serif:id="settings" x="0" y="0" width="128" height="128"/></clipPath><g clip-path="url(#_clip1)"><path d="M72.656,15.137c-5.727,-1.007 -11.585,-1.007 -17.312,0c0.656,4.1 1.348,8.194 2.075,12.281c-4.271,0.761 -8.377,2.256 -12.138,4.418c-2.07,-3.599 -4.171,-7.18 -6.304,-10.742c-5.034,2.91 -9.522,6.676 -13.262,11.128c3.138,2.719 6.299,5.411 9.484,8.074c-2.783,3.328 -4.968,7.113 -6.458,11.187c-3.9,-1.427 -7.811,-2.819 -11.735,-4.177c-1.986,5.465 -3.003,11.235 -3.006,17.049c4.151,0.066 8.303,0.096 12.455,0.089c0.007,4.338 0.766,8.642 2.243,12.721c-3.904,1.414 -7.795,2.861 -11.674,4.343c1.992,5.463 4.921,10.537 8.657,14.993c3.222,-2.618 6.422,-5.264 9.598,-7.938c2.794,3.319 6.142,6.128 9.895,8.303c-2.082,3.592 -4.132,7.202 -6.151,10.831c5.037,2.904 10.543,4.908 16.268,5.921c0.786,-4.077 1.536,-8.161 2.25,-12.251c4.274,0.747 8.644,0.747 12.917,0c0.715,4.09 1.465,8.174 2.251,12.251c5.725,-1.013 11.231,-3.017 16.268,-5.921c-2.019,-3.629 -4.069,-7.239 -6.151,-10.831c3.753,-2.175 7.101,-4.984 9.895,-8.303c3.176,2.674 6.376,5.32 9.598,7.938c3.736,-4.456 6.665,-9.53 8.656,-14.993c-3.878,-1.482 -7.769,-2.929 -11.673,-4.343c1.477,-4.079 2.236,-8.383 2.243,-12.721c4.152,0.007 8.304,-0.023 12.455,-0.089c-0.003,-5.814 -1.02,-11.584 -3.006,-17.049c-3.924,1.358 -7.835,2.75 -11.735,4.177c-1.49,-4.074 -3.675,-7.859 -6.458,-11.187c3.185,-2.663 6.346,-5.355 9.484,-8.074c-3.74,-4.452 -8.228,-8.218 -13.262,-11.128c-2.133,3.562 -4.234,7.143 -6.304,10.742c-3.761,-2.162 -7.867,-3.657 -12.138,-4.418c0.727,-4.087 1.419,-8.181 2.075,-12.281Zm-8.656,34.12c8.348,0 15.125,6.777 15.125,15.125c0,8.348 -6.777,15.126 -15.125,15.126c-8.348,0 -15.125,-6.778 -15.125,-15.126c0,-8.348 6.777,-15.125 15.125,-15.125Z"/></g></svg>