<?xml version="1.0" encoding="UTF-8" standalone="no"?><!DOCTYPE svg PUBLIC "-//W3C//DTD SVG 1.1//EN" "http://www.w3.org/Graphics/SVG/1.1/DTD/svg11.dtd"><svg width="100%" height="100%" viewBox="0 0 128 128" version="1.1" xmlns="http://www.w3.org/2000/svg" xmlns:xlink="http://www.w3.org/1999/xlink" xml:space="preserve" xmlns:serif="http://www.serif.com/" style="fill-rule:evenodd;clip-rule:evenodd;stroke-linejoin:round;stroke-miterlimit:1.41421;"><rect id="skype" x="0" y="0" width="128" height="128" style="fill:none;"/><clipPath id="_clip1"><rect id="skype1" serif:id="skype" x="0" y="0" width="128" height="128"/></clipPath><g clip-path="url(#_clip1)"><path d="M64.29,92.468c-16.763,0 -24.25,-8.246 -24.25,-14.433c0,-3.188 2.337,-5.4 5.554,-5.4c7.179,0 5.304,10.32 18.696,10.32c6.837,0 10.625,-3.729 10.625,-7.545c0,-2.296 -1.121,-4.834 -5.642,-5.955l-14.9,-3.729c-12,-3.017 -14.179,-9.525 -14.179,-15.629c0,-12.696 11.921,-17.463 23.121,-17.463c10.295,0 22.47,5.721 22.47,13.33c0,3.266 -2.866,5.166 -6.054,5.166c-6.121,0 -4.992,-8.487 -17.35,-8.487c-6.121,0 -9.55,2.767 -9.55,6.737c0,3.971 4.804,5.242 8.988,6.196l10.987,2.446c12.046,2.704 15.1,9.775 15.1,16.433c0,10.317 -7.925,18.017 -23.842,18.017l0.226,-0.004Zm45.958,-20.338l-0.121,0.563l-0.183,-1c0.062,0.187 0.183,0.308 0.246,0.5c0.5,-2.813 0.754,-5.679 0.754,-8.55c0,-6.371 -1.254,-12.55 -3.742,-18.417c-2.371,-5.617 -5.812,-10.675 -10.112,-14.983c-4.371,-4.304 -9.363,-7.733 -14.98,-10.108c-5.491,-2.63 -11.67,-3.875 -18.033,-3.875c-3,0 -6.017,0.291 -8.929,0.85l0.496,0.25l-0.996,-0.138l0.496,-0.104c-4.017,-2.15 -8.521,-3.292 -13.096,-3.292c-7.454,0 -14.458,2.908 -19.733,8.196c-5.275,5.283 -8.18,12.317 -8.18,19.787c0,4.763 1.217,9.438 3.517,13.575l0.083,-0.516l0.171,0.996l-0.25,-0.48c-0.475,2.688 -0.716,5.413 -0.716,8.146c0,6.375 1.25,12.571 3.683,18.4c2.367,5.675 5.742,10.733 10.112,15.038c4.309,4.375 9.363,7.737 14.98,10.175c5.808,2.5 11.987,3.741 18.35,3.741c2.745,0 5.558,-0.25 8.237,-0.745l-0.496,-0.259l1,0.192l-0.562,0.125c4.175,2.371 8.858,3.629 13.725,3.629c7.429,0 14.412,-2.875 19.721,-8.179c5.245,-5.246 8.175,-12.296 8.175,-19.788c0,-4.741 -1.246,-9.425 -3.555,-13.608l-0.062,-0.121Z" style="fill-rule:nonzero;"/></g></svg>