<?xml version="1.0" encoding="UTF-8" standalone="no"?><!DOCTYPE svg PUBLIC "-//W3C//DTD SVG 1.1//EN" "http://www.w3.org/Graphics/SVG/1.1/DTD/svg11.dtd"><svg width="100%" height="100%" viewBox="0 0 128 128" version="1.1" xmlns="http://www.w3.org/2000/svg" xmlns:xlink="http://www.w3.org/1999/xlink" xml:space="preserve" xmlns:serif="http://www.serif.com/" style="fill-rule:evenodd;clip-rule:evenodd;stroke-linejoin:round;stroke-miterlimit:1.41421;"><rect id="twitter" x="0" y="0" width="128" height="128" style="fill:none;"/><clipPath id="_clip1"><rect id="twitter1" serif:id="twitter" x="0" y="0" width="128" height="128"/></clipPath><g clip-path="url(#_clip1)"><path d="M113.804,32.867c-3.687,1.621 -7.625,2.725 -11.77,3.229c4.225,-2.546 7.475,-6.558 9.012,-11.345c-3.962,2.312 -8.354,3.995 -13.029,4.933c-3.733,-3.996 -9.054,-6.496 -14.962,-6.496c-11.32,0 -20.499,9.179 -20.499,20.487c0,1.625 0.188,3.187 0.529,4.683c-17.041,-0.804 -32.144,-8.987 -42.252,-21.357c-1.779,3.008 -2.775,6.504 -2.775,10.312c0,7.124 3.625,13.387 9.116,17.066c-3.362,-0.109 -6.524,-1.034 -9.282,-2.567l0,0.254c0,9.937 7.053,18.224 16.441,20.112c-1.721,0.462 -3.538,0.712 -5.4,0.712c-1.308,0 -2.563,-0.125 -3.817,-0.358c2.629,8.137 10.187,14.07 19.183,14.237c-7,5.496 -15.87,8.77 -25.424,8.77c-1.625,0 -3.246,-0.095 -4.875,-0.279c9.12,5.808 19.866,9.204 31.486,9.204c37.724,0 58.327,-31.232 58.327,-58.273c0,-0.87 0,-1.749 -0.063,-2.624c4.004,-2.871 7.5,-6.5 10.25,-10.617l-0.196,-0.083l0,0Z" style="fill-rule:nonzero;"/></g></svg>