<?xml version="1.0" encoding="UTF-8" standalone="no"?><!DOCTYPE svg PUBLIC "-//W3C//DTD SVG 1.1//EN" "http://www.w3.org/Graphics/SVG/1.1/DTD/svg11.dtd"><svg width="100%" height="100%" viewBox="0 0 128 128" version="1.1" xmlns="http://www.w3.org/2000/svg" xmlns:xlink="http://www.w3.org/1999/xlink" xml:space="preserve" xmlns:serif="http://www.serif.com/" style="fill-rule:evenodd;clip-rule:evenodd;stroke-linejoin:round;stroke-miterlimit:1.41421;"><rect id="user" x="0" y="0" width="128" height="128" style="fill:none;"/><clipPath id="_clip1"><rect id="user1" serif:id="user" x="0" y="0" width="128" height="128"/></clipPath><g clip-path="url(#_clip1)"><path d="M55.949,61.569c-7.034,-2.959 -11.949,-9.675 -11.949,-17.478c0,-10.537 8.962,-19.091 20,-19.091c11.038,0 20,8.554 20,19.091c0,7.803 -4.915,14.519 -11.949,17.478c10.414,4.181 17.949,16.251 17.949,30.472c0,5.624 0,16.959 0,16.959l-52,0c0,0 0,-11.335 0,-16.959c0,-14.221 7.535,-26.291 17.949,-30.472Z"/></g></svg>