<?xml version="1.0" encoding="UTF-8" standalone="no"?><!DOCTYPE svg PUBLIC "-//W3C//DTD SVG 1.1//EN" "http://www.w3.org/Graphics/SVG/1.1/DTD/svg11.dtd"><svg width="100%" height="100%" viewBox="0 0 128 128" version="1.1" xmlns="http://www.w3.org/2000/svg" xmlns:xlink="http://www.w3.org/1999/xlink" xml:space="preserve" xmlns:serif="http://www.serif.com/" style="fill-rule:evenodd;clip-rule:evenodd;stroke-linejoin:round;stroke-miterlimit:1.41421;"><rect id="wait" x="0" y="0" width="128" height="128" style="fill:none;"/><clipPath id="_clip1"><rect id="wait1" serif:id="wait" x="0" y="0" width="128" height="128"/></clipPath><g clip-path="url(#_clip1)"><g><path d="M65.501,35.216l-0.001,0l0,27.5l31.5,0l0,9l-36,0l-4.5,-4.5l0,-32l-0.004,0l4.503,-4l4.502,4Zm35.499,32l-4,4.5l0,-8.999l4,4.499Z"/><path d="M58.004,14.371c-0.003,-0.075 -0.004,-0.152 -0.004,-0.228c0,-3.309 2.689,-5.996 6,-5.996c3.311,0 6,2.687 6,5.996c0,0.089 -0.002,0.177 -0.006,0.265c20.616,2.759 38.954,19.168 43.051,39.826c3.243,16.354 -2.333,34.161 -14.339,45.745c-13.846,13.36 -35.698,17.771 -53.88,10.207c-16.041,-6.674 -28.075,-22.241 -30.383,-39.509c-2.824,-21.119 9.448,-43.417 28.988,-52.257c4.612,-2.087 9.545,-3.441 14.573,-4.049Zm5.729,8.63c-18.539,0.17 -36.128,14.317 -39.899,32.733c-2.774,13.543 1.873,28.386 11.888,37.941c11.438,10.911 29.413,14.371 44.226,8.104c12.967,-5.486 22.697,-18.059 24.654,-32.038c3.135,-22.405 -14.843,-45.637 -38.75,-46.7c-0.706,-0.031 -1.412,-0.042 -2.119,-0.04Z"/></g></g></svg>