<?xml version="1.0" encoding="UTF-8" standalone="no"?><!DOCTYPE svg PUBLIC "-//W3C//DTD SVG 1.1//EN" "http://www.w3.org/Graphics/SVG/1.1/DTD/svg11.dtd"><svg width="100%" height="100%" viewBox="0 0 128 128" version="1.1" xmlns="http://www.w3.org/2000/svg" xmlns:xlink="http://www.w3.org/1999/xlink" xml:space="preserve" xmlns:serif="http://www.serif.com/" style="fill-rule:evenodd;clip-rule:evenodd;stroke-linejoin:round;stroke-miterlimit:1.41421;"><rect id="whatsapp" x="0" y="0" width="128" height="128" style="fill:none;"/><clipPath id="_clip1"><rect id="whatsapp1" serif:id="whatsapp" x="0" y="0" width="128" height="128"/></clipPath><g clip-path="url(#_clip1)"><path d="M86.908,73.925c-1.254,-0.625 -7.362,-3.613 -8.5,-4.025c-1.137,-0.421 -1.97,-0.625 -2.804,0.625c-0.821,1.229 -3.212,4.017 -3.933,4.842c-0.729,0.812 -1.454,0.875 -2.692,0.312c-1.25,-0.625 -5.262,-1.937 -10.012,-6.187c-3.7,-3.313 -6.184,-7.375 -6.917,-8.625c-0.725,-1.25 -0.079,-1.938 0.542,-2.563c0.566,-0.562 1.254,-1.437 1.879,-2.179c0.608,-0.754 0.808,-1.254 1.237,-2.067c0.417,-0.875 0.205,-1.562 -0.104,-2.183c-0.312,-0.625 -2.8,-6.75 -3.841,-9.192c-1,-2.433 -2.03,-2.125 -2.8,-2.125c-0.717,-0.062 -1.546,-0.062 -2.38,-0.062c-0.833,0 -2.179,0.308 -3.32,1.496c-1.138,1.25 -4.355,4.25 -4.355,10.312c0,6.063 4.459,11.938 5.08,12.813c0.62,0.812 8.77,13.312 21.25,18.687c2.975,1.25 5.291,2 7.1,2.621c2.975,0.946 5.687,0.812 7.833,0.504c2.392,-0.379 7.362,-3.004 8.4,-5.942c1.062,-2.937 1.062,-5.375 0.75,-5.937c-0.308,-0.563 -1.125,-0.875 -2.375,-1.438l-0.038,0.313Zm-22.654,30.7l-0.066,0c-7.375,0 -14.684,-2 -21.063,-5.75l-1.5,-0.892l-15.625,4.063l4.188,-15.188l-0.996,-1.562c-4.125,-6.567 -6.317,-14.129 -6.317,-21.917c0,-22.687 18.563,-41.187 41.425,-41.187c11.058,0 21.438,4.312 29.254,12.125c7.813,7.745 12.121,18.125 12.121,29.125c-0.017,22.683 -18.583,41.187 -41.396,41.187l-0.025,-0.004Zm35.246,-76.254c-9.5,-9.184 -22,-14.371 -35.312,-14.371c-27.425,0 -49.755,22.225 -49.767,49.554c0,8.733 2.287,17.25 6.646,24.771l-7.067,25.675l26.396,-6.883c7.275,3.929 15.458,6.016 23.792,6.029l0.025,0c27.437,0 49.775,-22.233 49.787,-49.567c0,-13.233 -5.167,-25.687 -14.562,-35.046l0.062,-0.162Z" style="fill-rule:nonzero;"/></g></svg>