<?xml version="1.0" encoding="UTF-8" standalone="no"?><!DOCTYPE svg PUBLIC "-//W3C//DTD SVG 1.1//EN" "http://www.w3.org/Graphics/SVG/1.1/DTD/svg11.dtd"><svg width="100%" height="100%" viewBox="0 0 128 128" version="1.1" xmlns="http://www.w3.org/2000/svg" xmlns:xlink="http://www.w3.org/1999/xlink" xml:space="preserve" xmlns:serif="http://www.serif.com/" style="fill-rule:evenodd;clip-rule:evenodd;stroke-linejoin:round;stroke-miterlimit:1.41421;"><rect id="wordpress" x="0" y="0" width="128" height="128" style="fill:none;"/><clipPath id="_clip1"><rect id="wordpress1" serif:id="wordpress" x="0" y="0" width="128" height="128"/></clipPath><g clip-path="url(#_clip1)"><path d="M64.173,14c-27.57,0 -49.999,22.429 -49.999,49.999c0,27.571 22.429,50.001 49.999,50.001c27.571,0 50.001,-22.43 50.001,-50.001c0,-27.57 -22.43,-49.999 -50.001,-49.999Zm0,97.707c-26.305,0 -47.706,-21.403 -47.706,-47.708c0,-26.305 21.401,-47.706 47.706,-47.706c26.305,0 47.707,21.401 47.707,47.706c0,26.305 -21.402,47.708 -47.707,47.708Zm0.754,-43.956l-12.871,37.395c3.844,1.13 7.907,1.748 12.117,1.748c4.995,0 9.786,-0.863 14.244,-2.432c-0.114,-0.184 -0.22,-0.379 -0.307,-0.591l-13.183,-36.12Zm-43.645,-3.753c0,16.978 9.865,31.651 24.174,38.602l-20.46,-56.058c-2.38,5.334 -3.714,11.238 -3.714,17.456Zm80.53,-20.577c0.184,1.366 0.288,2.832 0.288,4.411c0,4.351 -0.815,9.244 -3.262,15.363l-13.1,37.878c12.751,-7.435 21.327,-21.251 21.327,-37.075c0,-7.457 -1.905,-14.468 -5.253,-20.577Zm-8.683,18.414c0,-5.303 -1.905,-8.972 -3.537,-11.829c-2.173,-3.535 -4.213,-6.525 -4.213,-10.06c0,-3.942 2.99,-7.612 7.203,-7.612c0.19,0 0.371,0.022 0.556,0.034c-7.631,-6.992 -17.798,-11.261 -28.965,-11.261c-14.985,0 -28.167,7.689 -35.837,19.332c1.007,0.033 1.956,0.052 2.761,0.052c4.485,0 11.431,-0.545 11.431,-0.545c2.311,-0.135 2.584,3.261 0.275,3.535c0,0 -2.325,0.271 -4.909,0.407l15.618,46.461l9.388,-28.151l-6.682,-18.31c-2.311,-0.136 -4.499,-0.407 -4.499,-0.407c-2.312,-0.137 -2.04,-3.67 0.272,-3.535c0,0 7.083,0.545 11.297,0.545c4.484,0 11.432,-0.545 11.432,-0.545c2.312,-0.135 2.585,3.261 0.274,3.535c0,0 -2.327,0.271 -4.909,0.407l15.501,46.107l4.279,-14.294c1.852,-5.935 3.264,-10.195 3.264,-13.866Z"/></g></svg>