<?xml version="1.0" encoding="UTF-8" standalone="no"?><!DOCTYPE svg PUBLIC "-//W3C//DTD SVG 1.1//EN" "http://www.w3.org/Graphics/SVG/1.1/DTD/svg11.dtd"><svg width="100%" height="100%" viewBox="0 0 128 128" version="1.1" xmlns="http://www.w3.org/2000/svg" xmlns:xlink="http://www.w3.org/1999/xlink" xml:space="preserve" xmlns:serif="http://www.serif.com/" style="fill-rule:evenodd;clip-rule:evenodd;stroke-linejoin:round;stroke-miterlimit:1.41421;"><rect id="youtube" x="0" y="0" width="128" height="128" style="fill:none;"/><clipPath id="_clip1"><rect id="youtube1" serif:id="youtube" x="0" y="0" width="128" height="128"/></clipPath><g clip-path="url(#_clip1)"><path d="M111.912,39.847c-1.208,-4.23 -4.472,-7.495 -8.615,-8.681l-0.088,-0.022c-7.795,-2.088 -39.165,-2.088 -39.165,-2.088c0,0 -31.29,-0.042 -39.164,2.088c-4.231,1.208 -7.495,4.473 -8.682,8.615l-0.021,0.088c-1.385,7.13 -2.177,15.329 -2.177,23.713c0,0.17 0,0.34 0.001,0.51l0,-0.026c0,0.117 -0.001,0.255 -0.001,0.394c0,8.383 0.792,16.582 2.306,24.524l-0.129,-0.813c1.208,4.23 4.472,7.495 8.615,8.681l0.088,0.022c7.786,2.092 39.164,2.092 39.164,2.092c0,0 31.287,0 39.165,-2.092c4.231,-1.208 7.495,-4.473 8.682,-8.615l0.021,-0.088c1.328,-6.983 2.087,-15.014 2.087,-23.223c0,-0.31 -0.001,-0.62 -0.003,-0.93l0,0.048c0.003,-0.289 0.004,-0.629 0.004,-0.97c0,-8.21 -0.76,-16.243 -2.213,-24.032l0.125,0.805l0,0Zm-57.88,39.165l0,-29.982l26.11,15.014l-26.11,14.968Z" style="fill-rule:nonzero;"/></g></svg>