<?xml version="1.0" standalone="no"?>
<!DOCTYPE svg PUBLIC "-//W3C//DTD SVG 1.1//EN" "http://www.w3.org/Graphics/SVG/1.1/DTD/svg11.dtd" >
<svg xmlns="http://www.w3.org/2000/svg">
<metadata>Generated by IcoMoon</metadata>
<defs>
<font id="iconset" horiz-adv-x="1024">
<font-face units-per-em="1024" ascent="960" descent="-64" />
<missing-glyph horiz-adv-x="1024" />
<glyph unicode="&#x20;" horiz-adv-x="512" d="" />
<glyph unicode="&#xe900;" glyph-name="menu" d="M127.944 672h768.224v-95.888h-768.224v95.888zM127.832 496.056h768.224v-95.888h-768.224v95.888zM127.944 319.888h768.224v-95.888h-768.224v95.888z" />
<glyph unicode="&#xe901;" glyph-name="language" d="M512.896 831.992c0.512 0 1.024 0 1.536 0 175.368-1.672 339.856-135.912 374.184-308.992 24.912-125.592-17.92-262.352-110.12-351.32-67.040-64.688-158.528-102.056-251.976-106.288-9.744-1.36-19.768-1.504-29.952-0.216-44.88 1.4-89.664 10.552-131.872 28.112-123.192 51.256-215.616 170.816-233.344 303.432-21.688 162.2 72.56 333.44 222.632 401.336 49.384 22.344 103.56 33.752 157.848 33.936 0.352 0 0.704 0 1.064 0zM645 264h-109v-147.904c38.584 12.76 63.952 51.704 81.608 84.712 10.848 20.264 19.928 41.408 27.392 63.192zM488 116.496v147.504h-113.2c16.264-45.024 39.232-84.936 68.656-116.192 2.496-2.656 5.072-5.232 7.736-7.72 10.592-9.872 23.080-18.584 36.808-23.592zM792.080 264h-92.552c-15.76-48.776-38.336-93.144-67.496-129.872 2.288 0.872 4.568 1.768 6.848 2.704 62.376 25.496 115.952 70.96 153.2 127.168zM329.104 264h-98.152c37.672-56.416 93.512-99.952 157.024-125.416-18.616 25.712-32.904 55.056-44.12 83.44-5.408 13.688-10.328 27.704-14.752 41.976zM300.872 424h-123.6c2.736-38.536 11.912-76.616 27.448-112h111.568c-8.256 36.6-13.432 74.296-15.416 112zM672.528 424h-136.528v-112h122.664c8.408 36.512 12.84 74.2 13.864 112zM847.008 424h-120.8c-1.088-38.248-5.672-75.96-13.672-112h106.136c12.512 27.576 21.304 56.824 25.712 86.896 1.224 8.344 2.096 16.72 2.624 25.104zM360.448 312h127.552v112h-142.144c1.072-38.52 5.968-76.336 14.592-112zM312.472 584h-107.824c-15.688-35.368-24.808-73.448-27.44-112h122.864c0.752 38.192 4.856 75.912 12.4 112zM657.896 584h-121.896v-112h136.048c-1.112 24.12-3.52 48.096-7.064 71.656-2.016 13.424-4.328 26.92-7.088 40.344zM816.808 584h-106.664c8.624-36.704 13.792-74.384 15.592-112h120.672c-3.376 38.576-13.584 76.568-29.6 112zM346.496 472h141.504v112h-124.4c-9.392-36.568-15.064-74.336-17.104-112zM389.984 759.664c-63.88-25.76-120.376-70.56-158.768-127.664h93.672c14.864 47.728 36.464 91.312 65.096 127.664zM536 779.488v-147.488h109.744c-14.072 45.504-35.704 88.176-71.216 122.28-1.96 1.88-3.976 3.712-6.032 5.496-9.552 8.24-20.568 15.368-32.496 19.712zM631.024 762.256c9.8-12.408 18.304-25.384 25.352-37.936 16.328-29.080 29.744-60.112 40.304-92.32h93.84c-33.6 51.536-80.512 94.352-136.696 120.624-7.48 3.504-15.088 6.712-22.8 9.632zM488 780.056c-38.512-12.656-64.664-53.224-81.616-84.872-10.8-20.168-20.136-41.336-28.024-63.184h109.64v148.056z" />
<glyph unicode="&#xe902;" glyph-name="user" d="M447.592 467.448c-56.272 23.672-95.592 77.4-95.592 139.824 0 84.296 71.696 152.728 160 152.728s160-68.432 160-152.728c0-62.424-39.32-116.152-95.592-139.824 83.312-33.448 143.592-130.008 143.592-243.776 0-44.992 0-135.672 0-135.672h-416c0 0 0 90.68 0 135.672 0 113.768 60.28 210.328 143.592 243.776z" />
<glyph unicode="&#xe903;" glyph-name="search" d="M618.912 273.208c-46.024-34.288-102.32-55.48-164.248-55.872-137.76-0.872-268.424 109.344-288.68 247.552-22.92 156.392 100.344 319.896 266.36 331.488 7.432 0.52 14.872 0.728 22.32 0.704 132.384-1.256 256.56-102.6 282.472-233.256 15.304-77.16-5.792-157.792-51.232-221.84l182.952-182.952-67.888-67.88-182.056 182.056zM451.728 677.088c-82.552-0.8-158.856-68.44-167.824-151.328-7.776-71.968 35.624-146.632 102.904-175.144 87.648-37.136 203.16 15.456 229.712 111.096 27.216 98.016-49.76 212.232-159.28 215.32-1.84 0.040-3.672 0.056-5.512 0.056z" />
<glyph unicode="&#xe904;" glyph-name="comment" d="M896 512c0 141.288-172.064 256-384 256s-384-114.712-384-256c0-83.496 61.080-161.744 163.656-209.656l-48.456-174.344 169.304 136.744c32.448-5.808 65.896-8.744 99.496-8.744 211.936 0 384 114.712 384 256z" />
<glyph unicode="&#xe905;" glyph-name="cart" d="M781.64 629.128l-616.88-10.752 34.976-274.984 462.656 8.064 119.248 277.672zM343.688 198.2c0-30.928-25.072-56-56-56s-56 25.072-56 56c0 30.928 25.072 56 56 56s56-25.072 56-56zM680.824 198.2c0-30.928-25.072-56-56-56s-56 25.072-56 56c0 30.928 25.072 56 56 56s56-25.072 56-56zM948.144 689.648c28.16-4.752 23.976-20.2 20.872-31.72-2.84-10.544-12.784-17.816-23.512-18.416h-76.704l-154.344-350.64c0 0-6.808-13.92-22.2-14.76l-471.088-0.312c-26.288 1.448-33.464 48.392-0.032 50.288l455.376 0.304 154.344 350.648c0 0 6.816 13.928 22.224 14.76h92.424c0.88-0.048 1.76-0.096 2.64-0.152z" />
<glyph unicode="&#xe906;" glyph-name="mail" d="M839.144 735.992c29.768-0.56 56.28-26.736 56.848-56.848 0.984-154.096 0.984-308.192 0-462.288-0.56-29.704-26.712-56.28-56.848-56.848-218.088-1.384-436.2-1.384-654.288 0-29.768 0.56-56.28 26.736-56.848 56.848-0.984 154.096-0.984 308.192 0 462.288 0.56 29.704 26.712 56.28 56.848 56.848 218.088 1.384 436.2 1.384 654.288 0zM511.888 367.784l-335.928 304c-0.92-151.344 0.040-302.688 0.040-454.032 0-5.144 4.376-9.656 9.48-9.752 217.584-1.4 435.176 0 652.768 0 5.2 0 9.656 4.408 9.752 9.456 0.984 152.424 0.016 304.856 0 457.288l-336.112-306.96zM827 688.064c-211.056 1.272-422.128-0.032-633.192-0.064l318.008-287.784 315.184 287.848z" />
<glyph unicode="&#xe907;" glyph-name="telephone" d="M565.056 831.584c8.832 0.144 23.992 0.368 32.296 0.368 38.336 0 53.456-52.544 53.456-124.872 0-72.32-15.12-131.032-53.456-131.032-12.088 0-65.312 51.648-76.472 63.712-8.296-59.36-13.288-124.4-13.288-191.76 0-67.32 4.984-132.336 13.272-191.672 11.16 12.056 64.4 63.72 76.488 63.72 38.336 0 53.456-58.72 53.456-131.040 0-72.328-15.12-124.96-53.456-124.96-12.192 0-39.168 0-39.168 0l-0.104 0.256c-102.68 7.496-184.888 176.544-184.888 383.696 0 211.912 86.032 383.952 192 383.952l-0.136-0.368z" />
<glyph unicode="&#xe908;" glyph-name="location" d="M512 64.048c0 0 256 358.336 256 511.904 0 141.296-114.712 256-256 256s-256-114.704-256-256c0-153.568 256-511.904 256-511.904zM512 704c70.648 0 128-57.352 128-128s-57.352-128-128-128c-70.648 0-128 57.352-128 128s57.352 128 128 128z" />
<glyph unicode="&#xe909;" glyph-name="share" d="M641.52 708.968c-0.984 6.184-1.496 12.528-1.496 18.984 0 66.232 53.768 120 120 120 66.224 0 120-53.768 120-120 0-66.224-53.776-120-120-120-33.856 0-64.448 14.048-86.272 36.632l-299.336-149.632c6.152-14.44 9.56-30.32 9.56-47 0-16.648-3.4-32.512-9.536-46.928l299.312-149.648c21.824 22.576 52.424 36.624 86.272 36.624 66.224 0 120-53.768 120-120s-53.776-120-120-120c-66.232 0-120 53.768-120 120 0 6.464 0.512 12.808 1.496 19l-315.96 157.968c-18.008-10.8-39.072-17.016-61.584-17.016-66.224 0-120 53.776-120 120 0 66.232 53.776 120 120 120 22.48 0 43.52-6.192 61.52-16.96l316.024 157.976z" />
<glyph unicode="&#xe90a;" glyph-name="link" d="M549.952 536.072c24.128-3.392 56.344-25.752 80.568-43.712 40.128-29.744 53.936-89.696 28.88-134.984-55.968-98.544-112.672-196.68-169.992-294.44-27.864-46.304-92.432-64.568-140.896-37.76-40.472 22.984-80.76 46.312-120.944 69.824-46.344 27.944-65.144 92.832-37.144 141.968l90.536 156.816c4.928 7.888 7.424 9.608 12.104 12.536 26.344 16.456 68.632-13.96 50.256-48.536-30.304-52.48-61.64-104.384-90.896-157.456-7.824-14.6-2.592-34.432 11.56-43.208 39.592-23.88 79.664-46.976 120.128-69.36 14.664-7.864 34.728-2.456 43.392 11.944 57.088 97.368 114.664 194.48 169.296 293.24 7.864 14.704 2.48 34.728-11.928 43.416 0 0-56.688 32.736-56.688 32.736s-20.472 16.072-17.648 36.184c2.48 17.608 15.448 30.968 36.904 30.968 0.84-0.056 1.672-0.12 2.512-0.176zM625.92 884.152c17.288-0.32 34.4-4.96 49.568-13.32 43.168-24.608 88.776-46.104 128.744-74.944 41.128-29.68 55.696-90.464 29.352-136.84l-90.552-156.832c-4.928-7.888-7.424-9.608-12.096-12.536-25.88-16.168-69.656 12.040-50.256 48.536 30.312 52.488 61.576 104.44 90.912 157.48 7.84 14.64 2.496 34.704-11.96 43.416-39.736 23.328-79.36 46.864-119.704 69.104-14.712 7.88-34.768 2.456-43.448-11.944-57.136-97.328-114.792-194.384-169.28-293.216-7.904-14.736-2.408-34.76 11.952-43.432 0 0 56.656-32.72 56.656-32.72s20.4-16.648 17.656-36.184c-3.264-23.2-28.712-39.432-53.648-26.168-29.544 17.056-62.608 30.712-83.408 54.992-27.568 32.168-32.744 81.112-11.808 119.080 56.112 98.48 112.624 196.728 170.008 294.464 19.128 31.72 52.664 51.4 91.312 51.064z" />
<glyph unicode="&#xe90b;" glyph-name="credit-card" d="M827.72 679.8c35.984-1.36 67.328-32.408 67.88-69.2l0.304-389.432c-0.408-35.832-30.608-67.92-67.848-69.328-210.208-2.376-420.448-0.016-630.672-0.016-35.984 0.4-67.864 30.968-69.328 67.768-1.72 130.296-0.224 260.616-0.32 390.928 0.472 35.976 31.064 67.888 67.84 69.28 210.704 2.384 421.448 2.384 632.144 0zM197.32 631.824c-11.272-0.144-21.152-9.696-21.576-21.048-1.552-129.96-1.448-259.952 0.296-389.912 0.432-11.056 9.92-20.616 21.056-21.032 209.912-2.664 419.872-2.664 629.776 0 11.080 0.416 20.608 9.896 21.024 21.032 1.544 129.96 1.448 259.952-0.304 389.912-0.424 11.056-9.92 20.616-21.048 21.040-209.728 2.656-419.488 0.008-629.224 0.008zM847.904 576v-104h-672.168v104h672.168zM738.184 423.912c11.36-1.152 17.4-22.64 22.584-39.36 13.584-43.792 7.92-93.504-16.072-132.704 0 0-2.848-3.704-6.512-3.912-6.896-0.392-12.112 4.152-4.424 17.784 24.632 44.464 23.496 102.24-3.008 145.528 0 0-2.72 12.792 7.432 12.664zM708.432 407.936c6.72-1.024 9.512-9.592 12.376-15.608 18.52-38.992 16.104-87.52-6.296-124.504 0 0-2.2-3.224-5.536-3.832-7.072-1.288-11.816 6.664-6.512 15.768 19.808 35.424 18.704 80.76-1.976 115.648 0 0-1.856 13.248 7.944 12.528zM678.656 392.016c9.256-1.112 13.6-16.352 16.992-28.376 7.64-27.064 5.4-58.552-11.328-80.784-5.992-6.952-18.4 0.376-11.264 13.176 13.944 25.968 11.992 58.32-2.36 83.848-1.16 2.44-1 2.864-0.928 4.288 0.232 4.496 3.016 8.152 8.888 7.848zM648.448 375.568c20.152-1.464 26.592-52.192 5.832-76.432-6.128-7.16-17.736 0.824-10.056 14.856 7.976 15.264 6.328 34.272-3.128 48.928-3.072 5.368 0.608 12.76 7.352 12.648z" />
<glyph unicode="&#xe90c;" glyph-name="ask-quote" d="M768.824 831.992c32.92-0.624 62.52-29.112 63.168-63.168 1.36-213.88 1.36-427.768 0-641.648-0.624-32.944-28.672-62.512-63.168-63.168-171.208-1.088-342.44-1.088-513.648 0-32.92 0.624-62.52 29.112-63.168 63.168-1.36 213.88-1.36 427.768 0 641.648 0.624 32.944 28.672 62.512 63.168 63.168 171.208 1.088 342.44 1.088 513.648 0zM256.072 808c-20.896-0.12-39.672-18.392-40.072-39.488-1.544-213.848-4.040-427.752 0.016-641.568 0.624-20.424 18.696-38.52 39.472-38.944 171.176-0.992 342.392-3.472 513.536 0.016 20.368 0.656 38.336 18.488 38.96 38.928 4.056 214 4.056 428.112 0 642.112-0.616 20.272-18.368 38.272-38.944 38.928-170.96 3.24-341.984 0.016-512.968 0.016zM256 736h416v-64h-416v64zM256 576h512v-32h-512v32zM256 448h160v-32h-160v32zM256 352h160v-32h-160v32zM464 448h208v-32h-208v32zM464 352h208v-32h-208v32zM768 438.824v-13.648h-20.304v-20.296h-13.64v20.296h-20.296v13.648h20.296v20.296h13.64v-20.296h20.304zM747.696 438.824h20.304v-13.648h-20.304v-20.296h-13.64v20.296h-20.296v13.648h20.296v20.296h13.64v-20.296zM768 342.824v-13.648h-20.304v-20.296h-13.64v20.296h-20.296v13.648h20.296v20.296h13.64v-20.296h20.304zM464 224h208v-16h-208v16zM713.76 233.6h54.24v-13.6h-54.24v13.6zM713.76 212h54.24v-13.6h-54.24v13.6z" />
<glyph unicode="&#xe90d;" glyph-name="close" d="M966.488 953.512l51.024-51.024-454.48-454.488 454.48-454.488-51.024-51.024-454.488 454.48-454.488-454.48-51.024 51.024 454.48 454.488-454.48 454.488 51.024 51.024 454.488-454.48 454.488 454.48z" />
<glyph unicode="&#xe90e;" glyph-name="edit" d="M421.4 465c0 0 339.288 339.92 339.288 339.92 31.16 31.208 81.8 31.256 113.016 0.104 31.216-31.16 31.264-81.8 0.104-113.016l-531.312-532.296-192.2-79.44 79.080 192.344 192.024 192.384z" />
<glyph unicode="&#xe90f;" glyph-name="save" d="M912 784v-720h-800v768h760l40-48zM752 807.888h-448v-320h448v320zM676 512h-120v240h120v-240z" />
<glyph unicode="&#xe910;" glyph-name="print" d="M257.56 704c9.608 61.16 62.592 108 126.44 108h256c63.84 0 116.824-46.84 126.44-108h9.368c31.448 0 59.888-12.992 80.24-33.888 8.48-4.912 16.248-10.904 23.136-17.792 20.272-20.272 32.816-48.272 32.816-79.176v-224c0-61.816-50.184-112-112-112h-48.496c-11.264-19.928-27.712-36.536-47.504-47.992v-105.152h-384v105.152c-19.792 11.456-36.24 28.064-47.504 47.992h-48.496c-61.816 0-112 50.184-112 112v224c0 32.040 13.488 60.96 35.088 81.384 20.128 29.832 54.24 49.472 92.912 49.472h17.56zM680 237.144h-336v-129.144h336v129.144zM320 788v-84h384v84h-384z" />
<glyph unicode="&#xe911;" glyph-name="settings" d="M581.248 838.904c-45.816 8.056-92.68 8.056-138.496 0 5.248-32.8 10.784-65.552 16.6-98.248-34.168-6.088-67.016-18.048-97.104-35.344-16.56 28.792-33.368 57.44-50.432 85.936-40.272-23.28-76.176-53.408-106.096-89.024 25.104-21.752 50.392-43.288 75.872-64.592-22.264-26.624-39.744-56.904-51.664-89.496-31.2 11.416-62.488 22.552-93.88 33.416-15.888-43.72-24.024-89.88-24.048-136.392 33.208-0.528 66.424-0.768 99.64-0.712 0.056-34.704 6.128-69.136 17.944-101.768-31.232-11.312-62.36-22.888-93.392-34.744 15.936-43.704 39.368-84.296 69.256-119.944 25.776 20.944 51.376 42.112 76.784 63.504 22.352-26.552 49.136-49.024 79.16-66.424-16.656-28.736-33.056-57.616-49.208-86.648 40.296-23.232 84.344-39.264 130.144-47.368 6.288 32.616 12.288 65.288 18 98.008 34.192-5.976 69.152-5.976 103.336 0 5.72-32.72 11.72-65.392 18.008-98.008 45.8 8.104 89.848 24.136 130.144 47.368-16.152 29.032-32.552 57.912-49.208 86.648 30.024 17.4 56.808 39.872 79.16 66.424 25.408-21.392 51.008-42.56 76.784-63.504 29.888 35.648 53.32 76.24 69.248 119.944-31.024 11.856-62.152 23.432-93.384 34.744 11.816 32.632 17.888 67.064 17.944 101.768 33.216-0.056 66.432 0.184 99.64 0.712-0.024 46.512-8.16 92.672-24.048 136.392-31.392-10.864-62.68-22-93.88-33.416-11.92 32.592-29.4 62.872-51.664 89.496 25.48 21.304 50.768 42.84 75.872 64.592-29.92 35.616-65.824 65.744-106.096 89.024-17.064-28.496-33.872-57.144-50.432-85.936-30.088 17.296-62.936 29.256-97.104 35.344 5.816 32.696 11.352 65.448 16.6 98.248zM512 565.944c66.784 0 121-54.216 121-121s-54.216-121.008-121-121.008c-66.784 0-121 54.224-121 121.008s54.216 121 121 121z" />
<glyph unicode="&#xe912;" glyph-name="key" d="M435.272 520.736l-318.104-318.104-31.568-104.52 98.72-45.44 69.112 36.28 49.424 19.296 18.896 58.888 13.48 13.232 97.552 36.752 30.248 80.288 70.624 20.584 14.904 51.136c98.616-60.568 229.52-48.16 314.912 37.224 99.904 99.912 99.904 262.136 0 362.040-99.912 99.912-262.136 99.912-362.040 0-67.048-67.040-89.096-162.152-66.16-247.656zM791.696 666.544c24.976-24.984 24.976-65.536 0-90.512-24.984-24.976-65.536-24.976-90.512 0s-24.976 65.528 0 90.512c24.976 24.976 65.528 24.976 90.512 0z" />
<glyph unicode="&#xe913;" glyph-name="support" d="M459.32 844.432c18.304 2.432 36.784 3.616 55.264 3.56 86.616-0.824 170.688-32.696 238.96-85.208l2.352 2.256c70.44-54.192 120.44-129.976 142.872-215.008 2.128-7.88 3.992-15.848 5.592-23.904 1.496-7.536 2.752-15.112 3.784-22.712 0.128-0.904 0.248-1.808 0.368-2.712l-0.008-0.008c13.336-104.032-16.344-212.824-79.688-296.36l0.224-0.232c-64.48-83.816-159.52-138.688-264.336-152.616l-0.392 1.328c-68.84-9.368-140.24-1.536-205.704 25.696-32.288 13.432-62.544 31.368-90.040 52.896l-0.464-0.448c-76.648 58.96-129.088 143.488-148.152 237.68-1.776 8.584-3.248 17.24-4.408 25.944-13.912 104.072 17.992 211.72 81.080 295.576l-1.664 1.736c37.072 48.192 84.248 86.808 137.576 113.584 4.912 2.496 9.88 4.888 14.912 7.16 16.584 7.504 33.688 13.824 51.144 18.944 19.744 5.84 40.040 10.184 60.704 12.928l0.024-0.080zM551.872 98.848c-11.32 45.424-19.912 91.304-25.792 137.648-4.2-0.296-8.432-0.464-12.704-0.488-42.16-0.288-83.528 13.48-118.416 37.056-28.584-37.72-59.344-73.632-92.296-107.736 70.8-51.64 161.432-75.608 249.208-66.48zM860.768 487.776c-45.336-11.28-91.136-19.856-137.392-25.712 2.4-45.872-11.68-91.856-37.56-130.256 37.936-28.68 74.048-59.56 108.336-92.64 34.752 46.8 58.344 101.832 66.432 159.576 4.144 29.616 4.056 59.56 0.184 89.032zM510.792 635.992c-87.024-0.84-168.344-67.992-183.856-154.72-15.024-84 34.84-175.008 114.032-207.368 100.72-41.16 230.704 23.792 254.728 133.936 23.632 108.32-64.608 228.624-184.904 228.152zM230.592 656.112c-30.792-40.208-53.128-86.824-63.432-137.168-7.472-36.472-8.76-73.968-4.328-110.816 45.552 11.344 91.56 19.96 138.024 25.84-2.072 45.688 11.992 91.56 37.72 129.92-37.8 28.56-73.792 59.296-107.984 92.224zM721.016 730.344c-19.84 15.192-41.344 28.2-64.248 38.568-46.024 20.816-96.32 31.248-147.048 31.080-12.624-0.12-25.192-0.984-37.656-2.576 11.352-45.512 19.968-91.488 25.864-137.92 3.296 0.24 6.624 0.392 9.976 0.464 1.824 0.032 3.648 0.040 5.472 0.032 41.344-0.4 81.576-14.096 115.6-37.144 28.504 37.632 59.184 73.456 92.040 107.496z" />
<glyph unicode="&#xe914;" glyph-name="wait" d="M524.008 678.272h-0.008v-220h252v-72h-288l-36 36v256h-0.032l36.024 32 36.016-32zM808 422.272l-32-36v71.992l32-35.992zM464.032 845.032c-0.024 0.6-0.032 1.216-0.032 1.824 0 26.472 21.512 47.968 48 47.968s48-21.496 48-47.968c0-0.712-0.016-1.416-0.048-2.12 164.928-22.072 311.632-153.344 344.408-318.608 25.944-130.832-18.664-273.288-114.712-365.96-110.768-106.88-285.584-142.168-431.040-81.656-128.328 53.392-224.6 177.928-243.064 316.072-22.592 168.952 75.584 347.336 231.904 418.056 36.896 16.696 76.36 27.528 116.584 32.392zM509.864 775.992c-148.312-1.36-289.024-114.536-319.192-261.864-22.192-108.344 14.984-227.088 95.104-303.528 91.504-87.288 235.304-114.968 353.808-64.832 103.736 43.888 181.576 144.472 197.232 256.304 25.080 179.24-118.744 365.096-310 373.6-5.648 0.248-11.296 0.336-16.952 0.32z" />
<glyph unicode="&#xe915;" glyph-name="code" d="M353.192 612.704l-167.296-164.704 167.296-164.704-61.96-60.072-228.312 224.776 228.312 224.776c20.656-20.024 41.312-40.048 61.96-60.072zM960.792 447.848l-228.68-224.824-61.552 60.512 167.128 164.312-167.128 164.312 61.552 60.52c76.224-74.944 152.456-149.888 228.68-224.832zM637.032 727.384l-181.648-580.568-68.72 21.504 181.656 580.56c22.904-7.168 45.808-14.328 68.712-21.496z" />
<glyph unicode="&#xe916;" glyph-name="page-up" d="M512 768l384-704h-768l384 704z" />
<glyph unicode="&#xe917;" glyph-name="page-down" d="M512 128l-384 704h768l-384-704z" />
<glyph unicode="&#xe918;" glyph-name="previous" d="M192 448l704.008 384v-768l-704.008 384z" />
<glyph unicode="&#xe919;" glyph-name="next" d="M832 448l-703.992-384v768l703.992-384z" />
<glyph unicode="&#xe91a;" glyph-name="up" d="M912.16 329.512l-96.136-107.432-304.024 334.544-304.024-334.544-96.136 107.432 400.16 440.328c133.384-146.776 266.776-293.552 400.16-440.328z" />
<glyph unicode="&#xe91b;" glyph-name="down" d="M512 339.376l304.024 334.544 96.136-107.432-400.16-440.328-400.16 440.328 96.136 107.432c101.344-111.52 202.68-223.032 304.024-334.544z" />
<glyph unicode="&#xe91c;" glyph-name="left" d="M737.672 752.024l-334.544-304.024 334.544-304.024-107.432-96.136-440.328 400.16 440.328 400.16c35.816-32.048 71.624-64.096 107.432-96.136z" />
<glyph unicode="&#xe91d;" glyph-name="right" d="M833.84 448l-440.328-400.16-107.432 96.136 334.544 304.024-334.544 304.024 107.432 96.136c146.776-133.384 293.552-266.776 440.328-400.16z" />
<glyph unicode="&#xe91e;" glyph-name="checkmark" d="M885.352 629.016l-463.864-463.856-282.84 282.84 101.824 101.824 181.016-181.016 362.040 362.032c33.944-33.936 67.88-67.88 101.824-101.824z" />
<glyph unicode="&#xe91f;" glyph-name="delete" d="M818.912 653.088l-205.088-205.088 205.088-205.088-101.824-101.824-205.088 205.088c0 0-136.728-136.728-205.088-205.088l-101.824 101.824 205.088 205.088-205.088 205.088 101.824 101.824 205.088-205.088 205.088 205.088c33.944-33.944 67.88-67.88 101.824-101.824z" />
<glyph unicode="&#xe920;" glyph-name="add" d="M584 376v-290.040h-144v290.040h-290.040v144h290.040v290.040h144c0-96.68 0-193.36 0-290.040h290.040v-144h-290.040z" />
<glyph unicode="&#xe921;" glyph-name="remove" d="M149.96 520h724.080v-144h-724.080v144z" />
<glyph unicode="&#xe922;" glyph-name="control-previous" d="M282.632 448l341.328-256v512l-341.328-256zM677.224 704h64.144v-512h-64.144v512z" />
<glyph unicode="&#xe923;" glyph-name="control-next" d="M741.368 448l-341.328-256v512l341.328-256zM282.632 704h64.144v-512h-64.144v512z" />
<glyph unicode="&#xe924;" glyph-name="control-record" d="M768 448c0-141.385-114.615-256-256-256s-256 114.615-256 256c0 141.385 114.615 256 256 256s256-114.615 256-256z" />
<glyph unicode="&#xe925;" glyph-name="control-stop" d="M288 672h448v-448h-448v448z" />
<glyph unicode="&#xe926;" glyph-name="control-play" d="M704 448l-384-288v576l384-288z" />
<glyph unicode="&#xe927;" glyph-name="control-play-backward" d="M320 448l384-288v576l-384-288z" />
<glyph unicode="&#xe928;" glyph-name="control-pause" d="M358 688h112v-480h-112v480zM554 688h112v-480h-112v480z" />
<glyph unicode="&#xe929;" glyph-name="info" d="M571.92 604.464c0-44.183-35.817-80-80-80s-80 35.817-80 80c0 44.183 35.817 80 80 80s80-35.817 80-80zM444.84 429.824l-31.88 18.16 126.048 3.944v-357.512l65.224-30.416h-191.272l31.88 30.416v335.408z" />
<glyph unicode="&#xe92a;" glyph-name="warning" d="M568.080 124c0-33.137-26.863-60-60-60s-60 26.863-60 60c0 33.137 26.863 60 60 60s60-26.863 60-60zM436.080 755.44l144 0.488-28.624-511.688-86.2-0.312v0.808h-0.56l-28.616 510.704z" />
<glyph unicode="&#xe92b;" glyph-name="question" d="M549.28 124c0-33.137-26.863-60-60-60s-60 26.863-60 60c0 33.137 26.863 60 60 60s60-26.863 60-60zM426.28 387.528l-0.312 2.104c67.384 9.952 137.848 28.104 177.4 81.080 24.536 32.848 33.52 78.256 13.944 117.040-33.040 65.456-129.152 88.032-201.272 56.312 0 0-22.44-13.704-38.672-31.008 0 0-33.776-37.448-33.776-37.448l-71.304 64.272 33.368 37.024c7.072 7.672 8.296 8.712 12.384 12.576 15.456 14.608 32.464 27.608 50.8 38.248 0 0 44.28 20.104 84.112 24.816 11.016 1.304 22.064 1.888 33.208 1.848 100.536-0.824 204.2-59.368 230.8-160.048 14.176-53.664 6.016-112.144-23.184-160.968-32.032-53.568-84.504-92.96-142.32-114.912l-25.096-75.912-86.272-0.152-14.632 145.216 0.824-0.088z" />
<glyph unicode="&#xe92c;" glyph-name="danger" d="M514.232 811.192c27.88-0.648 41.128-11.448 54.184-30.296l381.536-595.256c21.832-37.76-3.64-99-56.656-100.84h-762.952c-46.072 1.968-82.392 57-56.512 100.92l381.552 595.28c13.608 19.216 33.824 30.36 58.848 30.192zM512.688 763.192c-8.568-0.2-17.496-9.032-17.496-9.032l-380.464-593.584c-5.184-8.792-1.072-22.208 9.912-26.88 2.456-1.048 6.728-0.896 6.728-0.896h761.096c12.040 0.416 20.848 10.824 19.248 22.176-0.376 2.392-2.76 5.688-2.76 5.688l-380.48 593.608c-3.544 5.112-9.632 8.984-15.784 8.92zM541.416 238.136c0-18.411-14.925-33.336-33.336-33.336s-33.336 14.925-33.336 33.336c0 18.411 14.925 33.336 33.336 33.336s33.336-14.925 33.336-33.336zM509.040 275.456l0.952-0.040 0.952-0.056 0.944-0.088 0.944-0.104 0.92-0.136 0.928-0.152 0.912-0.176 0.904-0.192 0.904-0.224 0.896-0.24 0.88-0.264 0.864-0.28 0.872-0.304 0.856-0.328 0.84-0.344 0.832-0.36 0.816-0.384 0.816-0.408 0.8-0.416 0.784-0.448 0.784-0.456 0.76-0.48 0.744-0.488 0.736-0.512 0.728-0.528 0.712-0.552 0.696-0.56 0.688-0.576 0.672-0.592 0.656-0.616 0.64-0.624 0.624-0.64 0.608-0.656 0.6-0.672 0.576-0.68 0.56-0.704 0.544-0.712 0.528-0.72 0.512-0.736 0.504-0.752 0.472-0.768 0.456-0.768 0.44-0.792 0.424-0.8 0.4-0.808 0.392-0.824 0.36-0.832 0.344-0.84 0.328-0.856 0.304-0.864 0.28-0.872 0.264-0.88 0.24-0.888 0.224-0.904 0.2-0.912 0.168-0.912 0.16-0.928 0.128-0.928 0.104-0.928 0.088-0.952 0.056-0.952 0.040-0.952 0.008-0.96-0.008-0.96-0.040-0.96-0.056-0.952-0.088-0.952-0.104-0.92-0.128-0.928-0.16-0.928-0.168-0.92-0.2-0.912-0.224-0.896-0.24-0.888-0.264-0.88-0.28-0.872-0.304-0.864-0.328-0.864-0.344-0.832-0.36-0.832-0.392-0.832-0.4-0.808-0.424-0.8-0.44-0.784-0.456-0.768-0.472-0.768-0.504-0.76-0.512-0.736-0.528-0.72-0.544-0.712-0.56-0.704-0.576-0.68-0.6-0.672-0.608-0.656-0.624-0.632-0.64-0.632-0.656-0.608-0.672-0.592-0.688-0.584-0.696-0.56-0.712-0.544-0.728-0.528-0.736-0.512-0.744-0.496-0.76-0.472-0.784-0.464-0.784-0.44-0.8-0.424-0.816-0.4-0.816-0.384-0.832-0.368-0.84-0.344-0.856-0.328-0.872-0.304-0.864-0.28-0.88-0.264-0.896-0.24-0.904-0.216-0.904-0.2-0.912-0.176-0.928-0.152-0.92-0.128-0.944-0.112-0.944-0.088-0.952-0.056-0.952-0.032-0.96-0.016-0.968 0.016-0.952 0.032-0.952 0.056-0.944 0.088-0.936 0.112-0.928 0.128-0.928 0.152-0.912 0.176-0.904 0.2-0.904 0.216-0.888 0.24-0.888 0.264-0.864 0.28-0.864 0.304-0.856 0.328-0.848 0.344-0.824 0.368-0.824 0.384-0.816 0.4-0.8 0.424-0.784 0.44-0.784 0.464-0.752 0.472-0.752 0.496-0.736 0.512-0.728 0.528-0.712 0.544-0.704 0.56-0.688 0.584-0.656 0.592-0.656 0.608-0.648 0.624-0.624 0.64-0.616 0.664-0.592 0.664-0.576 0.68-0.56 0.704-0.544 0.712-0.528 0.72-0.512 0.736-0.496 0.752-0.48 0.776-0.456 0.776-0.44 0.776-0.424 0.8-0.4 0.808-0.384 0.824-0.368 0.84-0.344 0.84-0.328 0.856-0.304 0.864-0.28 0.864-0.264 0.888-0.24 0.896-0.224 0.888-0.192 0.912-0.176 0.92-0.152 0.92-0.136 0.936-0.104 0.928-0.088 0.944-0.056 0.952-0.040 0.96-0.008 0.96 0.008 0.96 0.040 0.952 0.056 0.952 0.088 0.944 0.104 0.936 0.136 0.936 0.152 0.92 0.176 0.912 0.192 0.912 0.224 0.896 0.24 0.896 0.264 0.888 0.28 0.864 0.304 0.864 0.328 0.848 0.344 0.848 0.368 0.832 0.384 0.824 0.4 0.808 0.424 0.8 0.44 0.784 0.456 0.776 0.48 0.768 0.496 0.752 0.512 0.736 0.528 0.72 0.544 0.712 0.56 0.704 0.576 0.68 0.592 0.672 0.616 0.656 0.624 0.64 0.648 0.624 0.656 0.616 0.656 0.584 0.688 0.584 0.704 0.56 0.712 0.552 0.728 0.528 0.736 0.512 0.752 0.488 0.752 0.48 0.784 0.456 0.784 0.448 0.8 0.416 0.816 0.408 0.824 0.384 0.824 0.36 0.848 0.344 0.856 0.328 0.864 0.304 0.864 0.28 0.888 0.264 0.888 0.24 0.904 0.224 0.904 0.192 0.912 0.176 0.928 0.152 0.928 0.136 0.936 0.104 0.944 0.088 0.952 0.056 0.952 0.040 0.968 0.008 0.96-0.008zM507.216 271.456l-0.856-0.032-0.848-0.056-0.84-0.072-0.84-0.096-0.832-0.12-0.824-0.136-0.816-0.152-0.808-0.176-0.8-0.2-0.8-0.216-0.784-0.232-0.776-0.256-0.776-0.272-0.76-0.288-0.752-0.304-0.744-0.328-0.728-0.344-0.728-0.36-0.712-0.376-0.704-0.392-0.688-0.408-0.688-0.424-0.664-0.448-0.664-0.456-0.648-0.472-0.632-0.488-0.624-0.504-0.616-0.512-0.592-0.536-0.592-0.544-0.568-0.56-0.56-0.568-0.544-0.584-0.536-0.6-0.512-0.616-0.504-0.624-0.488-0.632-0.472-0.648-0.456-0.656-0.44-0.672-0.432-0.68-0.408-0.696-0.392-0.704-0.376-0.712-0.36-0.728-0.344-0.728-0.32-0.744-0.312-0.752-0.288-0.76-0.272-0.776-0.256-0.776-0.232-0.784-0.216-0.8-0.192-0.8-0.176-0.808-0.16-0.816-0.136-0.824-0.12-0.832-0.096-0.84-0.072-0.84-0.056-0.848-0.032-0.856-0.008-0.856 0.008-0.864 0.032-0.856 0.056-0.848 0.072-0.84 0.096-0.84 0.12-0.832 0.136-0.824 0.16-0.816 0.176-0.808 0.192-0.8 0.216-0.792 0.232-0.792 0.256-0.776 0.272-0.768 0.288-0.768 0.312-0.752 0.32-0.736 0.344-0.736 0.36-0.728 0.376-0.712 0.392-0.704 0.408-0.688 0.432-0.68 0.44-0.672 0.456-0.664 0.472-0.648 0.488-0.632 0.504-0.624 0.512-0.608 0.536-0.6 0.544-0.584 0.56-0.576 0.568-0.56 0.592-0.544 0.592-0.528 0.616-0.52 0.624-0.504 0.632-0.488 0.648-0.472 0.664-0.456 0.664-0.44 0.688-0.424 0.688-0.416 0.704-0.392 0.712-0.376 0.728-0.36 0.728-0.344 0.744-0.32 0.752-0.312 0.76-0.288 0.776-0.272 0.776-0.256 0.784-0.232 0.8-0.216 0.8-0.192 0.808-0.176 0.816-0.16 0.824-0.136 0.832-0.112 0.84-0.096 0.84-0.080 0.848-0.056 0.856-0.032 0.864-0.008 0.856 0.008 0.856 0.032 0.848 0.056 0.84 0.080 0.84 0.096 0.832 0.112 0.824 0.136 0.816 0.16 0.808 0.176 0.8 0.192 0.8 0.216 0.784 0.232 0.776 0.256 0.776 0.272 0.76 0.288 0.752 0.312 0.744 0.32 0.728 0.344 0.728 0.36 0.712 0.376 0.704 0.392 0.688 0.416 0.688 0.424 0.664 0.44 0.664 0.456 0.648 0.472 0.632 0.488 0.624 0.504 0.616 0.52 0.592 0.528 0.592 0.544 0.568 0.56 0.56 0.576 0.544 0.584 0.536 0.6 0.512 0.608 0.504 0.624 0.488 0.632 0.472 0.648 0.456 0.664 0.44 0.672 0.432 0.68 0.408 0.688 0.392 0.704 0.376 0.712 0.36 0.728 0.344 0.736 0.328 0.736 0.304 0.752 0.288 0.768 0.272 0.768 0.256 0.776 0.232 0.792 0.216 0.792 0.192 0.8 0.176 0.808 0.16 0.816 0.136 0.824 0.12 0.832 0.096 0.84 0.072 0.84 0.056 0.848 0.032 0.856 0.008 0.864-0.008 0.856-0.032 0.856-0.056 0.848-0.072 0.84-0.096 0.84-0.12 0.832-0.136 0.824-0.16 0.816-0.176 0.808-0.192 0.8-0.216 0.8-0.232 0.784-0.256 0.776-0.272 0.776-0.288 0.76-0.304 0.752-0.328 0.744-0.344 0.728-0.36 0.728-0.376 0.712-0.392 0.704-0.408 0.696-0.432 0.68-0.44 0.672-0.456 0.656-0.472 0.648-0.488 0.632-0.504 0.624-0.512 0.616-0.536 0.6-0.544 0.584-0.56 0.568-0.568 0.56-0.592 0.544-0.592 0.536-0.616 0.512-0.624 0.504-0.632 0.488-0.648 0.472-0.664 0.456-0.664 0.448-0.688 0.424-0.688 0.408-0.704 0.392-0.712 0.376-0.728 0.36-0.728 0.344-0.744 0.328-0.752 0.304-0.76 0.288-0.776 0.272-0.776 0.256-0.784 0.232-0.8 0.216-0.8 0.2-0.808 0.176-0.816 0.152-0.824 0.136-0.832 0.12-0.84 0.096-0.84 0.072-0.848 0.056-0.856 0.032-0.856 0.008-0.864-0.008zM468.080 588.936l80 0.272-15.904-284.272-47.888-0.176v0.448h-0.312l-15.896 283.728zM535.96 300.952l-55.672-0.2v0.456h-0.096l-16.344 291.712 88.456 0.304-16.344-292.272zM468.080 588.936l15.896-283.728h0.312v-0.448l47.888 0.176 15.904 284.272-80-0.272z" />
<glyph unicode="&#xe92d;" glyph-name="placeholder" d="M725.368 871.992l1.368-0.008 1.368-0.024 1.368-0.032 2.72-0.080 1.352-0.056 2.712-0.144 1.352-0.080 1.344-0.088 1.352-0.096 2.68-0.224 1.344-0.12 2.672-0.272 2.656-0.304 1.328-0.168 2.648-0.352 1.32-0.192 2.632-0.4 1.312-0.216 2.608-0.448 1.304-0.24 2.6-0.496 2.584-0.528 1.288-0.28 2.576-0.576 2.552-0.608 1.28-0.312 2.536-0.656 2.528-0.688 1.256-0.352 1.256-0.36 1.256-0.368 1.248-0.376 1.248-0.384 1.24-0.392 1.24-0.4 1.232-0.408 1.24-0.408 2.448-0.848 2.448-0.88 1.216-0.448 1.208-0.456 1.208-0.464 1.208-0.472 1.2-0.48 1.2-0.488 1.192-0.488 1.192-0.504 1.184-0.504 1.184-0.512 1.184-0.52 1.176-0.528 1.168-0.536 2.336-1.088 1.16-0.56 1.152-0.56 1.152-0.568 1.152-0.576 1.144-0.584 1.136-0.592 1.144-0.592 1.128-0.6 1.128-0.608 1.128-0.616 1.12-0.624 2.224-1.264 1.112-0.64 1.104-0.648 1.096-0.656 1.096-0.664 1.088-0.664 1.088-0.672 1.080-0.68 1.080-0.688 2.144-1.392 1.064-0.704 1.056-0.712 1.056-0.72 2.096-1.456 1.040-0.736 1.040-0.744 1.032-0.744 1.024-0.752 1.024-0.76 1.016-0.768 1.016-0.776 1.008-0.776 1.008-0.784 0.992-0.792 1-0.792 0.984-0.808 0.984-0.8 0.984-0.816 0.976-0.824 0.968-0.824 0.96-0.824 0.96-0.84 0.952-0.84 0.952-0.848 0.944-0.856 0.936-0.856 0.936-0.864 1.856-1.744 0.912-0.88 1.824-1.776 0.904-0.896 0.896-0.904 1.776-1.824 0.88-0.912 1.744-1.856 0.864-0.936 0.856-0.936 0.856-0.944 0.848-0.952 0.84-0.952 0.84-0.96 0.824-0.96 0.824-0.968 0.824-0.976 0.816-0.984 0.8-0.984 0.808-0.984 0.792-1 0.792-0.992 0.784-1.008 0.776-1.008 0.776-1.016 0.768-1.016 0.76-1.024 0.752-1.024 0.744-1.032 0.744-1.040 0.736-1.040 1.456-2.096 0.72-1.056 0.712-1.056 0.704-1.064 1.392-2.144 0.688-1.080 0.68-1.080 0.672-1.088 0.664-1.088 0.664-1.096 0.656-1.096 0.648-1.104 0.64-1.112 1.264-2.224 0.624-1.12 0.616-1.128 0.608-1.128 0.6-1.128 0.592-1.144 0.592-1.136 0.584-1.144 0.576-1.152 0.568-1.152 0.56-1.152 0.56-1.16 1.088-2.336 0.536-1.168 0.528-1.176 0.52-1.184 0.512-1.184 0.504-1.184 0.504-1.192 0.488-1.192 0.488-1.2 0.48-1.2 0.472-1.208 0.464-1.208 0.456-1.208 0.448-1.216 0.88-2.448 0.848-2.448 0.408-1.24 0.408-1.232 0.4-1.24 0.392-1.24 0.384-1.248 0.376-1.248 0.368-1.256 0.36-1.256 0.352-1.256 0.688-2.528 0.328-1.272 0.328-1.264 0.312-1.28 0.304-1.272 0.304-1.28 0.576-2.576 0.28-1.288 0.264-1.288 0.264-1.296 0.248-1.296 0.248-1.304 0.24-1.304 0.448-2.608 0.216-1.312 0.2-1.32 0.2-1.312 0.192-1.32 0.176-1.32 0.176-1.328 0.168-1.328 0.304-2.656 0.272-2.672 0.12-1.344 0.112-1.336 0.112-1.344 0.096-1.352 0.088-1.344 0.080-1.352 0.072-1.352 0.072-1.36 0.056-1.352 0.080-2.72 0.032-1.368 0.024-1.368 0.016-2.736v-424l-0.016-2.736-0.024-1.368-0.032-1.368-0.080-2.72-0.056-1.352-0.072-1.36-0.072-1.352-0.080-1.352-0.088-1.344-0.096-1.352-0.112-1.344-0.112-1.336-0.12-1.344-0.272-2.672-0.304-2.656-0.168-1.328-0.176-1.328-0.176-1.32-0.192-1.32-0.2-1.312-0.2-1.32-0.216-1.312-0.448-2.608-0.24-1.304-0.248-1.304-0.248-1.296-0.264-1.296-0.264-1.288-0.28-1.288-0.576-2.576-0.304-1.28-0.304-1.272-0.312-1.28-0.328-1.264-0.328-1.272-0.688-2.528-0.352-1.256-0.36-1.256-0.368-1.256-0.376-1.248-0.384-1.248-0.392-1.24-0.4-1.24-0.408-1.232-0.408-1.24-0.848-2.448-0.88-2.448-0.448-1.216-0.456-1.208-0.464-1.208-0.472-1.208-0.48-1.2-0.488-1.2-0.488-1.192-0.504-1.192-0.504-1.184-0.512-1.184-0.52-1.184-0.528-1.176-0.536-1.168-1.088-2.336-0.56-1.16-0.56-1.152-0.568-1.152-0.576-1.152-0.584-1.144-0.592-1.136-0.592-1.144-0.6-1.128-0.608-1.128-0.616-1.128-0.624-1.12-1.264-2.224-0.64-1.112-0.648-1.104-0.656-1.096-0.664-1.096-0.664-1.088-0.672-1.088-0.68-1.080-0.688-1.080-1.392-2.144-0.704-1.064-0.712-1.056-0.72-1.056-1.456-2.096-0.736-1.040-0.744-1.040-0.744-1.032-0.752-1.024-0.76-1.024-0.768-1.016-0.776-1.016-0.776-1.008-0.784-1.008-0.792-0.992-0.792-1-0.808-0.984-0.8-0.984-0.816-0.984-0.824-0.976-0.824-0.968-0.824-0.96-0.84-0.96-0.84-0.952-0.848-0.952-0.856-0.944-0.856-0.936-0.864-0.936-1.744-1.856-0.88-0.912-1.776-1.824-0.896-0.904-0.904-0.896-1.824-1.776-0.912-0.88-1.856-1.744-0.936-0.864-0.936-0.856-0.944-0.856-0.952-0.848-0.952-0.84-0.96-0.84-0.96-0.824-0.968-0.824-0.976-0.824-0.984-0.816-0.984-0.8-0.984-0.808-1-0.792-0.992-0.792-1.008-0.784-1.008-0.776-1.016-0.776-1.016-0.768-1.024-0.76-1.024-0.752-1.032-0.744-1.040-0.744-1.040-0.736-2.096-1.456-1.056-0.72-1.056-0.712-1.064-0.704-2.144-1.392-1.080-0.688-1.080-0.68-1.088-0.672-1.088-0.664-1.096-0.664-1.096-0.656-1.104-0.648-1.112-0.64-2.224-1.264-1.12-0.624-1.128-0.616-1.128-0.608-1.128-0.6-1.144-0.592-1.136-0.592-1.144-0.584-1.152-0.576-1.152-0.568-1.152-0.56-1.16-0.56-2.336-1.088-1.168-0.536-1.176-0.528-1.184-0.52-1.184-0.512-1.184-0.504-1.192-0.504-1.192-0.488-1.2-0.488-1.2-0.48-1.208-0.472-1.208-0.464-1.208-0.456-1.216-0.448-2.448-0.88-2.448-0.848-1.24-0.408-1.232-0.408-1.24-0.4-1.24-0.392-1.248-0.384-1.248-0.376-1.256-0.368-1.256-0.36-1.256-0.352-2.528-0.688-2.536-0.656-1.28-0.312-2.552-0.608-2.576-0.576-1.288-0.28-2.584-0.528-2.6-0.496-1.304-0.24-2.608-0.448-1.312-0.216-2.632-0.4-1.32-0.192-2.648-0.352-1.328-0.168-2.656-0.304-2.672-0.272-1.344-0.12-2.68-0.224-1.352-0.096-1.344-0.088-1.352-0.080-2.712-0.144-1.352-0.056-2.72-0.080-1.368-0.032-1.368-0.024-2.736-0.016-442.984 0.84-1.344 0.12-2.672 0.272-2.656 0.304-1.328 0.168-2.648 0.352-1.32 0.192-2.632 0.4-1.312 0.216-2.608 0.448-1.304 0.24-2.6 0.496-2.584 0.528-1.288 0.28-2.576 0.576-2.552 0.608-1.28 0.312-2.536 0.656-2.528 0.688-1.256 0.352-1.256 0.36-1.256 0.368-1.248 0.376-1.248 0.384-1.24 0.392-1.24 0.4-1.232 0.408-1.24 0.408-2.448 0.848-2.448 0.88-1.216 0.448-1.208 0.456-1.208 0.464-1.208 0.472-1.2 0.48-1.2 0.488-1.192 0.488-1.192 0.504-1.184 0.504-1.184 0.512-1.184 0.52-1.176 0.528-1.168 0.536-2.336 1.088-1.16 0.56-1.152 0.56-1.152 0.568-1.152 0.576-1.144 0.584-1.136 0.592-1.144 0.592-1.128 0.6-1.128 0.608-1.128 0.616-1.12 0.624-2.224 1.264-1.112 0.64-1.104 0.648-1.096 0.656-1.096 0.664-1.088 0.664-1.088 0.672-1.080 0.68-1.080 0.688-2.144 1.392-1.064 0.704-1.056 0.712-1.056 0.72-2.096 1.456-1.040 0.736-1.040 0.744-1.032 0.744-1.024 0.752-1.024 0.76-1.016 0.768-1.016 0.776-1.008 0.776-1.008 0.784-0.992 0.792-1 0.792-0.984 0.808-0.984 0.8-0.984 0.816-0.976 0.824-0.968 0.824-0.96 0.824-0.96 0.84-0.952 0.84-0.952 0.848-0.944 0.856-0.936 0.856-0.936 0.864-1.856 1.744-0.912 0.88-1.824 1.776-0.904 0.896-0.896 0.904-1.776 1.824-0.88 0.912-1.744 1.856-0.864 0.936-0.856 0.936-0.856 0.944-0.848 0.952-0.84 0.952-0.84 0.96-0.824 0.96-0.824 0.968-0.824 0.976-0.816 0.984-0.8 0.984-0.808 0.984-0.792 1-0.792 0.992-0.784 1.008-0.776 1.008-0.776 1.016-0.768 1.016-0.76 1.024-0.752 1.024-0.744 1.032-0.744 1.040-0.736 1.040-1.456 2.096-0.72 1.056-0.712 1.056-0.704 1.064-1.392 2.144-0.688 1.080-0.68 1.080-0.672 1.088-0.664 1.088-0.664 1.096-0.656 1.096-0.648 1.104-0.64 1.112-1.264 2.224-0.624 1.12-0.616 1.128-0.608 1.128-0.6 1.128-0.592 1.144-0.592 1.136-0.584 1.144-0.576 1.152-0.568 1.152-0.56 1.152-0.56 1.16-1.088 2.336-0.536 1.168-0.528 1.176-0.52 1.184-0.512 1.184-0.504 1.184-0.504 1.192-0.488 1.192-0.488 1.2-0.48 1.2-0.472 1.208-0.464 1.208-0.456 1.208-0.448 1.216-0.88 2.448-0.848 2.448-0.408 1.24-0.408 1.232-0.4 1.24-0.392 1.24-0.384 1.248-0.376 1.248-0.368 1.256-0.36 1.256-0.352 1.256-0.688 2.528-0.328 1.272-0.328 1.264-0.312 1.28-0.304 1.272-0.304 1.28-0.576 2.576-0.28 1.288-0.264 1.288-0.264 1.296-0.248 1.296-0.248 1.304-0.24 1.304-0.448 2.608-0.216 1.312-0.2 1.32-0.2 1.312-0.192 1.32-0.176 1.32-0.176 1.328-0.168 1.328-0.304 2.656-0.272 2.672-0.12 1.344-0.112 1.336-0.112 1.344-0.096 1.352-0.088 1.344-0.080 1.352-0.072 1.352-0.072 1.36-0.056 1.352-0.080 2.72-0.032 1.368-0.024 1.368-0.016 2.736v424l0.016 2.736 0.024 1.368 0.032 1.368 0.080 2.72 0.056 1.352 0.072 1.36 0.072 1.352 0.080 1.352 0.088 1.344 0.096 1.352 0.112 1.344 0.112 1.336 0.12 1.344 0.272 2.672 0.304 2.656 0.168 1.328 0.176 1.328 0.176 1.32 0.192 1.32 0.2 1.312 0.2 1.32 0.216 1.312 0.448 2.608 0.24 1.304 0.248 1.304 0.248 1.296 0.264 1.296 0.264 1.288 0.28 1.288 0.576 2.576 0.304 1.28 0.304 1.272 0.312 1.28 0.328 1.264 0.328 1.272 0.688 2.528 0.352 1.256 0.36 1.256 0.368 1.256 0.376 1.248 0.384 1.248 0.392 1.24 0.4 1.24 0.408 1.232 0.408 1.24 0.848 2.448 0.88 2.448 0.448 1.216 0.456 1.208 0.464 1.208 0.472 1.208 0.48 1.2 0.488 1.2 0.488 1.192 0.504 1.192 0.504 1.184 0.512 1.184 0.52 1.184 0.528 1.176 0.536 1.168 1.088 2.336 0.56 1.16 0.56 1.152 0.568 1.152 0.576 1.152 0.584 1.144 0.592 1.136 0.592 1.144 0.6 1.128 0.608 1.128 0.616 1.128 0.624 1.12 1.264 2.224 0.64 1.112 0.648 1.104 0.656 1.096 0.664 1.096 0.664 1.088 0.672 1.088 0.68 1.080 0.688 1.080 1.392 2.144 0.704 1.064 0.712 1.056 0.72 1.056 1.456 2.096 0.736 1.040 0.744 1.040 0.744 1.032 0.752 1.024 0.76 1.024 0.768 1.016 0.776 1.016 0.776 1.008 0.784 1.008 0.792 0.992 0.792 1 0.808 0.984 0.8 0.984 0.816 0.984 0.824 0.976 0.824 0.968 0.824 0.96 0.84 0.96 0.84 0.952 0.848 0.952 0.856 0.944 0.856 0.936 0.864 0.936 1.744 1.856 0.88 0.912 1.776 1.824 0.896 0.904 0.904 0.896 1.824 1.776 0.912 0.88 1.856 1.744 0.936 0.864 0.936 0.856 0.944 0.856 0.952 0.848 0.952 0.84 0.96 0.84 0.96 0.824 0.968 0.824 0.976 0.824 0.984 0.816 0.984 0.8 0.984 0.808 1 0.792 0.992 0.792 1.008 0.784 1.008 0.776 1.016 0.776 1.016 0.768 1.024 0.76 1.024 0.752 1.032 0.744 1.040 0.744 1.040 0.736 2.096 1.456 1.056 0.72 1.056 0.712 1.064 0.704 2.144 1.392 1.080 0.688 1.080 0.68 1.088 0.672 1.088 0.664 1.096 0.664 1.096 0.656 1.104 0.648 1.112 0.64 2.224 1.264 1.12 0.624 1.128 0.616 1.128 0.608 1.128 0.6 1.144 0.592 1.136 0.592 1.144 0.584 1.152 0.576 1.152 0.568 1.152 0.56 1.16 0.56 2.336 1.088 1.168 0.536 1.176 0.528 1.184 0.52 1.184 0.512 1.184 0.504 1.192 0.504 1.192 0.488 1.2 0.488 1.2 0.48 1.208 0.472 1.208 0.464 1.208 0.456 1.216 0.448 2.448 0.88 2.448 0.848 1.24 0.408 1.232 0.408 1.24 0.4 1.24 0.392 1.248 0.384 1.248 0.376 1.256 0.368 1.256 0.36 1.256 0.352 2.528 0.688 2.536 0.656 1.28 0.312 2.552 0.608 2.576 0.576 1.288 0.28 2.584 0.528 2.6 0.496 1.304 0.24 2.608 0.448 1.312 0.216 2.632 0.4 1.32 0.192 2.648 0.352 1.328 0.168 2.656 0.304 2.672 0.272 1.344 0.12 2.68 0.224 1.352 0.096 1.344 0.088 1.352 0.080 2.712 0.144 1.352 0.056 2.72 0.080 1.368 0.032 1.368 0.024 2.736 0.016 425.368-0.008zM300.096 824h-1.16l-2.104-0.032-1.088-0.024-2.112-0.064-2.096-0.096-1.064-0.056-2.088-0.128-2.064-0.16-3.128-0.288-1.016-0.112-1.040-0.112-1.048-0.12-1.024-0.128-2.024-0.272-1.048-0.152-1.024-0.152-0.984-0.152-2.040-0.336-3.016-0.552-1-0.192-2.984-0.624-0.976-0.216-2.016-0.464-1.96-0.48-1.96-0.504-0.968-0.264-0.976-0.264-1.936-0.552-0.976-0.288-0.952-0.288-0.96-0.296-0.976-0.304-0.952-0.304-0.944-0.312-0.96-0.328-0.96-0.32-0.92-0.328-0.936-0.328-0.976-0.352-0.928-0.344-0.928-0.352-0.936-0.36-0.936-0.368-0.944-0.376-0.896-0.36-0.928-0.384-0.904-0.384-0.928-0.392-0.936-0.408-0.904-0.392-1.808-0.824-0.904-0.416-0.888-0.416-0.896-0.432-1.792-0.88-0.912-0.456-0.848-0.432-0.888-0.456-0.88-0.464-0.872-0.464-0.88-0.472-0.848-0.464-0.888-0.496-0.88-0.496-0.848-0.48-1.704-1-0.848-0.504-0.848-0.512-0.864-0.528-0.816-0.504-0.84-0.528-1.672-1.072-0.84-0.552-0.8-0.528-0.824-0.552-0.832-0.568-0.824-0.568-0.784-0.552-0.8-0.56-0.792-0.568-0.816-0.592-0.808-0.592-0.784-0.584-0.8-0.6-0.768-0.584-0.784-0.608-0.792-0.616-0.76-0.608-0.776-0.616-1.536-1.248-0.744-0.624-0.768-0.648-0.728-0.616-0.736-0.64-0.8-0.688-0.744-0.656-0.696-0.624-1.448-1.32-0.752-0.696-0.712-0.664-0.72-0.68-1.384-1.336-0.744-0.728-0.704-0.696-0.68-0.696-0.696-0.704-0.664-0.68-0.68-0.72-0.72-0.752-0.68-0.72-0.648-0.704-0.64-0.704-0.664-0.736-0.696-0.776-0.632-0.712-0.648-0.752-0.648-0.744-0.624-0.744-0.648-0.768-0.608-0.736-0.64-0.776-0.624-0.768-0.608-0.76-0.624-0.792-0.608-0.784-0.6-0.768-0.608-0.8-0.584-0.776-0.568-0.768-0.624-0.848-0.576-0.792-0.544-0.76-0.576-0.816-0.576-0.824-0.56-0.816-0.552-0.8-0.56-0.848-0.544-0.816-0.536-0.816-0.552-0.856-0.52-0.816-0.52-0.832-1.040-1.68-0.504-0.832-0.52-0.88-0.504-0.856-0.496-0.856-0.488-0.856-0.48-0.856-0.48-0.864-0.48-0.872-0.464-0.864-0.472-0.888-0.464-0.88-0.448-0.88-0.456-0.888-0.424-0.848-0.464-0.936-0.44-0.904-0.408-0.864-0.424-0.896-0.848-1.84-0.392-0.872-1.2-2.76-0.392-0.944-0.368-0.896-0.384-0.936-0.36-0.904-0.368-0.952-0.368-0.944-0.336-0.904-0.36-0.96-0.336-0.928-0.328-0.912-0.328-0.968-0.336-0.976-0.312-0.936-0.328-0.976-0.592-1.872-0.304-1-0.288-0.944-0.28-0.952-0.288-1-0.272-0.952-0.256-0.96-0.272-1.016-0.256-0.976-0.248-0.968-0.24-0.968-0.232-0.984-0.248-1.024-0.224-0.984-0.208-0.936-0.216-1.040-0.208-1-0.2-0.992-0.2-1-0.184-1.008-0.192-1.048-0.176-0.968-0.16-0.968-0.168-1.056-0.168-1.024-0.152-1.024-0.144-1.024-0.136-0.976-0.136-1.032-0.128-1.040-0.12-1.032-0.112-1.048-0.112-1.040-0.096-1-0.096-1.048-0.096-1.056-0.080-1.008-0.072-1.064-0.072-1.056-0.064-1.024-0.056-1.064-0.056-1.072-0.040-1.024-0.032-1.032-0.032-1.080-0.024-1.080-0.016-1.040-0.016-1.048v-426.176l0.016-1.048 0.016-1.040 0.024-1.080 0.032-1.080 0.032-1.032 0.040-1.024 0.112-2.144 0.064-1.016 0.072-1.064 0.072-1.056 0.080-1.008 0.096-1.048 0.096-1.056 0.096-1 0.112-1.040 0.112-1.048 0.12-1.032 0.128-1.032 0.136-1.040 0.136-0.984 0.144-1.024 0.152-1.016 0.16-1.016 0.176-1.072 0.16-0.968 0.176-0.96 0.192-1.048 0.184-1 0.2-1.008 0.2-0.992 0.208-1 0.216-1.040 0.208-0.944 0.224-0.976 0.248-1.024 0.232-0.984 0.24-0.976 0.248-0.968 0.248-0.952 0.28-1.032 0.264-0.968 0.264-0.944 0.288-0.992 0.28-0.96 0.288-0.952 0.304-0.984 0.288-0.936 0.304-0.944 0.328-0.984 0.312-0.928 0.336-0.976 0.328-0.968 0.328-0.912 0.336-0.928 0.352-0.952 0.344-0.904 0.368-0.96 0.368-0.944 0.36-0.896 0.384-0.952 0.368-0.888 0.392-0.928 0.4-0.944 0.4-0.928 0.4-0.896 0.4-0.888 0.416-0.92 0.416-0.904 0.44-0.928 0.4-0.84 0.44-0.896 0.456-0.936 0.424-0.848 0.464-0.912 0.456-0.88 0.92-1.744 0.472-0.872 0.48-0.872 0.48-0.864 0.976-1.728 0.488-0.832 0.496-0.856 0.528-0.888 0.512-0.848 0.504-0.816 0.52-0.84 0.528-0.84 0.512-0.808 0.56-0.864 1.088-1.648 0.552-0.832 0.56-0.816 0.544-0.784 0.568-0.816 0.608-0.864 0.536-0.744 0.56-0.776 0.632-0.856 0.568-0.768 0.576-0.768 0.616-0.808 1.216-1.568 0.616-0.776 0.6-0.744 0.624-0.768 0.648-0.792 0.624-0.76 0.616-0.736 0.624-0.72 0.664-0.776 0.648-0.752 0.632-0.712 0.712-0.792 0.656-0.736 0.624-0.68 0.672-0.72 1.36-1.44 0.704-0.736 0.664-0.688 1.392-1.408 1.432-1.416 0.688-0.664 1.4-1.336 0.728-0.68 0.752-0.696 0.728-0.664 0.736-0.664 0.712-0.64 0.712-0.632 1.544-1.336 0.736-0.624 0.752-0.632 0.736-0.608 0.768-0.632 0.792-0.648 1.52-1.208 0.808-0.632 0.76-0.584 0.76-0.576 0.816-0.616 0.8-0.592 0.792-0.584 0.8-0.576 0.808-0.584 0.816-0.576 1.592-1.104 0.816-0.56 0.824-0.544 0.832-0.552 0.864-0.568 0.824-0.536 0.776-0.488 0.872-0.552 0.816-0.504 0.848-0.52 0.88-0.528 0.848-0.512 0.856-0.504 1.696-0.968 0.864-0.488 0.864-0.48 0.872-0.48 0.88-0.472 0.872-0.464 0.88-0.464 0.888-0.456 0.864-0.44 0.896-0.448 0.872-0.432 0.936-0.456 0.904-0.432 0.864-0.408 0.904-0.416 0.912-0.416 0.88-0.392 0.92-0.408 0.936-0.408 0.92-0.392 0.936-0.392 0.904-0.376 0.872-0.352 0.944-0.376 0.96-0.376 0.96-0.368 0.904-0.344 0.912-0.336 1.016-0.368 0.912-0.32 0.92-0.32 0.976-0.336 0.944-0.32 0.92-0.304 0.976-0.312 1-0.312 0.936-0.288 0.952-0.288 1.952-0.568 0.96-0.272 1.968-0.528 0.968-0.256 0.968-0.248 0.976-0.24 0.984-0.24 0.984-0.224 1.032-0.24 0.976-0.216 1.992-0.416 1.992-0.4 2.008-0.368 1.008-0.176 1.024-0.176 1.016-0.168 1.008-0.16 0.976-0.144 1.072-0.152 1.040-0.144 0.984-0.128 1.024-0.128 1.048-0.12 2.080-0.224 1-0.104 2.104-0.184 1.056-0.080 1.008-0.080 1.016-0.064 1.072-0.064 1.064-0.056 1.024-0.048 1.072-0.048 2.112-0.064 1.088-0.024 2.080-0.032 440.872 0.744 1 0.104 2.080 0.224 1.048 0.12 1.032 0.128 0.976 0.128 2.112 0.296 0.976 0.144 1.016 0.16 2.024 0.336 2.024 0.368 0.992 0.184 2 0.4 1.992 0.416 0.976 0.216 1.032 0.24 0.984 0.224 1.96 0.48 0.96 0.248 0.976 0.256 1.968 0.528 0.96 0.272 1.008 0.288 1.888 0.56 1.936 0.608 0.976 0.312 0.928 0.304 0.944 0.32 0.976 0.336 0.92 0.32 0.912 0.32 1.016 0.368 0.928 0.344 1.832 0.696 0.96 0.376 0.96 0.384 0.872 0.352 0.904 0.376 0.952 0.4 0.904 0.384 0.92 0.4 1.816 0.808 0.904 0.416 0.912 0.416 0.864 0.408 0.904 0.432 0.936 0.456 0.872 0.432 0.896 0.448 0.864 0.44 0.888 0.456 0.88 0.464 0.872 0.464 0.88 0.472 0.872 0.48 0.864 0.48 0.864 0.488 1.696 0.968 0.856 0.504 0.848 0.512 0.88 0.528 0.848 0.52 0.816 0.504 0.872 0.552 0.8 0.504 0.808 0.52 1.688 1.12 0.848 0.56 0.792 0.544 1.592 1.104 0.816 0.576 0.808 0.584 0.8 0.576 0.792 0.584 0.8 0.592 0.816 0.616 0.76 0.576 0.76 0.584 0.808 0.632 1.52 1.208 0.792 0.648 0.768 0.632 0.736 0.608 1.512 1.272 1.496 1.296 0.712 0.632 1.472 1.328 0.76 0.688 1.424 1.328 0.736 0.704 0.688 0.656 0.712 0.688 0.736 0.72 0.648 0.648 1.416 1.432 0.664 0.688 0.728 0.76 0.664 0.696 0.648 0.696 0.696 0.744 1.288 1.416 0.68 0.768 0.656 0.736 0.648 0.752 1.28 1.496 0.624 0.736 0.648 0.792 0.632 0.76 0.592 0.736 0.648 0.808 0.592 0.744 0.584 0.752 0.656 0.848 0.592 0.776 0.576 0.768 0.568 0.768 0.608 0.824 0.584 0.808 0.56 0.776 1.128 1.608 0.568 0.824 0.576 0.856 0.536 0.792 0.528 0.792 0.56 0.856 0.56 0.864 0.512 0.808 0.528 0.84 0.52 0.84 0.504 0.816 0.512 0.848 0.528 0.888 0.496 0.856 0.488 0.832 0.976 1.728 0.48 0.864 0.48 0.872 0.472 0.872 0.92 1.744 0.456 0.88 0.464 0.912 0.44 0.888 0.448 0.896 0.416 0.856 0.416 0.88 0.44 0.928 0.416 0.904 0.416 0.92 0.424 0.928 0.376 0.856 0.4 0.928 0.4 0.944 0.376 0.88 0.384 0.936 0.384 0.952 0.376 0.936 0.352 0.904 0.352 0.92 0.36 0.944 0.352 0.952 0.336 0.928 0.336 0.96 0.328 0.92 0.312 0.936 0.328 0.968 0.328 0.984 0.304 0.944 0.288 0.936 0.304 0.984 0.288 0.952 0.296 1 0.272 0.952 0.264 0.944 0.272 0.968 0.256 0.984 0.264 1 0.248 0.968 0.24 0.976 0.248 1.024 0.232 0.984 0.208 0.936 0.232 1.032 0.216 0.992 0.2 1 0.208 0.992 0.192 1.008 0.192 1 0.176 1 0.184 1.008 0.168 1.016 0.168 1.024 0.152 0.968 0.152 1.064 0.152 1.024 0.136 0.984 0.136 1.040 0.128 1.032 0.12 1.032 0.112 1.048 0.112 1.040 0.096 1 0.096 1.056 0.096 1.048 0.080 1.008 0.072 1.056 0.072 1.064 0.064 1.016 0.112 2.144 0.040 1.024 0.032 1.032 0.032 1.080 0.024 1.080 0.016 1.040 0.016 1.088v426.096l-0.016 1.088-0.016 1.040-0.024 1.080-0.032 1.080-0.032 1.032-0.040 1.024-0.056 1.072-0.056 1.064-0.064 1.024-0.072 1.056-0.072 1.064-0.080 1.008-0.096 1.056-0.096 1.048-0.096 1-0.112 1.040-0.112 1.048-0.12 1.032-0.128 1.040-0.136 1.032-0.136 0.976-0.144 1.024-0.16 1.072-0.152 0.976-0.168 1.016-0.168 1.008-0.184 1.016-0.176 1-0.192 1.008-0.192 1-0.208 0.992-0.2 1-0.216 0.992-0.232 1.032-0.208 0.936-0.232 0.984-0.248 1.024-0.24 0.968-0.248 0.968-0.264 1.024-0.256 0.968-0.264 0.96-0.544 1.904-0.296 1-0.288 0.944-0.304 1-0.592 1.872-0.656 1.952-0.312 0.936-0.328 0.92-0.336 0.96-0.336 0.928-0.36 0.96-0.352 0.952-0.352 0.896-0.352 0.912-0.376 0.944-0.384 0.936-0.384 0.944-0.376 0.896-0.4 0.92-0.392 0.92-0.392 0.88-0.408 0.912-0.848 1.84-0.424 0.896-0.424 0.904-0.864 1.76-0.448 0.888-0.456 0.888-0.448 0.88-0.464 0.88-0.472 0.888-0.464 0.864-0.48 0.872-0.48 0.864-0.48 0.856-0.488 0.856-0.496 0.856-0.504 0.856-0.52 0.88-0.504 0.832-1.040 1.68-0.52 0.832-0.52 0.816-0.552 0.856-0.552 0.848-1.072 1.592-0.568 0.84-0.584 0.848-0.552 0.792-0.552 0.784-0.568 0.792-0.6 0.824-0.6 0.816-0.568 0.768-0.584 0.776-0.584 0.768-0.648 0.832-0.584 0.752-0.6 0.76-0.656 0.816-0.6 0.744-0.616 0.752-0.632 0.76-0.648 0.768-0.624 0.744-0.648 0.744-0.648 0.752-0.656 0.744-0.672 0.744-0.64 0.712-0.664 0.728-0.672 0.728-0.656 0.696-0.696 0.728-0.704 0.744-0.664 0.68-1.408 1.424-0.672 0.672-0.72 0.704-1.408 1.36-0.744 0.704-0.688 0.64-0.72 0.672-0.76 0.688-0.72 0.656-0.72 0.648-0.744 0.648-0.744 0.656-1.496 1.272-0.768 0.648-0.752 0.624-0.768 0.624-0.76 0.624-0.776 0.616-0.76 0.608-0.792 0.616-1.552 1.192-0.8 0.6-0.784 0.584-0.808 0.592-0.816 0.592-0.792 0.568-0.8 0.56-0.808 0.568-0.8 0.552-1.656 1.12-0.816 0.544-0.824 0.536-1.672 1.072-0.84 0.528-0.816 0.504-0.864 0.528-0.848 0.512-0.848 0.504-1.704 1-0.848 0.48-0.88 0.496-0.888 0.496-0.848 0.464-0.88 0.472-0.872 0.464-0.88 0.464-0.888 0.456-0.848 0.432-0.912 0.456-1.792 0.88-0.896 0.432-0.888 0.416-0.912 0.416-0.904 0.416-0.896 0.408-2.744 1.192-1.856 0.768-1.856 0.744-0.936 0.368-1.832 0.696-0.944 0.352-0.976 0.352-0.936 0.328-0.92 0.328-0.96 0.32-0.96 0.328-0.944 0.312-0.96 0.304-1.936 0.608-1.912 0.568-1.944 0.552-0.976 0.264-0.968 0.264-1 0.256-0.96 0.248-0.976 0.24-0.984 0.24-2.016 0.464-0.976 0.216-2.992 0.624-0.992 0.192-3.024 0.552-2.024 0.336-1 0.152-1.016 0.152-1.056 0.152-2.008 0.272-1.032 0.128-1.048 0.12-1.040 0.112-1.016 0.112-1.024 0.096-2.104 0.192-2.064 0.16-2.088 0.128-1.064 0.056-2.096 0.096-2.112 0.064-1.088 0.024-2.096 0.032h-424.976z" />
<glyph unicode="&#xe92e;" glyph-name="round-page-up" d="M515.416 935.76c176.28-1.68 346.688-105.32 428.696-260.664 70.288-133.144 74.056-299.656 9.272-436.144-91.304-192.352-316.248-312.112-533.456-270.448-199.16 38.2-364.44 212.816-391.344 414.096-20.584 153.976 37.36 316.28 151.32 422.368 88.512 82.4 208.064 129.64 329.2 130.792 2.104 0 4.208 0 6.312 0zM509.56 863.76c-200.544-1.944-388.272-162.112-410.872-370.808-21.968-202.784 124.864-412.12 332.256-453.24 169.648-33.632 355.792 50.976 442.216 201.144 64.824 112.624 72.352 256.648 19.392 375.688-64.496 144.992-217.36 245.664-377.592 247.216-1.8 0-3.6 0-5.4 0zM512 624l192-352h-384l192 352z" />
<glyph unicode="&#xe92f;" glyph-name="round-page-down" d="M515.416 935.76c176.28-1.68 346.688-105.32 428.696-260.664 70.288-133.144 74.056-299.656 9.272-436.144-91.304-192.352-316.248-312.112-533.456-270.448-199.16 38.2-364.44 212.816-391.344 414.096-20.584 153.976 37.36 316.28 151.32 422.368 88.512 82.4 208.064 129.64 329.2 130.792 2.104 0 4.208 0 6.312 0zM509.56 863.76c-200.544-1.944-388.272-162.112-410.872-370.808-21.968-202.784 124.864-412.12 332.256-453.24 169.648-33.632 355.792 50.976 442.216 201.144 64.824 112.624 72.352 256.648 19.392 375.688-64.496 144.992-217.36 245.664-377.592 247.216-1.8 0-3.6 0-5.4 0zM512 272l-192 352h384l-192-352z" />
<glyph unicode="&#xe930;" glyph-name="round-previous" d="M515.416 935.76c176.28-1.68 346.688-105.32 428.696-260.664 70.288-133.144 74.056-299.656 9.272-436.144-91.304-192.352-316.248-312.112-533.456-270.448-199.16 38.2-364.44 212.816-391.344 414.096-20.584 153.976 37.36 316.28 151.32 422.368 88.512 82.4 208.064 129.64 329.2 130.792 2.104 0 4.208 0 6.312 0zM509.56 863.76c-200.544-1.944-388.272-162.112-410.872-370.808-21.968-202.784 124.864-412.12 332.256-453.24 169.648-33.632 355.792 50.976 442.216 201.144 64.824 112.624 72.352 256.648 19.392 375.688-64.496 144.992-217.36 245.664-377.592 247.216-1.8 0-3.6 0-5.4 0zM336 448l352.008 192v-384l-352.008 192z" />
<glyph unicode="&#xe931;" glyph-name="round-next" d="M515.416 935.76c176.28-1.68 346.688-105.32 428.696-260.664 70.288-133.144 74.056-299.656 9.272-436.144-91.304-192.352-316.248-312.112-533.456-270.448-199.16 38.2-364.44 212.816-391.344 414.096-20.584 153.976 37.36 316.28 151.32 422.368 88.512 82.4 208.064 129.64 329.2 130.792 2.104 0 4.208 0 6.312 0zM509.56 863.76c-200.544-1.944-388.272-162.112-410.872-370.808-21.968-202.784 124.864-412.12 332.256-453.24 169.648-33.632 355.792 50.976 442.216 201.144 64.824 112.624 72.352 256.648 19.392 375.688-64.496 144.992-217.36 245.664-377.592 247.216-1.8 0-3.6 0-5.4 0zM704 448l-351.992-192v384l351.992-192z" />
<glyph unicode="&#xe932;" glyph-name="round-up" d="M515.416 935.76c176.28-1.68 346.688-105.32 428.696-260.664 70.288-133.144 74.056-299.656 9.272-436.144-91.304-192.352-316.248-312.112-533.456-270.448-199.16 38.2-364.44 212.816-391.344 414.096-20.584 153.976 37.36 316.28 151.32 422.368 88.512 82.4 208.064 129.64 329.2 130.792 2.104 0 4.208 0 6.312 0zM509.56 863.76c-200.544-1.944-388.272-162.112-410.872-370.808-21.968-202.784 124.864-412.12 332.256-453.24 169.648-33.632 355.792 50.976 442.216 201.144 64.824 112.624 72.352 256.648 19.392 375.688-64.496 144.992-217.36 245.664-377.592 247.216-1.8 0-3.6 0-5.4 0zM816.16 355.144l-76.128-85.064-228.032 250.928-228.032-250.928-76.128 85.064 304.16 334.696c101.384-111.56 202.776-223.128 304.16-334.696z" />
<glyph unicode="&#xe933;" glyph-name="round-down" d="M515.416 935.76c176.28-1.68 346.688-105.32 428.696-260.664 70.288-133.144 74.056-299.656 9.272-436.144-91.304-192.352-316.248-312.112-533.456-270.448-199.16 38.2-364.44 212.816-391.344 414.096-20.584 153.976 37.36 316.28 151.32 422.368 88.512 82.4 208.064 129.64 329.2 130.792 2.104 0 4.208 0 6.312 0zM509.56 863.76c-200.544-1.944-388.272-162.112-410.872-370.808-21.968-202.784 124.864-412.12 332.256-453.24 169.648-33.632 355.792 50.976 442.216 201.144 64.824 112.624 72.352 256.648 19.392 375.688-64.496 144.992-217.36 245.664-377.592 247.216-1.8 0-3.6 0-5.4 0zM512 358.992l228.032 250.928 76.128-85.064-304.16-334.696-304.16 334.696 76.128 85.064c76.008-83.648 152.024-167.288 228.032-250.928z" />
<glyph unicode="&#xe934;" glyph-name="round-left" d="M515.416 935.76c176.28-1.68 346.688-105.32 428.696-260.664 70.288-133.144 74.056-299.656 9.272-436.144-91.304-192.352-316.248-312.112-533.456-270.448-199.16 38.2-364.44 212.816-391.344 414.096-20.584 153.976 37.36 316.28 151.32 422.368 88.512 82.4 208.064 129.64 329.2 130.792 2.104 0 4.208 0 6.312 0zM509.56 863.76c-200.544-1.944-388.272-162.112-410.872-370.808-21.968-202.784 124.864-412.12 332.256-453.24 169.648-33.632 355.792 50.976 442.216 201.144 64.824 112.624 72.352 256.648 19.392 375.688-64.496 144.992-217.36 245.664-377.592 247.216-1.8 0-3.6 0-5.4 0zM689.672 676.032l-250.928-228.032 250.928-228.032-85.064-76.128-334.696 304.16 334.696 304.16c28.352-25.376 56.704-50.752 85.064-76.128z" />
<glyph unicode="&#xe935;" glyph-name="round-right" d="M515.416 935.76c176.28-1.68 346.688-105.32 428.696-260.664 70.288-133.144 74.056-299.656 9.272-436.144-91.304-192.352-316.248-312.112-533.456-270.448-199.16 38.2-364.44 212.816-391.344 414.096-20.584 153.976 37.36 316.28 151.32 422.368 88.512 82.4 208.064 129.64 329.2 130.792 2.104 0 4.208 0 6.312 0zM509.56 863.76c-200.544-1.944-388.272-162.112-410.872-370.808-21.968-202.784 124.864-412.12 332.256-453.24 169.648-33.632 355.792 50.976 442.216 201.144 64.824 112.624 72.352 256.648 19.392 375.688-64.496 144.992-217.36 245.664-377.592 247.216-1.8 0-3.6 0-5.4 0zM753.84 448l-334.696-304.16-85.064 76.128 250.928 228.032-250.928 228.032 85.064 76.128c111.568-101.384 223.136-202.776 334.696-304.16z" />
<glyph unicode="&#xe936;" glyph-name="round-checkmark" d="M515.416 935.76c176.28-1.68 346.688-105.32 428.696-260.664 70.288-133.144 74.056-299.656 9.272-436.144-91.304-192.352-316.248-312.112-533.456-270.448-199.16 38.2-364.44 212.816-391.344 414.096-20.584 153.976 37.36 316.28 151.32 422.368 88.512 82.4 208.064 129.64 329.2 130.792 2.104 0 4.208 0 6.312 0zM509.56 863.76c-200.544-1.944-388.272-162.112-410.872-370.808-21.968-202.784 124.864-412.12 332.256-453.24 169.648-33.632 355.792 50.976 442.216 201.144 64.824 112.624 72.352 256.648 19.392 375.688-64.496 144.992-217.36 245.664-377.592 247.216-1.8 0-3.6 0-5.4 0zM794.84 583.768c-116.904-116.912-233.816-233.824-350.72-350.728l-214.96 214.96 79.192 79.192 135.768-135.76 271.528 271.528c26.4-26.4 52.792-52.792 79.192-79.192z" />
<glyph unicode="&#xe937;" glyph-name="round-delete" d="M515.416 935.76c176.28-1.68 346.688-105.32 428.696-260.664 70.288-133.144 74.056-299.656 9.272-436.144-91.304-192.352-316.248-312.112-533.456-270.448-199.16 38.2-364.44 212.816-391.344 414.096-20.584 153.976 37.36 316.28 151.32 422.368 88.512 82.4 208.064 129.64 329.2 130.792 2.104 0 4.208 0 6.312 0zM509.56 863.76c-200.544-1.944-388.272-162.112-410.872-370.808-21.968-202.784 124.864-412.12 332.256-453.24 169.648-33.632 355.792 50.976 442.216 201.144 64.824 112.624 72.352 256.648 19.392 375.688-64.496 144.992-217.36 245.664-377.592 247.216-1.8 0-3.6 0-5.4 0zM743.6 600.4l-152.408-152.4 152.408-152.4-79.2-79.2-152.4 152.408-152.4-152.408-79.2 79.2 152.408 152.4-152.408 152.4 79.2 79.2 152.4-152.4 152.4 152.4c26.4-26.4 52.8-52.8 79.2-79.2z" />
<glyph unicode="&#xe938;" glyph-name="round-add" d="M515.416 935.76c176.28-1.68 346.688-105.32 428.696-260.664 70.288-133.144 74.056-299.656 9.272-436.144-91.304-192.352-316.248-312.112-533.456-270.448-199.16 38.2-364.44 212.816-391.344 414.096-20.584 153.976 37.36 316.28 151.32 422.368 88.512 82.4 208.064 129.64 329.2 130.792 2.104 0 4.208 0 6.312 0zM509.56 863.76c-200.544-1.944-388.272-162.112-410.872-370.808-21.968-202.784 124.864-412.12 332.256-453.24 169.648-33.632 355.792 50.976 442.216 201.144 64.824 112.624 72.352 256.648 19.392 375.688-64.496 144.992-217.36 245.664-377.592 247.216-1.8 0-3.6 0-5.4 0zM568 504h215.528v-112h-215.528v-215.528h-112v215.528h-215.528v112h215.528v215.528h112v-215.528z" />
<glyph unicode="&#xe939;" glyph-name="round-remove" d="M515.416 935.76c176.28-1.68 346.688-105.32 428.696-260.664 70.288-133.144 74.056-299.656 9.272-436.144-91.304-192.352-316.248-312.112-533.456-270.448-199.16 38.2-364.44 212.816-391.344 414.096-20.584 153.976 37.36 316.28 151.32 422.368 88.512 82.4 208.064 129.64 329.2 130.792 2.104 0 4.208 0 6.312 0zM509.56 863.76c-200.544-1.944-388.272-162.112-410.872-370.808-21.968-202.784 124.864-412.12 332.256-453.24 169.648-33.632 355.792 50.976 442.216 201.144 64.824 112.624 72.352 256.648 19.392 375.688-64.496 144.992-217.36 245.664-377.592 247.216-1.8 0-3.6 0-5.4 0zM240.472 504h543.056v-112h-543.056v112z" />
<glyph unicode="&#xe93a;" glyph-name="round-control-previous" d="M515.416 935.76c176.28-1.68 346.688-105.32 428.696-260.664 70.288-133.144 74.056-299.656 9.272-436.144-91.304-192.352-316.248-312.112-533.456-270.448-199.16 38.2-364.44 212.816-391.344 414.096-20.584 153.976 37.36 316.28 151.32 422.368 88.512 82.4 208.064 129.64 329.2 130.792 2.104 0 4.208 0 6.312 0zM509.56 863.76c-200.544-1.944-388.272-162.112-410.872-370.808-21.968-202.784 124.864-412.12 332.256-453.24 169.648-33.632 355.792 50.976 442.216 201.144 64.824 112.624 72.352 256.648 19.392 375.688-64.496 144.992-217.36 245.664-377.592 247.216-1.8 0-3.6 0-5.4 0zM291.976 448l256-192v384l-256-192zM587.92 640h48.112v-384h-48.112v384z" />
<glyph unicode="&#xe93b;" glyph-name="round-control-next" d="M515.416 935.76c176.28-1.68 346.688-105.32 428.696-260.664 70.288-133.144 74.056-299.656 9.272-436.144-91.304-192.352-316.248-312.112-533.456-270.448-199.16 38.2-364.44 212.816-391.344 414.096-20.584 153.976 37.36 316.28 151.32 422.368 88.512 82.4 208.064 129.64 329.2 130.792 2.104 0 4.208 0 6.312 0zM509.56 863.76c-200.544-1.944-388.272-162.112-410.872-370.808-21.968-202.784 124.864-412.12 332.256-453.24 169.648-33.632 355.792 50.976 442.216 201.144 64.824 112.624 72.352 256.648 19.392 375.688-64.496 144.992-217.36 245.664-377.592 247.216-1.8 0-3.6 0-5.4 0zM732.024 448l-256-192v384l256-192zM387.976 640h48.112v-384h-48.112v384z" />
<glyph unicode="&#xe93c;" glyph-name="round-control-record" d="M515.416 935.76c176.28-1.68 346.688-105.32 428.696-260.664 70.288-133.144 74.056-299.656 9.272-436.144-91.304-192.352-316.248-312.112-533.456-270.448-199.16 38.2-364.44 212.816-391.344 414.096-20.584 153.976 37.36 316.28 151.32 422.368 88.512 82.4 208.064 129.64 329.2 130.792 2.104 0 4.208 0 6.312 0zM509.56 863.76c-200.544-1.944-388.272-162.112-410.872-370.808-21.968-202.784 124.864-412.12 332.256-453.24 169.648-33.632 355.792 50.976 442.216 201.144 64.824 112.624 72.352 256.648 19.392 375.688-64.496 144.992-217.36 245.664-377.592 247.216-1.8 0-3.6 0-5.4 0zM704 448c0-106.039-85.961-192-192-192s-192 85.961-192 192c0 106.039 85.961 192 192 192s192-85.961 192-192z" />
<glyph unicode="&#xe93d;" glyph-name="round-control-stop" d="M515.416 935.76c176.28-1.68 346.688-105.32 428.696-260.664 70.288-133.144 74.056-299.656 9.272-436.144-91.304-192.352-316.248-312.112-533.456-270.448-199.16 38.2-364.44 212.816-391.344 414.096-20.584 153.976 37.36 316.28 151.32 422.368 88.512 82.4 208.064 129.64 329.2 130.792 2.104 0 4.208 0 6.312 0zM509.56 863.76c-200.544-1.944-388.272-162.112-410.872-370.808-21.968-202.784 124.864-412.12 332.256-453.24 169.648-33.632 355.792 50.976 442.216 201.144 64.824 112.624 72.352 256.648 19.392 375.688-64.496 144.992-217.36 245.664-377.592 247.216-1.8 0-3.6 0-5.4 0zM336 624h352v-352h-352v352z" />
<glyph unicode="&#xe93e;" glyph-name="round-control-play" d="M515.416 935.76c176.28-1.68 346.688-105.32 428.696-260.664 70.288-133.144 74.056-299.656 9.272-436.144-91.304-192.352-316.248-312.112-533.456-270.448-199.16 38.2-364.44 212.816-391.344 414.096-20.584 153.976 37.36 316.28 151.32 422.368 88.512 82.4 208.064 129.64 329.2 130.792 2.104 0 4.208 0 6.312 0zM509.56 863.76c-200.544-1.944-388.272-162.112-410.872-370.808-21.968-202.784 124.864-412.12 332.256-453.24 169.648-33.632 355.792 50.976 442.216 201.144 64.824 112.624 72.352 256.648 19.392 375.688-64.496 144.992-217.36 245.664-377.592 247.216-1.8 0-3.6 0-5.4 0zM720 448l-336-252v504l336-252z" />
<glyph unicode="&#xe93f;" glyph-name="round-control-play-backward" d="M515.416 935.76c176.28-1.68 346.688-105.32 428.696-260.664 70.288-133.144 74.056-299.656 9.272-436.144-91.304-192.352-316.248-312.112-533.456-270.448-199.16 38.2-364.44 212.816-391.344 414.096-20.584 153.976 37.36 316.28 151.32 422.368 88.512 82.4 208.064 129.64 329.2 130.792 2.104 0 4.208 0 6.312 0zM509.56 863.76c-200.544-1.944-388.272-162.112-410.872-370.808-21.968-202.784 124.864-412.12 332.256-453.24 169.648-33.632 355.792 50.976 442.216 201.144 64.824 112.624 72.352 256.648 19.392 375.688-64.496 144.992-217.36 245.664-377.592 247.216-1.8 0-3.6 0-5.4 0zM304 448l336-252v504l-336-252z" />
<glyph unicode="&#xe940;" glyph-name="round-control-pause" d="M515.416 935.76c176.28-1.68 346.688-105.32 428.696-260.664 70.288-133.144 74.056-299.656 9.272-436.144-91.304-192.352-316.248-312.112-533.456-270.448-199.16 38.2-364.44 212.816-391.344 414.096-20.584 153.976 37.36 316.28 151.32 422.368 88.512 82.4 208.064 129.64 329.2 130.792 2.104 0 4.208 0 6.312 0zM509.56 863.76c-200.544-1.944-388.272-162.112-410.872-370.808-21.968-202.784 124.864-412.12 332.256-453.24 169.648-33.632 355.792 50.976 442.216 201.144 64.824 112.624 72.352 256.648 19.392 375.688-64.496 144.992-217.36 245.664-377.592 247.216-1.8 0-3.6 0-5.4 0zM368.264 672h104.536v-448h-104.536v448zM551.2 672h104.536v-448h-104.536v448z" />
<glyph unicode="&#xe941;" glyph-name="round-info" d="M515.416 935.76c176.28-1.68 346.688-105.32 428.696-260.664 70.288-133.144 74.056-299.656 9.272-436.144-91.304-192.352-316.248-312.112-533.456-270.448-199.16 38.2-364.44 212.816-391.344 414.096-20.584 153.976 37.36 316.28 151.32 422.368 88.512 82.4 208.064 129.64 329.2 130.792 2.104 0 4.208 0 6.312 0zM509.56 863.76c-200.544-1.944-388.272-162.112-410.872-370.808-21.968-202.784 124.864-412.12 332.256-453.24 169.648-33.632 355.792 50.976 442.216 201.144 64.824 112.624 72.352 256.648 19.392 375.688-64.496 144.992-217.36 245.664-377.592 247.216-1.8 0-3.6 0-5.4 0zM565.12 639.56c0-36.76-29.8-66.56-66.56-66.56s-66.56 29.8-66.56 66.56c0 36.76 29.8 66.56 66.56 66.56s66.56-29.8 66.56-66.56zM459.384 494.248l-26.52 15.112 104.872 3.28v-297.448l54.264-25.312h-159.136l26.52 25.312v279.056z" />
<glyph unicode="&#xe942;" glyph-name="round-warning" d="M515.416 935.76c176.28-1.68 346.688-105.32 428.696-260.664 70.288-133.144 74.056-299.656 9.272-436.144-91.304-192.352-316.248-312.112-533.456-270.448-199.16 38.2-364.44 212.816-391.344 414.096-20.584 153.976 37.36 316.28 151.32 422.368 88.512 82.4 208.064 129.64 329.2 130.792 2.104 0 4.208 0 6.312 0zM509.56 863.76c-200.544-1.944-388.272-162.112-410.872-370.808-21.968-202.784 124.864-412.12 332.256-453.24 169.648-33.632 355.792 50.976 442.216 201.144 64.824 112.624 72.352 256.648 19.392 375.688-64.496 144.992-217.36 245.664-377.592 247.216-1.8 0-3.6 0-5.4 0zM558.664 225.584c0-25.772-20.892-46.664-46.664-46.664s-46.664 20.892-46.664 46.664c0 25.772 20.892 46.664 46.664 46.664s46.664-20.892 46.664-46.664zM456 716.704l112 0.384-22.264-397.984-67.040-0.24v0.624h-0.432l-22.264 397.216z" />
<glyph unicode="&#xe943;" glyph-name="round-question" d="M515.416 935.76c176.28-1.68 346.688-105.32 428.696-260.664 70.288-133.144 74.056-299.656 9.272-436.144-91.304-192.352-316.248-312.112-533.456-270.448-199.16 38.2-364.44 212.816-391.344 414.096-20.584 153.976 37.36 316.28 151.32 422.368 88.512 82.4 208.064 129.64 329.2 130.792 2.104 0 4.208 0 6.312 0zM509.56 863.76c-200.544-1.944-388.272-162.112-410.872-370.808-21.968-202.784 124.864-412.12 332.256-453.24 169.648-33.632 355.792 50.976 442.216 201.144 64.824 112.624 72.352 256.648 19.392 375.688-64.496 144.992-217.36 245.664-377.592 247.216-1.8 0-3.6 0-5.4 0zM552.432 225.28c0-25.67-20.81-46.48-46.48-46.48s-46.48 20.81-46.48 46.48c0 25.67 20.81 46.48 46.48 46.48s46.48-20.81 46.48-46.48zM462.904 366.048l-10.112 67.976c35.928 5.352 72.632 9.904 103.56 29.872 40.248 25.984 70.352 77.392 43.264 123.192-27.456 46.416-97.296 60.24-148.176 38.088-11.144-4.848-20.728-14.104-29.528-23.504 0 0-28.544-31.656-28.544-31.656l-60.584 54.608 28.272 31.376c5.168 5.608 5.88 6.2 8.704 8.904 13.056 12.528 27.52 24.144 43.24 32.336 5.224 2.728 6.040 2.808 8.4 3.8 25.848 10.856 54.184 16.232 82.16 16.16 78.072-0.704 159.416-45.96 181.552-124.144 11.84-41.824 6.4-87.832-15.72-126.664-25.56-44.872-68.872-77.464-116.752-94.936l-17.968-54.344-66.824-0.12-4.944 49.056z" />
<glyph unicode="&#xe944;" glyph-name="round" d="M515.152 935.992c176.288-1.68 346.688-105.32 428.704-260.664 70.28-133.136 74.056-299.656 9.272-436.144-91.304-192.352-316.248-312.112-533.456-270.448-199.168 38.208-364.44 212.816-391.352 414.096-20.584 153.976 37.368 316.28 151.32 422.368 88.512 82.4 208.064 129.64 329.208 130.792 2.104 0.008 4.2 0.008 6.304 0zM509.304 863.992c-200.552-1.944-388.272-162.112-410.88-370.808-21.96-202.784 124.864-412.12 332.264-453.24 169.648-33.632 355.792 50.976 442.216 201.144 64.816 112.624 72.352 256.648 19.392 375.688-64.504 144.992-217.36 245.664-377.592 247.216-1.8 0.008-3.6 0.008-5.4 0z" />
<glyph unicode="&#xe945;" glyph-name="quotes-left" d="M68.272 700.048c36.728 77.672 101.6 148.224 184.856 174.792 47.664 15.216 100.344 22.928 152.832 22.808 21.88 1.696 67.512-8.040 68.392-9.344v-92.208c0.144-0.112 0.152-0.224 0-0.32v0.32c-2.96 2.328-63.728 8.336-75.416 7.784-0.2-0.016-0.32 0.024-0.36 0.024-98.776-1.896-171.44-53.96-197.016-120.568-0.24-0.64-0.48-1.272-0.72-1.912 3.44-6.912 6.664-14.32 9.656-22.168 14.488 3.056 29.512 4.656 44.896 4.656 120.848 0 218.96-98.968 218.96-220.88 0-121.904-98.112-220.88-218.96-220.88-76.104 0-143.192 39.248-182.432 98.76-29.424 40.528-48.96 111.848-48.96 192.992 0 76.752 17.48 144.712 44.272 186.144zM593.816 700.048c36.72 77.672 101.6 148.224 184.848 174.792 47.672 15.216 100.344 22.928 152.832 22.808 21.88 1.696 67.52-8.040 68.392-9.344v-92.208c0.144-0.112 0.152-0.224 0-0.32v0.32c-2.952 2.328-63.72 8.336-75.416 7.784-0.2-0.016-0.32 0.024-0.36 0.024-98.776-1.896-171.44-53.96-197.008-120.568-0.248-0.64-0.488-1.272-0.72-1.912 3.432-6.912 6.664-14.32 9.648-22.168 14.496 3.056 29.512 4.656 44.896 4.656 120.848 0 218.96-98.968 218.96-220.88 0-121.904-98.112-220.88-218.96-220.88-76.104 0-143.184 39.248-182.432 98.76-29.416 40.528-48.96 111.848-48.96 192.992 0 76.752 17.488 144.712 44.28 186.144z" />
<glyph unicode="&#xe946;" glyph-name="quotes-right" d="M955.728 197.792c-36.728-77.664-101.6-148.216-184.856-174.792-47.664-15.216-100.344-22.92-152.832-22.8-21.88-1.704-67.512 8.032-68.392 9.344v92.208c-0.144 0.112-0.152 0.216 0 0.312v-0.312c2.96-2.328 63.728-8.336 75.416-7.784 0.2 0.008 0.32-0.024 0.36-0.024 98.776 1.888 171.44 53.96 197.016 120.568 0.24 0.632 0.48 1.272 0.72 1.904-3.44 6.92-6.664 14.328-9.656 22.176-14.488-3.056-29.512-4.656-44.896-4.656-120.848 0-218.96 98.968-218.96 220.88 0 121.904 98.112 220.88 218.96 220.88 76.104 0 143.192-39.248 182.432-98.76 29.424-40.528 48.96-111.848 48.96-192.992 0-76.752-17.48-144.72-44.272-186.152zM430.184 197.792c-36.72-77.664-101.6-148.216-184.848-174.792-47.672-15.216-100.344-22.92-152.832-22.8-21.88-1.704-67.52 8.032-68.392 9.344v92.208c-0.144 0.112-0.152 0.216 0 0.312v-0.312c2.952-2.328 63.72-8.336 75.416-7.784 0.2 0.008 0.32-0.024 0.36-0.024 98.776 1.888 171.44 53.96 197.008 120.568 0.248 0.632 0.488 1.272 0.72 1.904-3.432 6.92-6.664 14.328-9.648 22.176-14.496-3.056-29.512-4.656-44.896-4.656-120.848 0-218.96 98.968-218.96 220.88 0 121.904 98.112 220.88 218.96 220.88 76.104 0 143.184-39.248 182.432-98.76 29.416-40.528 48.96-111.848 48.96-192.992 0-76.752-17.488-144.72-44.28-186.152z" />
<glyph unicode="&#xe947;" glyph-name="device-smartphone" d="M635.888 128h-263.96c-19.192 0-34.768 15.576-34.768 34.768v548.792c0 19.192 15.576 34.768 34.768 34.768h262.464v14.776c0 3.808 3.088 6.896 6.896 6.896h9.352c3.808 0 6.896-3.088 6.896-6.896v-22.352c7.992-6.368 13.112-16.184 13.112-27.192v-548.792c0-19.192-15.576-34.768-34.76-34.768zM612.184 707.16h-216.56c-17.936 0-28.52-12.424-28.52-30.36v-479.28c0-17.936 10.584-30.36 28.52-30.36h216.56c17.936 0 28.52 12.424 28.52 30.36v479.28c0 17.936-10.584 30.36-28.52 30.36z" />
<glyph unicode="&#xe948;" glyph-name="device-tablet" d="M882.864 128h-741.728c-0.752 0-1.464 0.176-2.104 0.48-0.056 0.032-0.12 0.064-0.176 0.096l-0.048 0.024-0.104 0.056c-1.464 0.856-2.456 2.464-2.456 4.312v438.064c0 0.048 0 0.088 0 0.128v0 0.048l0.008 0.080v0.064l0.008 0.064 0.008 0.072v0.056l0.008 0.080 0.008 0.040 0.016 0.104v0.024l0.024 0.12c0.408 2.32 2.408 4.088 4.808 4.088h741.728c2.4 0 4.4-1.768 4.808-4.088l0.024-0.12 0.016-0.128 0.016-0.12 0.024-0.384v-0.128c0 0 0-438.064 0-438.064 0-0.232-0.016-0.464-0.048-0.688l-0.008-0.072-0.024-0.12c-0.056-0.336-0.144-0.656-0.272-0.968-0.504-1.28-1.52-2.304-2.792-2.792-0.12-0.048-0.248-0.088-0.368-0.128l-0.040-0.008-0.104-0.032c-0.072-0.016-0.152-0.040-0.232-0.056-0.32-0.064-0.656-0.104-1-0.104zM834.376 174.8v354.4h-644.8v-354.4h644.8zM149.744 176.408c-4.24 0-7.688-3.416-7.688-7.624 0-4.216 3.448-7.632 7.688-7.632 4.248 0 7.688 3.416 7.688 7.632 0 4.208-3.44 7.624-7.688 7.624z" />
<glyph unicode="&#xe949;" glyph-name="device-laptop" d="M947.816 128h-871.632c-4.912 0-8.896 3.984-8.896 8.896v17.784c0 4.912 3.984 8.896 8.896 8.896h45.8v473.616l1.728 2.592 1.072 0.216h774.12c0.352-0.072 0.712-0.144 1.072-0.216 2.064-1.384 1.728-2.592 1.728-2.592v-472.608c0.112-0.208 0.216-0.712 0.312-1.008h45.8c4.912 0 8.896-3.984 8.896-8.896v-17.784c0-4.912-3.984-8.896-8.896-8.896zM868.256 601.872h-712.8v-396h712.8v396z" />
<glyph unicode="&#xe94a;" glyph-name="device-desktop" d="M612.464 178.080v-22.68l25.048-22.6v-2.592c-82.168-2.936-165.832-2.952-251.016 0v2.592l25.040 22.584v22.696h-364.96c-3.616 0-6.544 2.936-6.544 6.544v576.84c0 3.608 2.928 6.536 6.544 6.536h930.848c3.616 0 6.544-2.928 6.544-6.536v-576.84c0-3.552-2.84-6.448-6.368-6.536l-0.176-0.008h-364.96zM944.208 236.512v485.6h-864v-485.6h864z" />
<glyph unicode="&#xe94b;" glyph-name="device-tv" d="M768.32 128h0.704c59.648 0.384 107.968 48.928 107.968 108.672v330.144c0 59.976-48.688 108.664-108.672 108.672h-176.648c-12.488 16.688-43.464 28.512-79.664 28.512-36.208 0-67.184-11.824-79.664-28.512h-176.664c-59.976 0-108.672-48.696-108.672-108.672v-330.144c0-59.976 48.696-108.672 108.672-108.672h512.64zM762.856 254.328c-76.8-9.392-161.648-14.608-250.856-14.608s-174.056 5.216-250.856 14.608c-14.72 49.032-22.888 103.208-22.888 160.168 0 56.968 8.168 111.144 22.888 160.176 76.8 9.4 161.648 14.608 250.856 14.608s174.056-5.208 250.848-14.608c14.728-49.032 22.896-103.208 22.896-160.176 0-56.96-8.168-111.136-22.888-160.168z" />
<glyph unicode="&#xe94c;" glyph-name="folder" d="M704 672h288v-560h-960v672h537.6l134.4-112z" />
<glyph unicode="&#xe94d;" glyph-name="file" d="M896 736l-192 192h-576v-960h768v768zM725.088 759.68l-8 144 153.72-153.728-145.72 9.728z" />
<glyph unicode="&#xe94e;" glyph-name="file-text" d="M896 736v-768h-768v960h576l192-192zM744 160v32h-464v-32h464zM744 264v32h-464v-32h464zM535.944 368v159.888h-255.944v-159.888h255.944zM744 384.168v32h-168.168v-32h168.168zM744 472v32h-168.168v-32h168.168zM744 640v48h-464v-48h464zM725.088 759.68l145.72-9.728-153.72 153.728 8-144z" />
<glyph unicode="&#xe94f;" glyph-name="file-zip" d="M896 736v-768h-768v960h576l192-192zM417.448 184.232c-19.784 0.552-45.064 3.416-46.568-11.072-2.44-32.216-5.752-64.384-7.304-96.656 0.048-6.616 5.48-12.072 12-12.248 26.208 0 61.288-4.464 60.448 12.904-2.44 32.216-4.008 64.52-7.344 96.656-0.896 5.616-5.568 9.944-11.232 10.416zM416.48 106.552h-33.328c-4.184 0-7.576-3.392-7.576-7.568v-15.152c0-4.184 3.392-7.576 7.576-7.576h33.328c4.184 0 7.576 3.392 7.576 7.576v15.152c0 4.176-3.392 7.568-7.576 7.568zM458.664 232.048c3.008 0 5.448 2.44 5.448 5.448v25.456c0 3.008-2.44 5.456-5.448 5.456h-69.208c-3.016 0-5.456-2.448-5.456-5.456v-25.456c0-3.008 2.448-5.448 5.456-5.448h69.208zM418.6 284.888c3.016 0 5.456 2.448 5.456 5.456v25.456c0 3.008-2.44 5.448-5.456 5.448h-69.2c-3.016 0-5.456-2.44-5.456-5.448v-25.456c0-3.008 2.44-5.456 5.456-5.456h69.2zM458.664 337.736c3.008 0 5.448 2.44 5.448 5.448v25.456c0 3.008-2.44 5.456-5.448 5.456h-69.208c-3.016 0-5.456-2.448-5.456-5.456v-25.456c0-3.008 2.448-5.448 5.456-5.448h69.208zM418.6 390.576c3.016 0 5.456 2.448 5.456 5.456v25.456c0 3.008-2.44 5.448-5.456 5.448h-69.2c-3.016 0-5.456-2.44-5.456-5.448v-25.456c0-3.016 2.44-5.456 5.456-5.456h69.2zM458.664 443.416c3.008 0.008 5.448 2.448 5.448 5.456v25.456c0 3.008-2.44 5.456-5.448 5.456h-69.208c-3.016 0-5.456-2.448-5.456-5.456v-25.456c0-3.008 2.448-5.456 5.456-5.456h69.208zM418.6 496.264c3.016 0 5.456 2.44 5.456 5.456v25.448c0 3.016-2.44 5.456-5.456 5.456h-69.2c-3.016 0-5.456-2.44-5.456-5.456v-25.448c0-3.016 2.44-5.456 5.456-5.456h69.2zM458.664 549.104c3.008 0 5.448 2.448 5.448 5.456v25.456c0 3.008-2.44 5.456-5.448 5.456h-69.208c-3.016 0-5.456-2.448-5.456-5.456v-25.456c0-3.008 2.448-5.456 5.456-5.456h69.208zM418.6 601.952c3.016 0 5.456 2.44 5.456 5.456v25.448c0 3.016-2.44 5.456-5.456 5.456h-69.2c-3.016 0-5.456-2.44-5.456-5.456v-25.448c0-3.016 2.44-5.456 5.456-5.456h69.2zM458.664 654.792c3.008 0 5.448 2.448 5.448 5.456v25.456c0 3.008-2.44 5.456-5.448 5.456h-69.208c-3.016 0-5.456-2.448-5.456-5.456v-25.456c0-3.008 2.448-5.456 5.456-5.456h69.208zM418.6 707.64c3.016 0 5.456 2.44 5.456 5.448v25.456c0 3.008-2.44 5.456-5.456 5.456h-69.2c-3.016 0-5.456-2.448-5.456-5.456v-25.456c0-3.008 2.44-5.448 5.456-5.448h69.2zM725.088 759.68l145.72-9.728-153.72 153.728 8-144z" />
<glyph unicode="&#xe950;" glyph-name="file-image" d="M896 736v-768h-768v960h576l192-192zM747.016 176c5.44 0.432 6.888 1.528 7.344 7.344v369.312c-0.384 4.936-0.992 6-6.192 7.256-0.384 0.024-0.768 0.056-1.152 0.088h-470.032c-5.44-0.424-6.888-1.528-7.344-7.344v-369.312c0.424-5.44 1.528-6.888 7.344-7.344h470.032zM739.672 545.312v-354.624h-455.344v354.624h455.344zM721.84 204.272c-41.632 54.848-119.168 190.512-182.704 88.864-59.528 188.936-233.304 60.064-236.976-87.040l266.592-1.824h153.088zM571.24 511.080c-32.696 0-59.24-26.504-59.24-59.144 0-32.648 26.544-59.144 59.24-59.144s59.248 26.496 59.248 59.144c0 32.64-26.552 59.144-59.248 59.144zM725.088 759.68l145.72-9.728-153.72 153.728 8-144z" />
<glyph unicode="&#xe951;" glyph-name="file-video" d="M896 736v-768h-768v960h576l192-192zM768 192v352h-512v-352h512zM291.24 241.312h-19.096c-3.56 0-6.448-2.888-6.448-6.448v-12.904c0-3.56 2.888-6.448 6.448-6.448h19.096c3.56 0 6.456 2.888 6.456 6.448v12.904c0 3.56-2.888 6.448-6.456 6.448zM751.856 241.312h-19.096c-3.568 0-6.456-2.888-6.456-6.448v-12.904c0-3.56 2.896-6.448 6.456-6.448h19.096c3.56 0 6.448 2.888 6.448 6.448v12.904c0 3.56-2.888 6.448-6.448 6.448zM704 505.144h-384v-274.288h384v274.288zM576 368l-109.712-82.288v164.576l109.712-82.288zM291.24 334.216h-19.096c-3.56 0-6.448-2.896-6.448-6.448v-12.904c0-3.56 2.888-6.456 6.448-6.456h19.096c3.56 0 6.456 2.896 6.456 6.456v12.904c0 3.552-2.888 6.448-6.456 6.448zM751.856 334.216h-19.096c-3.568 0-6.456-2.896-6.456-6.448v-12.904c0-3.56 2.896-6.456 6.456-6.456h19.096c3.56 0 6.448 2.896 6.448 6.456v12.904c0 3.552-2.888 6.448-6.448 6.448zM751.856 427.352h-19.096c-3.568 0-6.456-2.888-6.456-6.448v-12.904c0-3.56 2.896-6.456 6.456-6.456h19.096c3.56 0 6.448 2.896 6.448 6.456v12.904c0 3.56-2.888 6.448-6.448 6.448zM291.24 427.352h-19.096c-3.56 0-6.448-2.888-6.448-6.448v-12.904c0-3.56 2.888-6.456 6.448-6.456h19.096c3.56 0 6.456 2.896 6.456 6.456v12.904c0 3.56-2.888 6.448-6.456 6.448zM751.856 520.488h-19.096c-3.568 0-6.456-2.888-6.456-6.448v-12.904c0-3.56 2.896-6.448 6.456-6.448h19.096c3.56 0 6.448 2.888 6.448 6.448v12.904c0 3.56-2.888 6.448-6.448 6.448zM291.24 520.488h-19.096c-3.56 0-6.448-2.888-6.448-6.448v-12.904c0-3.56 2.888-6.448 6.448-6.448h19.096c3.56 0 6.456 2.888 6.456 6.448v12.904c0 3.56-2.888 6.448-6.456 6.448zM725.088 759.68l145.72-9.728-153.72 153.728 8-144z" />
<glyph unicode="&#xe952;" glyph-name="file-audio" d="M896 736l-192 192h-576v-960h768v768zM517.608 531.928l-0.024 0.112 105.208 27.96c4.96-21.936 9.92-43.872 14.88-65.816l-99.688-26.496-13.152-235.76c-0.808-27.032-28.296-51.248-64.136-55.336-38.12-4.344-71.36 15.712-74.176 44.768s25.84 56.168 63.96 60.512c19.952 2.272 38.56-2.136 52.168-11.016l14.568 261.096 0.392-0.024zM725.088 759.68l-8 144 153.72-153.728-145.72 9.728z" />
<glyph unicode="&#xe953;" glyph-name="image" d="M896 134.288h-768c-9.504 0.744-11.304 3.112-12 12v603.424c0.752 9.512 3.112 11.304 12 12h768c0.624-0.048 1.248-0.096 1.88-0.144 8.504-2.040 9.488-3.784 10.12-11.856v-603.424c-0.752-9.504-3.112-11.304-12-12zM884 737.712h-744v-579.424h744v579.424zM854.856 180.48h-250.128l-435.584 2.976c6 240.36 289.936 450.928 387.192 142.224 103.808 166.080 230.504-55.576 298.52-145.2zM608.8 681.784c53.424 0 96.792-43.304 96.792-96.64s-43.368-96.64-96.792-96.64c-53.424 0-96.8 43.304-96.8 96.64s43.376 96.64 96.8 96.64z" />
<glyph unicode="&#xe954;" glyph-name="video" d="M912 173h-800v550h800v-550zM167.064 250.056h-29.84c-5.56 0-10.080-4.52-10.080-10.080v-20.16c0-5.568 4.52-10.080 10.080-10.080h29.84c5.568 0 10.080 4.512 10.080 10.080v20.16c0 5.56-4.512 10.080-10.080 10.080zM886.776 250.056h-29.84c-5.568 0-10.080-4.52-10.080-10.080v-20.16c0-5.568 4.512-10.080 10.080-10.080h29.84c5.56 0 10.080 4.512 10.080 10.080v20.16c0 5.56-4.52 10.080-10.080 10.080zM812 662.288h-600v-428.576h600v428.576zM612 448l-171.432-128.568v257.136l171.432-128.568zM167.064 395.216h-29.84c-5.56-0.008-10.080-4.52-10.080-10.080v-20.168c0-5.56 4.52-10.080 10.080-10.080h29.84c5.568 0 10.080 4.52 10.080 10.080v20.168c0 5.56-4.512 10.072-10.080 10.080zM886.776 395.216h-29.84c-5.568-0.008-10.080-4.52-10.080-10.080v-20.168c0-5.56 4.512-10.080 10.080-10.080h29.84c5.56 0 10.080 4.52 10.080 10.080v20.168c0 5.56-4.52 10.072-10.080 10.080zM886.776 540.736h-29.84c-5.568 0-10.080-4.512-10.080-10.080v-20.16c0-5.56 4.512-10.080 10.080-10.080h29.84c5.56 0 10.080 4.52 10.080 10.080v20.16c0 5.568-4.52 10.080-10.080 10.080zM167.064 540.736h-29.84c-5.56 0-10.080-4.512-10.080-10.080v-20.16c0-5.56 4.52-10.080 10.080-10.080h29.84c5.568 0 10.080 4.52 10.080 10.080v20.16c0 5.568-4.512 10.080-10.080 10.080zM886.776 686.264h-29.84c-5.568 0-10.080-4.512-10.080-10.080v-20.16c0-5.56 4.512-10.080 10.080-10.080h29.84c5.56 0 10.080 4.52 10.080 10.080v20.16c0 5.568-4.52 10.080-10.080 10.080zM167.064 686.264h-29.84c-5.56 0-10.080-4.512-10.080-10.080v-20.16c0-5.56 4.52-10.080 10.080-10.080h29.84c5.568 0 10.080 4.52 10.080 10.080v20.16c0 5.568-4.512 10.080-10.080 10.080z" />
<glyph unicode="&#xe955;" glyph-name="audio" d="M520.64 700.72l-0.032 0.168 162.192 43.112c7.648-33.824 15.296-67.64 22.944-101.464l-153.68-40.848-20.28-363.464c-1.256-41.68-43.624-79.016-98.88-85.312-58.776-6.696-110.008 24.232-114.352 69.016-4.344 44.792 39.84 86.6 98.608 93.296 30.752 3.504 59.44-3.296 80.424-16.984l22.464 402.52 0.592-0.040z" />
<glyph unicode="&#xe956;" glyph-name="facebook" d="M867.864 848h-711.728c-24.368 0-44.136-19.768-44.136-44.136v-711.728c0-24.4 19.768-44.136 44.136-44.136h383.128v309.8h-104.296v120.704h104.296v89.16c0 103.304 63.136 159.504 155.304 159.504 44.168 0 82.136-3.232 93.2-4.704v-108h-64.032c-50 0-59.736-24.032-59.736-59.032v-77.032h119.464l-15.496-121h-103.968v-309.4h203.832c24.432 0 44.168 19.736 44.168 44.136v711.728c0 24.368-19.736 44.136-44.136 44.136v0z" />
<glyph unicode="&#xe957;" glyph-name="github" d="M512 838.096c-221 0-400-179.104-400-400 0-176.768 114.6-326.664 273.504-379.504 20-3.76 27.328 8.6 27.328 19.24 0 9.496-0.328 34.664-0.496 68-111.272-24.136-134.736 53.664-134.736 53.664-18.2 46.168-44.496 58.496-44.496 58.496-36.24 24.8 2.8 24.304 2.8 24.304 40.16-2.8 61.264-41.2 61.264-41.2 35.664-61.168 93.632-43.504 116.496-33.264 3.6 25.864 13.904 43.496 25.336 53.496-88.832 10-182.2 44.4-182.2 197.664 0 43.672 15.504 79.336 41.168 107.336-4.504 10.104-18 50.768 3.496 105.864 0 0 33.504 10.736 110-41 32 8.904 66 13.304 100 13.504 34-0.2 68-4.6 100-13.504 76 51.736 109.504 41 109.504 41 21.496-55.096 8-95.76 4-105.864 25.496-28 41-63.664 41-107.336 0-153.664-93.504-187.496-182.504-197.328 14-12 27-36.536 27-74 0-53.536-0.496-96.536-0.496-109.536 0-10.496 7-23 27.496-19 160.040 52.464 274.536 202.464 274.536 378.968 0 220.896-179.096 400-400 400v0z" />
<glyph unicode="&#xe958;" glyph-name="google-hangout" d="M512 848c-193.336 0-350-156.664-350-350 0-183.336 166.664-333.336 350-333.336v-116.664c211.664 103.336 350 273.336 350 450 0 193.336-156.664 350-350 350zM495.336 448c0-46.664-30-83.336-66.672-83.336v83.336h-83.328v150h150v-150zM695.336 448c0-46.664-30-83.336-66.672-83.336v83.336h-83.328v150h150v-150z" />
<glyph unicode="&#xe959;" glyph-name="google-plus" d="M366.504 484.4v-87.296h144.496c-5.768-37.504-43.664-109.84-144.368-109.84-86.8 0-157.696 72-157.696 160.768 0 88.736 70.728 160.736 157.6 160.736 49.496 0 82.632-21.104 101.496-39.264l69.104 66.464c-44.336 41.496-101.872 66.496-170.504 66.496-140.896 0.072-254.632-113.928-254.632-254.432 0-140.496 113.8-254.496 254.504-254.496 147 0 244.4 103.264 244.4 248.696 0 16.704-1.8 29.504-4 42.168h-240.4zM912 484.4h-72.768v72.768h-72.768v-72.768h-72.728v-72.696h72.8v-72.8h72.968v72.8h72.496v72.696z" />
<glyph unicode="&#xe95a;" glyph-name="instagram" d="M512 848c-108.664 0-122.232-0.496-164.896-2.4-42.6-2-71.6-8.696-97.104-18.6-26.296-10.2-48.632-23.896-70.864-46.136-22.232-22.232-35.968-44.528-46.136-70.864-9.896-25.496-16.632-54.496-18.6-97.096-2-42.672-2.4-56.24-2.4-164.904s0.504-122.232 2.4-164.896c2-42.568 8.704-71.6 18.6-97.104 10.2-26.264 23.904-48.632 46.136-70.864 22.232-22.2 44.528-35.968 70.864-46.136 25.536-9.864 54.536-16.632 97.104-18.6 42.664-2 56.232-2.4 164.896-2.4s122.232 0.504 164.904 2.4c42.56 2 71.6 8.736 97.096 18.6 26.264 10.2 48.632 23.936 70.864 46.136 22.2 22.232 35.968 44.496 46.136 70.864 9.864 25.504 16.632 54.536 18.6 97.104 2 42.664 2.4 56.232 2.4 164.896s-0.496 122.232-2.4 164.904c-2 42.56-8.736 71.632-18.6 97.096-10.2 26.304-23.936 48.632-46.136 70.864-22.232 22.24-44.496 35.968-70.864 46.136-25.496 9.904-54.536 16.632-97.096 18.6-42.672 2-56.24 2.4-164.904 2.4zM512 776c106.768 0 119.504-0.536 161.664-2.368 39-1.832 60.168-8.296 74.24-13.832 18.728-7.232 32-15.896 46.064-29.864 13.968-14 22.632-27.304 29.864-46.032 5.464-14.072 12-35.24 13.768-74.24 1.896-42.2 2.336-54.864 2.336-161.664s-0.504-119.496-2.472-161.664c-2.032-39-8.528-60.168-14.032-74.232-7.464-18.736-15.968-32-29.968-46.072-13.96-13.968-27.464-22.632-46-29.864-14-5.464-35.496-12-74.496-13.768-42.464-1.896-54.968-2.336-161.968-2.336-107.032 0-119.536 0.504-161.968 2.472-39.032 2.032-60.528 8.528-74.528 14.032-18.968 7.464-32 15.968-45.968 29.968-14.032 13.968-23 27.464-30 46-5.504 14-11.968 35.496-14 74.496-1.504 42-2.032 54.968-2.032 161.472 0 106.528 0.528 119.528 2.032 162.032 2.032 39 8.496 60.464 14 74.464 7 19 15.968 32 30 46.032 13.968 13.968 27 22.968 45.968 29.936 14 5.536 35.032 12.032 74.032 14.032 42.496 1.504 55 2 161.968 2l1.496-1zM512 653.4c-113.496 0-205.4-92-205.4-205.4 0-113.496 92-205.4 205.4-205.4 113.504 0 205.4 92 205.4 205.4 0 113.504-92 205.4-205.4 205.4zM512 314.664c-73.664 0-133.336 59.672-133.336 133.336s59.672 133.336 133.336 133.336c73.664 0 133.336-59.672 133.336-133.336s-59.672-133.336-133.336-133.336zM773.536 661.504c0-26.504-21.536-48-48-48-26.504 0-48 21.528-48 48 0 26.464 21.528 47.96 48 47.96 26.432 0.040 48-21.496 48-47.96z" />
<glyph unicode="&#xe95b;" glyph-name="linkedin" d="M793.568 166.264h-118.464v185.64c0 44.264-0.904 101.232-61.736 101.232-61.768 0-71.2-48.168-71.2-97.968v-188.904h-118.464v381.736h113.8v-52.032h1.528c15.904 30 54.568 61.664 112.336 61.664 120.032 0 142.232-79 142.232-181.832v-209.536h-0.032zM289.904 600.232c-38.136 0-68.768 30.872-68.768 68.832 0 37.936 30.664 68.768 68.768 68.768 38 0 68.8-30.832 68.8-68.768 0-37.96-30.84-68.832-68.8-68.832zM349.304 166.264h-118.8v381.736h118.8v-381.736zM852.832 848h-681.8c-32.632 0-59.032-25.8-59.032-57.632v-684.736c0-31.864 26.4-57.632 59.032-57.632h681.704c32.6 0 59.264 25.768 59.264 57.632v684.736c0 31.832-26.664 57.632-59.264 57.632h0.096z" />
<glyph unicode="&#xe95c;" glyph-name="messenger" d="M512 848c-220.896 0-400-165.8-400-370.368 0-116.6 58.136-220.464 148.968-288.464v-141.168l136.264 74.736c36.4-10 74.864-15.472 114.768-15.472 220.896 0 400 165.84 400 370.336 0 204.504-179.104 370.4-400 370.4v0zM551.704 349.232l-101.84 108.664-198.76-108.664 218.632 232.104 104.368-108.64 196.296 108.64-218.696-232.104z" />
<glyph unicode="&#xe95d;" glyph-name="skype" d="M514.32 220.256c-134.104 0-194 65.968-194 115.464 0 25.504 18.696 43.2 44.432 43.2 57.432 0 42.432-82.56 149.568-82.56 54.696 0 85 29.832 85 60.36 0 18.368-8.968 38.672-45.136 47.64l-119.2 29.832c-96 24.136-113.432 76.2-113.432 125.032 0 101.568 95.368 139.704 184.968 139.704 82.36 0 179.76-45.768 179.76-106.64 0-26.128-22.928-41.328-48.432-41.328-48.968 0-39.936 67.896-138.8 67.896-48.968 0-76.4-22.136-76.4-53.896 0-31.768 38.432-41.936 71.904-49.568l87.896-19.568c96.368-21.632 120.8-78.2 120.8-131.464 0-82.536-63.4-144.136-190.736-144.136l1.808 0.032zM881.984 382.96l-0.968-4.504-1.464 8c0.496-1.496 1.464-2.464 1.968-4 4 22.504 6.032 45.432 6.032 68.4 0 50.968-10.032 100.4-29.936 147.336-18.968 44.936-46.496 85.4-80.896 119.864-34.968 34.432-74.904 61.864-119.84 80.864-43.928 21.040-93.36 31-144.264 31-24 0-48.136-2.328-71.432-6.8l3.968-2-7.968 1.104 3.968 0.832c-32.136 17.2-68.168 26.336-104.768 26.336-59.632 0-115.664-23.264-157.864-65.568-42.2-42.264-65.44-98.536-65.44-158.296 0-38.104 9.736-75.504 28.136-108.6l0.664 4.128 1.368-7.968-2 3.84c-3.8-21.504-5.728-43.304-5.728-65.168 0-51 10-100.568 29.464-147.2 18.936-45.4 45.936-85.864 80.896-120.304 34.472-35 74.904-61.896 119.84-81.4 46.464-20 95.896-29.928 146.8-29.928 21.96 0 44.464 2 65.896 5.96l-3.968 2.072 8-1.536-4.496-1c33.4-18.968 70.864-29.032 109.8-29.032 59.432 0 115.296 23 157.768 65.432 41.96 41.968 65.4 98.368 65.4 158.304 0 37.928-9.968 75.4-28.44 108.864l-0.496 0.968z" />
<glyph unicode="&#xe95e;" glyph-name="telegram" d="M393.384 342.072l296.432-219.016c33.848-18.672 58.288-9.032 66.696 31.416l120.704 568.632c12.408 49.584-18.808 71.992-51.152 57.352l-708.712-273.328c-48.352-19.408-48.112-46.416-8.8-58.456l181.896-56.688 420.944 265.528c19.84 12.008 38.112 5.568 23.144-7.736l-341.152-307.704z" />
<glyph unicode="&#xe95f;" glyph-name="twitter" d="M910.432 697.064c-29.496-12.968-61-21.8-94.16-25.832 33.8 20.368 59.8 52.464 72.096 90.76-31.696-18.496-66.832-31.96-104.232-39.464-29.864 31.968-72.432 51.968-119.696 51.968-90.56 0-163.992-73.432-163.992-163.896 0-13 1.504-25.496 4.232-37.464-136.328 6.432-257.152 71.896-338.016 170.856-14.232-24.064-22.2-52.032-22.2-82.496 0-56.992 29-107.096 72.928-136.528-26.896 0.872-52.192 8.272-74.256 20.536v-2.032c0-79.496 56.424-145.792 131.528-160.896-13.768-3.696-28.304-5.696-43.2-5.696-10.464 0-20.504 1-30.536 2.864 21.032-65.096 81.496-112.56 153.464-113.896-56-43.968-126.96-70.16-203.392-70.16-13 0-25.968 0.76-39 2.232 72.96-46.464 158.928-73.632 251.888-73.632 301.792 0 466.616 249.856 466.616 466.184 0 6.96 0 13.992-0.504 20.992 32.032 22.968 60 52 82 84.936l-1.568 0.664z" />
<glyph unicode="&#xe960;" glyph-name="whatsapp" d="M695.264 368.6c-10.032 5-58.896 28.904-68 32.2-9.096 3.368-15.76 5-22.432-5-6.568-9.832-25.696-32.136-31.464-38.736-5.832-6.496-11.632-7-21.536-2.496-10 5-42.096 15.496-80.096 49.496-29.6 26.504-49.472 59-55.336 69-5.8 10-0.632 15.504 4.336 20.504 4.528 4.496 10.032 11.496 15.032 17.432 4.864 6.032 6.464 10.032 9.896 16.536 3.336 7 1.64 12.496-0.832 17.464-2.496 5-22.4 54-30.728 73.536-8 19.464-16.24 17-22.4 17-5.736 0.496-12.368 0.496-19.040 0.496-6.664 0-17.432-2.464-26.56-11.968-9.104-10-34.84-34-34.84-82.496 0-48.504 35.672-95.504 40.64-102.504 4.96-6.496 70.16-106.496 170-149.496 23.8-10 42.328-16 56.8-20.968 23.8-7.568 45.496-6.496 62.664-4.032 19.136 3.032 58.896 24.032 67.2 47.536 8.496 23.496 8.496 43 6 47.496-2.464 4.504-9 7-19 11.504l-0.304-2.504zM514.032 123h-0.528c-59 0-117.472 16-168.504 46l-12 7.136-125-32.504 33.504 121.504-7.968 12.496c-33 52.536-50.536 113.032-50.536 175.336 0 181.496 148.504 329.496 331.4 329.496 88.464 0 171.504-34.496 234.032-97 62.504-61.96 96.968-145 96.968-233-0.136-181.464-148.664-329.496-331.168-329.496l-0.2 0.032zM796 733.032c-76 73.472-176 114.968-282.496 114.968-219.4 0-398.040-177.8-398.136-396.432 0-69.864 18.296-138 53.168-198.168l-56.536-205.4 211.168 55.064c58.2-31.432 123.664-48.128 190.336-48.232h0.2c219.496 0 398.2 177.864 398.296 396.536 0 105.864-41.336 205.496-116.496 280.368l0.496 1.296z" />
<glyph unicode="&#xe961;" glyph-name="wordpress" d="M513.384 848c-220.56 0-399.992-179.432-399.992-399.992 0-220.568 179.432-400.008 399.992-400.008 220.568 0 400.008 179.44 400.008 400.008 0 220.56-179.44 399.992-400.008 399.992zM513.384 66.344c-210.44 0-381.648 171.224-381.648 381.664s171.208 381.648 381.648 381.648c210.44 0 381.656-171.208 381.656-381.648s-171.216-381.664-381.656-381.664zM519.416 417.992l-102.968-299.16c30.752-9.040 63.256-13.984 96.936-13.984 39.96 0 78.288 6.904 113.952 19.456-0.912 1.472-1.76 3.032-2.456 4.728l-105.464 288.96zM170.256 448.016c0-135.824 78.92-253.208 193.392-308.816l-163.68 448.464c-19.040-42.672-29.712-89.904-29.712-139.648zM814.496 612.632c1.472-10.928 2.304-22.656 2.304-35.288 0-34.808-6.52-73.952-26.096-122.904l-104.8-303.024c102.008 59.48 170.616 170.008 170.616 296.6 0 59.656-15.24 115.744-42.024 164.616zM745.032 465.32c0 42.424-15.24 71.776-28.296 94.632-17.384 28.28-33.704 52.2-33.704 80.48 0 31.536 23.92 60.896 57.624 60.896 1.52 0 2.968-0.176 4.448-0.272-61.048 55.936-142.384 90.088-231.72 90.088-119.88 0-225.336-61.512-286.696-154.656 8.056-0.264 15.648-0.416 22.088-0.416 35.88 0 91.448 4.36 91.448 4.36 18.488 1.080 20.672-26.088 2.2-28.28 0 0-18.6-2.168-39.272-3.256l124.944-371.688 75.104 225.208-53.456 146.48c-18.488 1.088-35.992 3.256-35.992 3.256-18.496 1.096-16.32 29.36 2.176 28.28 0 0 56.664-4.36 90.376-4.36 35.872 0 91.456 4.36 91.456 4.36 18.496 1.080 20.68-26.088 2.192-28.28 0 0-18.616-2.168-39.272-3.256l124.008-368.856 34.232 114.352c14.816 47.48 26.112 81.56 26.112 110.928z" />
<glyph unicode="&#xe962;" glyph-name="youtube" d="M895.296 641.224c-9.664 33.84-35.776 59.96-68.92 69.448l-0.704 0.176c-62.36 16.704-313.32 16.704-313.32 16.704s-250.32 0.336-313.312-16.704c-33.848-9.664-59.96-35.784-69.456-68.92l-0.168-0.704c-11.080-57.040-17.416-122.632-17.416-189.704 0-1.36 0-2.72 0.008-4.080v0.208c0-0.936-0.008-2.040-0.008-3.152 0-67.064 6.336-132.656 18.448-196.192l-1.032 6.504c9.664-33.84 35.776-59.96 68.92-69.448l0.704-0.176c62.288-16.736 313.312-16.736 313.312-16.736s250.296 0 313.32 16.736c33.848 9.664 59.96 35.784 69.456 68.92l0.168 0.704c10.624 55.864 16.696 120.112 16.696 185.784 0 2.48-0.008 4.96-0.024 7.44v-0.384c0.024 2.312 0.032 5.032 0.032 7.76 0 65.68-6.080 129.944-17.704 192.256l1-6.44zM432.256 327.904v239.856l208.88-120.112-208.88-119.744z" />
<glyph unicode="&#xe963;" glyph-name="home" d="M766.656 128l-3.112 275.768h148.456l-400.504 364.232-399.496-364.232h143.72v-272.512l217.264-1.304 2.016 272.848 146.32 1.28-0.768-274.768 146.104-1.312z" />
<glyph unicode="&#xe974;" glyph-name="device-smartwatch" d="M588.128 192h-168.488c-32.128 0-58.208 26.080-58.208 58.208v7l-50.392 48.28h2.336c-12.704 12.144-20.624 29.256-20.624 48.2v204.456c0 28.248 17.6 52.416 42.424 62.128l26.256 25.88c0.192 31.96 26.2 57.848 58.208 57.848h168.488c32.008 0 58.008-25.888 58.2-57.848l26.264-25.88c24.824-9.712 42.424-33.88 42.424-62.128v-62.64h3.592c6.984 0 12.64-5.664 12.64-12.64v-53.896c0-6.976-5.656-12.64-12.64-12.64h-3.592v-62.64c0-18.944-7.92-36.056-20.632-48.2h2.344l-50.4-48.28v-7c0-32.128-26.080-58.208-58.2-58.208zM664.504 574.68h-321.248c-13.312 0-24.12-10.808-24.12-24.12v-189.288c0-13.312 10.808-24.12 24.12-24.12h321.248c13.312 0 24.12 10.808 24.12 24.12v189.288c0 13.312-10.808 24.12-24.12 24.12z" />
</font>
</defs>
</svg>
